<?xml version="1.0" encoding="utf-8" ?>
<svg baseProfile="tiny" height="3272" version="1.2" width="3272" xmlns="http://www.w3.org/2000/svg" xmlns:ev="http://www.w3.org/2001/xml-events" xmlns:xlink="http://www.w3.org/1999/xlink"><defs /><polygon fill="black" points="1557,1468 1556,1469 1552,1469 1551,1470 1550,1470 1547,1473 1546,1473 1545,1474 1543,1474 1542,1475 1540,1475 1539,1476 1539,1477 1538,1478 1538,1479 1536,1481 1535,1481 1532,1484 1532,1486 1531,1487 1531,1489 1530,1490 1530,1491 1529,1492 1529,1494 1528,1495 1528,1506 1529,1507 1529,1510 1530,1511 1530,1513 1531,1514 1531,1517 1532,1518 1532,1528 1533,1529 1533,1531 1534,1532 1534,1533 1537,1536 1537,1537 1538,1538 1538,1542 1539,1543 1539,1550 1544,1555 1544,1556 1545,1557 1545,1563 1546,1564 1546,1566 1547,1567 1547,1568 1550,1571 1550,1572 1551,1573 1551,1575 1552,1576 1552,1583 1553,1584 1553,1585 1554,1586 1554,1587 1557,1590 1557,1592 1558,1593 1558,1597 1559,1598 1559,1602 1564,1607 1564,1609 1565,1610 1565,1616 1566,1617 1566,1619 1568,1621 1568,1622 1570,1624 1570,1625 1571,1626 1571,1633 1572,1634 1572,1636 1576,1640 1576,1641 1577,1642 1577,1645 1578,1646 1578,1651 1579,1652 1579,1654 1583,1658 1583,1659 1584,1660 1584,1667 1585,1668 1585,1670 1586,1671 1586,1672 1587,1673 1587,1674 1590,1677 1590,1680 1591,1681 1591,1687 1592,1688 1592,1690 1595,1693 1595,1694 1596,1695 1596,1696 1597,1697 1597,1703 1598,1704 1598,1708 1600,1710 1600,1711 1603,1714 1603,1717 1604,1718 1604,1725 1605,1726 1605,1728 1609,1732 1609,1733 1610,1734 1610,1739 1611,1740 1611,1745 1612,1746 1612,1747 1615,1750 1615,1751 1616,1752 1616,1755 1617,1756 1617,1762 1618,1763 1618,1765 1622,1769 1622,1770 1623,1771 1623,1778 1624,1779 1624,1782 1625,1783 1625,1784 1628,1787 1628,1788 1629,1789 1629,1790 1630,1791 1630,1799 1631,1800 1631,1801 1632,1802 1632,1803 1635,1806 1635,1807 1636,1808 1636,1814 1637,1815 1637,1819 1638,1820 1638,1821 1640,1823 1640,1824 1642,1826 1642,1827 1643,1828 1643,1836 1644,1837 1644,1838 1648,1842 1648,1843 1649,1844 1649,1848 1650,1849 1650,1855 1651,1856 1651,1857 1655,1861 1655,1863 1656,1864 1656,1871 1657,1872 1657,1874 1658,1875 1658,1876 1662,1880 1662,1884 1663,1885 1663,1891 1664,1892 1664,1893 1668,1897 1668,1898 1669,1899 1669,1905 1670,1906 1670,1909 1674,1913 1674,1914 1675,1915 1675,1920 1676,1921 1676,1925 1677,1926 1677,1927 1678,1928 1678,1929 1681,1932 1681,1933 1682,1934 1682,1942 1683,1943 1683,1944 1684,1945 1684,1946 1687,1949 1687,1950 1688,1951 1688,1953 1689,1954 1689,1961 1690,1962 1690,1963 1694,1967 1694,1969 1695,1970 1695,1976 1696,1977 1696,1981 1700,1985 1700,1986 1701,1987 1701,1990 1702,1991 1702,1996 1703,1997 1703,1998 1704,1999 1704,2000 1707,2003 1707,2004 1708,2005 1708,2012 1709,2013 1709,2016 1711,2018 1711,2019 1713,2021 1713,2022 1714,2023 1714,2024 1715,2025 1715,2033 1716,2034 1716,2035 1720,2039 1720,2041 1721,2042 1721,2047 1722,2048 1722,2051 1723,2052 1723,2053 1726,2056 1726,2057 1727,2058 1727,2061 1728,2062 1728,2067 1729,2068 1729,2070 1730,2071 1730,2072 1734,2076 1734,2083 1735,2084 1735,2087 1737,2089 1737,2090 1739,2092 1739,2093 1740,2094 1740,2095 1741,2096 1741,2103 1742,2104 1742,2105 1743,2106 1743,2107 1746,2110 1746,2112 1747,2113 1747,2118 1748,2119 1748,2123 1749,2124 1749,2125 1753,2129 1753,2132 1754,2133 1754,2138 1755,2139 1755,2141 1756,2142 1756,2143 1759,2146 1759,2147 1760,2148 1760,2154 1761,2155 1761,2158 1762,2159 1762,2160 1765,2163 1765,2164 1766,2165 1766,2167 1767,2168 1767,2175 1768,2176 1768,2177 1769,2178 1769,2179 1772,2182 1772,2183 1773,2184 1773,2188 1774,2189 1774,2194 1775,2195 1775,2196 1779,2200 1779,2202 1780,2203 1780,2210 1781,2211 1781,2213 1784,2216 1784,2217 1786,2219 1786,2222 1787,2223 1787,2230 1789,2232 1789,2233 1792,2236 1792,2238 1793,2239 1793,2246 1794,2247 1794,2249 1799,2254 1799,2259 1800,2260 1800,2265 1801,2266 1801,2267 1804,2270 1804,2271 1806,2273 1806,2281 1807,2282 1807,2284 1808,2285 1808,2286 1811,2289 1811,2290 1812,2291 1812,2294 1813,2295 1813,2302 1814,2303 1814,2304 1817,2307 1817,2308 1818,2309 1818,2310 1819,2311 1819,2317 1820,2318 1820,2320 1821,2321 1821,2322 1824,2325 1824,2326 1825,2327 1825,2331 1826,2332 1826,2337 1827,2338 1827,2339 1831,2343 1831,2344 1832,2345 1832,2353 1833,2354 1833,2356 1834,2357 1834,2358 1837,2361 1837,2362 1838,2363 1838,2366 1839,2367 1839,2373 1840,2374 1840,2375 1844,2379 1844,2381 1845,2382 1845,2387 1846,2388 1846,2392 1850,2396 1850,2397 1851,2398 1851,2402 1852,2403 1852,2407 1853,2408 1853,2410 1856,2413 1856,2414 1858,2416 1858,2423 1859,2424 1859,2427 1860,2428 1860,2429 1864,2433 1864,2435 1865,2436 1865,2443 1866,2444 1866,2445 1869,2448 1869,2449 1870,2450 1870,2451 1871,2452 1871,2457 1872,2458 1872,2461 1873,2462 1873,2463 1876,2466 1876,2467 1877,2468 1877,2470 1878,2471 1878,2477 1879,2478 1879,2479 1880,2480 1880,2481 1883,2484 1883,2485 1884,2486 1884,2490 1885,2491 1885,2496 1886,2497 1886,2498 1890,2502 1890,2505 1891,2506 1891,2511 1892,2512 1892,2514 1896,2518 1896,2519 1897,2520 1897,2522 1898,2523 1898,2530 1899,2531 1899,2532 1902,2535 1902,2536 1903,2537 1903,2538 1904,2539 1904,2547 1905,2548 1905,2549 1909,2553 1909,2554 1910,2555 1910,2560 1911,2561 1911,2564 1912,2565 1912,2566 1915,2569 1915,2570 1917,2572 1917,2580 1918,2581 1918,2583 1922,2587 1922,2588 1923,2589 1923,2593 1924,2594 1924,2597 1925,2598 1925,2599 1929,2603 1929,2604 1930,2605 1930,2609 1931,2610 1931,2613 1933,2615 1934,2615 1936,2617 1936,2618 1937,2619 1937,2620 1939,2622 1940,2622 1946,2628 1951,2628 1952,2629 1976,2629 1977,2628 1979,2628 1985,2622 1987,2622 1988,2621 1989,2621 1994,2616 1995,2616 2000,2611 2000,2609 2001,2608 2001,2607 2002,2606 2002,2605 2003,2604 2004,2604 2007,2601 2007,2598 2008,2597 2008,2592 2013,2587 2013,2584 2014,2583 2014,2577 2015,2576 2015,2574 2018,2571 2018,2570 2019,2569 2019,2568 2020,2567 2020,2561 2021,2560 2021,2556 2022,2555 2022,2553 2026,2549 2026,2547 2027,2546 2027,2538 2028,2537 2028,2534 2031,2531 2031,2530 2032,2529 2032,2528 2033,2527 2033,2521 2034,2520 2034,2516 2035,2515 2035,2514 2038,2511 2038,2510 2039,2509 2039,2507 2040,2506 2040,2499 2041,2498 2041,2495 2045,2491 2045,2490 2046,2489 2046,2483 2047,2482 2047,2476 2048,2475 2048,2474 2052,2470 2052,2468 2053,2467 2053,2460 2054,2459 2054,2456 2055,2455 2055,2454 2058,2451 2058,2450 2059,2449 2059,2444 2060,2443 2060,2437 2061,2436 2061,2435 2063,2433 2063,2432 2065,2430 2065,2427 2066,2426 2066,2419 2067,2418 2067,2416 2070,2413 2070,2412 2072,2410 2072,2405 2073,2404 2073,2397 2075,2395 2075,2394 2078,2391 2078,2389 2079,2388 2079,2380 2080,2379 2080,2376 2084,2372 2084,2371 2085,2370 2085,2366 2086,2365 2086,2357 2087,2356 2087,2355 2090,2352 2090,2351 2091,2350 2091,2349 2092,2348 2092,2340 2093,2339 2093,2337 2096,2334 2096,2333 2098,2331 2098,2328 2099,2327 2099,2320 2100,2319 2100,2318 2101,2317 2102,2317 2103,2316 2104,2316 2105,2315 2106,2315 2107,2314 2112,2314 2113,2315 2115,2315 2116,2316 2117,2316 2122,2321 2123,2321 2127,2325 2127,2326 2129,2328 2130,2328 2132,2330 2132,2331 2139,2338 2139,2339 2141,2341 2142,2341 2145,2344 2145,2345 2148,2348 2149,2348 2152,2351 2152,2352 2155,2355 2156,2355 2159,2358 2159,2359 2161,2361 2162,2361 2165,2364 2165,2365 2168,2368 2169,2368 2171,2370 2171,2371 2172,2372 2172,2373 2173,2373 2175,2375 2176,2375 2177,2376 2177,2377 2179,2379 2179,2380 2180,2380 2181,2381 2182,2381 2184,2383 2184,2384 2185,2385 2185,2386 2186,2387 2187,2387 2188,2388 2189,2388 2190,2389 2190,2390 2192,2392 2192,2393 2193,2393 2194,2394 2195,2394 2197,2396 2197,2397 2198,2398 2198,2399 2199,2400 2200,2400 2204,2404 2204,2405 2205,2406 2206,2406 2211,2411 2211,2412 2212,2413 2213,2413 2217,2417 2217,2418 2224,2425 2224,2426 2225,2426 2227,2428 2228,2428 2229,2429 2229,2430 2230,2431 2230,2432 2232,2434 2233,2434 2236,2437 2236,2438 2238,2440 2239,2440 2243,2444 2243,2445 2245,2447 2246,2447 2248,2449 2248,2450 2252,2454 2253,2454 2255,2456 2255,2457 2256,2458 2256,2459 2263,2466 2263,2467 2277,2481 2277,2482 2280,2485 2281,2485 2282,2486 2282,2487 2290,2495 2290,2496 2291,2497 2292,2497 2296,2501 2296,2502 2298,2504 2299,2504 2303,2508 2303,2509 2305,2511 2306,2511 2309,2514 2309,2515 2311,2517 2312,2517 2315,2520 2315,2521 2318,2524 2319,2524 2321,2526 2321,2527 2325,2531 2326,2531 2328,2533 2328,2534 2331,2537 2332,2537 2335,2540 2335,2541 2338,2544 2339,2544 2341,2546 2341,2547 2344,2550 2345,2550 2347,2552 2347,2553 2349,2555 2349,2556 2350,2556 2355,2561 2355,2562 2356,2562 2361,2567 2361,2568 2362,2569 2363,2569 2367,2573 2367,2574 2369,2576 2370,2576 2374,2580 2374,2581 2376,2583 2377,2583 2380,2586 2380,2587 2383,2590 2384,2590 2386,2592 2386,2593 2389,2596 2390,2596 2393,2599 2393,2600 2396,2603 2397,2603 2400,2606 2400,2607 2402,2609 2403,2609 2406,2612 2406,2613 2409,2616 2410,2616 2413,2619 2413,2620 2415,2622 2416,2622 2420,2626 2420,2627 2421,2628 2422,2628 2426,2632 2426,2633 2428,2635 2429,2635 2430,2636 2431,2636 2432,2637 2432,2638 2435,2641 2436,2641 2437,2642 2440,2642 2441,2643 2442,2643 2444,2645 2444,2646 2445,2647 2446,2647 2447,2648 2450,2648 2451,2649 2454,2649 2458,2653 2459,2653 2460,2654 2461,2654 2462,2655 2467,2655 2468,2656 2469,2656 2470,2657 2471,2657 2473,2659 2475,2659 2476,2660 2478,2660 2479,2661 2510,2661 2511,2660 2513,2660 2514,2659 2515,2659 2517,2657 2518,2657 2519,2656 2520,2656 2521,2655 2526,2655 2527,2654 2529,2654 2533,2650 2534,2650 2535,2649 2536,2649 2537,2648 2539,2648 2540,2647 2541,2647 2541,2646 2545,2642 2546,2642 2549,2639 2549,2638 2552,2635 2553,2635 2555,2633 2555,2632 2556,2631 2556,2630 2559,2627 2559,2626 2561,2624 2561,2622 2562,2621 2562,2619 2566,2615 2567,2615 2568,2614 2568,2608 2569,2607 2569,2604 2570,2603 2570,2602 2572,2600 2572,2599 2574,2597 2574,2595 2575,2594 2575,2555 2574,2554 2574,2552 2571,2549 2571,2548 2570,2547 2570,2546 2569,2545 2569,2542 2568,2541 2568,2539 2567,2538 2567,2537 2564,2534 2564,2533 2563,2532 2563,2531 2562,2530 2562,2528 2561,2527 2561,2526 2560,2526 2555,2521 2555,2520 2553,2518 2552,2518 2550,2516 2550,2515 2546,2511 2545,2511 2544,2510 2544,2509 2542,2507 2542,2506 2541,2506 2536,2501 2536,2500 2530,2494 2530,2493 2528,2491 2528,2490 2522,2484 2522,2483 2516,2477 2516,2476 2513,2473 2512,2473 2510,2471 2510,2470 2509,2469 2509,2468 2508,2467 2507,2467 2503,2463 2503,2462 2501,2460 2500,2460 2497,2457 2497,2456 2494,2453 2493,2453 2490,2450 2490,2449 2489,2448 2489,2447 2488,2447 2484,2443 2484,2442 2478,2436 2478,2435 2471,2428 2471,2427 2469,2425 2469,2424 2464,2419 2464,2418 2457,2411 2457,2410 2455,2408 2454,2408 2451,2405 2451,2404 2448,2401 2447,2401 2445,2399 2445,2398 2444,2397 2444,2396 2443,2395 2442,2395 2441,2394 2440,2394 2439,2393 2439,2392 2434,2387 2433,2387 2432,2386 2432,2385 2431,2384 2431,2383 2430,2382 2429,2382 2425,2378 2425,2377 2423,2375 2422,2375 2419,2372 2419,2371 2417,2369 2417,2368 2416,2368 2413,2365 2413,2364 2406,2357 2406,2356 2400,2350 2400,2349 2392,2341 2392,2340 2385,2333 2385,2332 2383,2330 2382,2330 2379,2327 2379,2326 2378,2325 2378,2324 2377,2324 2372,2319 2372,2318 2371,2317 2370,2317 2365,2312 2365,2311 2364,2311 2360,2307 2360,2306 2357,2303 2356,2303 2353,2300 2353,2299 2351,2297 2350,2297 2347,2294 2347,2293 2340,2286 2340,2285 2339,2284 2338,2284 2337,2283 2336,2283 2335,2282 2335,2281 2333,2279 2333,2278 2327,2272 2327,2271 2323,2267 2323,2266 2320,2263 2320,2262 2314,2256 2314,2255 2310,2251 2309,2251 2308,2250 2308,2249 2300,2241 2300,2240 2299,2239 2298,2239 2295,2236 2295,2235 2291,2231 2290,2231 2289,2230 2289,2229 2288,2228 2288,2227 2282,2221 2282,2220 2279,2217 2278,2217 2276,2215 2276,2214 2273,2211 2272,2211 2268,2207 2268,2206 2267,2206 2266,2205 2265,2205 2262,2202 2262,2201 2259,2198 2258,2198 2257,2197 2257,2196 2256,2195 2256,2188 2258,2186 2259,2186 2260,2185 2262,2185 2263,2184 2265,2184 2266,2183 2267,2183 2269,2181 2270,2181 2271,2180 2272,2180 2273,2179 2278,2179 2279,2178 2287,2178 2289,2176 2290,2176 2292,2174 2293,2174 2294,2173 2295,2173 2296,2172 2306,2172 2307,2171 2308,2171 2309,2170 2310,2170 2313,2167 2314,2167 2315,2166 2320,2166 2321,2165 2329,2165 2330,2164 2331,2164 2332,2163 2333,2163 2336,2160 2338,2160 2339,2159 2350,2159 2351,2158 2353,2158 2355,2156 2356,2156 2358,2154 2359,2154 2360,2153 2364,2153 2365,2152 2372,2152 2373,2151 2375,2151 2378,2148 2379,2148 2380,2147 2381,2147 2382,2146 2392,2146 2393,2145 2396,2145 2397,2144 2398,2144 2401,2141 2402,2141 2403,2140 2407,2140 2408,2139 2416,2139 2417,2138 2419,2138 2422,2135 2423,2135 2424,2134 2426,2134 2427,2133 2435,2133 2436,2132 2439,2132 2440,2131 2441,2131 2444,2128 2445,2128 2446,2127 2448,2127 2449,2126 2458,2126 2459,2125 2460,2125 2461,2124 2462,2124 2464,2122 2465,2122 2466,2121 2467,2121 2468,2120 2478,2120 2479,2119 2482,2119 2483,2118 2484,2118 2487,2115 2488,2115 2489,2114 2492,2114 2493,2113 2502,2113 2503,2112 2505,2112 2507,2110 2508,2110 2510,2108 2511,2108 2512,2107 2520,2107 2521,2106 2525,2106 2526,2105 2527,2105 2531,2101 2534,2101 2535,2100 2540,2100 2541,2099 2542,2099 2546,2095 2547,2095 2548,2094 2552,2094 2553,2093 2554,2093 2555,2092 2555,2091 2559,2087 2560,2087 2561,2086 2561,2085 2562,2084 2562,2083 2568,2077 2568,2061 2569,2060 2569,2055 2568,2054 2568,2045 2565,2042 2564,2042 2563,2041 2563,2040 2562,2039 2562,2038 2560,2036 2559,2036 2558,2035 2557,2035 2556,2034 2556,2033 2553,2030 2552,2030 2551,2029 2548,2029 2547,2028 2546,2028 2541,2023 2539,2023 2538,2022 2536,2022 2535,2021 2534,2021 2531,2018 2530,2018 2529,2017 2527,2017 2526,2016 2524,2016 2522,2014 2521,2014 2518,2011 2516,2011 2515,2010 2513,2010 2512,2009 2511,2009 2509,2007 2509,2006 2508,2005 2507,2005 2506,2004 2503,2004 2502,2003 2500,2003 2499,2002 2498,2002 2497,2001 2497,2000 2494,1997 2491,1997 2490,1996 2488,1996 2487,1995 2486,1995 2485,1994 2485,1993 2483,1991 2482,1991 2481,1990 2479,1990 2478,1989 2476,1989 2472,1985 2471,1985 2470,1984 2468,1984 2467,1983 2466,1983 2462,1979 2461,1979 2460,1978 2457,1978 2456,1977 2454,1977 2450,1973 2450,1972 2449,1972 2448,1971 2445,1971 2444,1970 2442,1970 2437,1965 2436,1965 2435,1964 2433,1964 2432,1963 2431,1963 2427,1959 2425,1959 2424,1958 2422,1958 2421,1957 2420,1957 2418,1955 2418,1954 2416,1952 2414,1952 2413,1951 2409,1951 2403,1945 2402,1945 2401,1944 2398,1944 2394,1940 2393,1940 2392,1939 2391,1939 2390,1938 2388,1938 2383,1933 2382,1933 2381,1932 2378,1932 2377,1931 2376,1931 2370,1925 2367,1925 2366,1924 2364,1924 2359,1919 2357,1919 2356,1918 2355,1918 2350,1913 2348,1913 2347,1912 2344,1912 2343,1911 2342,1911 2341,1910 2341,1909 2338,1906 2337,1906 2336,1905 2334,1905 2333,1904 2332,1904 2329,1901 2328,1901 2326,1899 2324,1899 2323,1898 2322,1898 2318,1894 2317,1894 2316,1893 2313,1893 2312,1892 2311,1892 2310,1891 2309,1891 2308,1890 2308,1889 2306,1887 2305,1887 2304,1886 2302,1886 2301,1885 2299,1885 2294,1880 2292,1880 2291,1879 2290,1879 2289,1878 2288,1878 2287,1877 2287,1876 2286,1875 2285,1875 2284,1874 2283,1874 2282,1873 2279,1873 2278,1872 2277,1872 2275,1870 2275,1869 2273,1867 2272,1867 2271,1866 2268,1866 2267,1865 2266,1865 2262,1861 2261,1861 2260,1860 2259,1860 2258,1859 2256,1859 2253,1856 2252,1856 2250,1854 2248,1854 2247,1853 2245,1853 2239,1847 2237,1847 2236,1846 2234,1846 2233,1845 2232,1845 2230,1843 2230,1842 2229,1841 2228,1841 2227,1840 2225,1840 2224,1839 2223,1839 2222,1838 2221,1838 2218,1835 2217,1835 2216,1834 2213,1834 2212,1833 2211,1833 2209,1831 2209,1830 2207,1828 2205,1828 2204,1827 2201,1827 2200,1826 2199,1826 2196,1823 2196,1822 2195,1822 2194,1821 2192,1821 2191,1820 2189,1820 2188,1819 2187,1819 2183,1815 2182,1815 2181,1814 2179,1814 2178,1813 2177,1813 2173,1809 2172,1809 2171,1808 2168,1808 2167,1807 2166,1807 2164,1805 2164,1804 2161,1801 2156,1801 2155,1800 2154,1800 2152,1798 2152,1797 2151,1796 2150,1796 2149,1795 2148,1795 2147,1794 2145,1794 2144,1793 2143,1793 2139,1789 2137,1789 2136,1788 2134,1788 2129,1783 2128,1783 2127,1782 2124,1782 2123,1781 2121,1781 2119,1779 2119,1778 2116,1775 2113,1775 2112,1774 2110,1774 2106,1770 2105,1770 2104,1769 2103,1769 2102,1768 2100,1768 2097,1765 2096,1765 2094,1763 2092,1763 2091,1762 2089,1762 2083,1756 2081,1756 2080,1755 2077,1755 2076,1754 2075,1754 2074,1753 2074,1752 2072,1750 2071,1750 2070,1749 2068,1749 2067,1748 2065,1748 2062,1745 2061,1745 2059,1743 2058,1743 2057,1742 2055,1742 2050,1737 2048,1737 2047,1736 2044,1736 2043,1735 2042,1735 2040,1733 2040,1732 2038,1730 2036,1730 2035,1729 2032,1729 2031,1728 2030,1728 2028,1726 2028,1725 2027,1724 2026,1724 2025,1723 2024,1723 2023,1722 2021,1722 2020,1721 2019,1721 2016,1718 2015,1718 2014,1717 2013,1717 2012,1716 2010,1716 2009,1715 2008,1715 2004,1711 2002,1711 2001,1710 1999,1710 1998,1709 1997,1709 1996,1708 1995,1708 1994,1707 1994,1706 1992,1704 1990,1704 1989,1703 1986,1703 1985,1702 1984,1702 1981,1699 1981,1698 1980,1698 1979,1697 1977,1697 1976,1696 1973,1696 1968,1691 1967,1691 1966,1690 1964,1690 1963,1689 1962,1689 1959,1686 1958,1686 1957,1685 1956,1685 1955,1684 1953,1684 1952,1683 1951,1683 1950,1682 1949,1682 1948,1681 1948,1680 1947,1679 1946,1679 1945,1678 1943,1678 1942,1677 1939,1677 1933,1671 1930,1671 1929,1670 1926,1670 1920,1664 1917,1664 1916,1663 1914,1663 1910,1659 1909,1659 1908,1658 1907,1658 1906,1657 1904,1657 1903,1656 1902,1656 1901,1655 1900,1655 1897,1652 1896,1652 1895,1651 1893,1651 1892,1650 1891,1650 1887,1646 1886,1646 1885,1645 1882,1645 1881,1644 1879,1644 1874,1639 1873,1639 1872,1638 1868,1638 1867,1637 1866,1637 1863,1634 1863,1633 1862,1632 1859,1632 1858,1631 1855,1631 1849,1625 1846,1625 1845,1624 1843,1624 1842,1623 1841,1623 1839,1621 1839,1620 1838,1620 1837,1619 1836,1619 1835,1618 1833,1618 1832,1617 1831,1617 1829,1615 1828,1615 1826,1613 1825,1613 1824,1612 1822,1612 1821,1611 1820,1611 1815,1606 1812,1606 1811,1605 1808,1605 1805,1602 1805,1601 1803,1599 1800,1599 1799,1598 1797,1598 1792,1593 1790,1593 1789,1592 1787,1592 1786,1591 1785,1591 1781,1587 1779,1587 1778,1586 1776,1586 1775,1585 1774,1585 1772,1583 1772,1582 1770,1580 1768,1580 1767,1579 1763,1579 1759,1575 1759,1574 1758,1574 1757,1573 1755,1573 1754,1572 1751,1572 1750,1571 1749,1571 1748,1570 1748,1569 1746,1567 1745,1567 1744,1566 1742,1566 1741,1565 1739,1565 1735,1561 1734,1561 1733,1560 1731,1560 1730,1559 1728,1559 1724,1555 1723,1555 1722,1554 1720,1554 1719,1553 1717,1553 1716,1552 1715,1552 1714,1551 1714,1550 1711,1547 1708,1547 1707,1546 1704,1546 1702,1544 1702,1543 1700,1541 1699,1541 1698,1540 1694,1540 1693,1539 1692,1539 1691,1538 1690,1538 1689,1537 1689,1536 1688,1535 1687,1535 1686,1534 1685,1534 1684,1533 1682,1533 1681,1532 1680,1532 1679,1531 1678,1531 1675,1528 1674,1528 1673,1527 1671,1527 1670,1526 1669,1526 1667,1524 1667,1523 1666,1523 1665,1522 1664,1522 1663,1521 1660,1521 1659,1520 1658,1520 1654,1516 1654,1515 1653,1515 1652,1514 1648,1514 1647,1513 1645,1513 1643,1511 1643,1510 1641,1508 1639,1508 1638,1507 1636,1507 1635,1506 1634,1506 1633,1505 1632,1505 1629,1502 1628,1502 1627,1501 1625,1501 1624,1500 1623,1500 1619,1496 1618,1496 1617,1495 1614,1495 1613,1494 1612,1494 1607,1489 1606,1489 1605,1488 1601,1488 1600,1487 1599,1487 1596,1484 1596,1483 1595,1482 1593,1482 1592,1481 1588,1481 1587,1480 1586,1480 1584,1478 1584,1477 1583,1476 1582,1476 1581,1475 1578,1475 1577,1474 1575,1474 1574,1473 1573,1473 1569,1469 1565,1469 1564,1468" /><polygon fill="black" points="1543,1261 1542,1262 1540,1262 1539,1263 1537,1263 1536,1264 1529,1264 1528,1265 1524,1265 1523,1266 1487,1266 1486,1267 1480,1267 1479,1268 1477,1268 1476,1269 1475,1269 1474,1270 1473,1270 1472,1271 1470,1271 1469,1272 1465,1272 1464,1273 1451,1273 1450,1274 1448,1274 1445,1277 1444,1277 1443,1278 1441,1278 1440,1279 1430,1279 1429,1280 1427,1280 1425,1282 1424,1282 1422,1284 1421,1284 1420,1285 1419,1285 1418,1286 1410,1286 1409,1287 1408,1287 1404,1291 1402,1291 1401,1292 1398,1292 1397,1293 1394,1293 1392,1295 1391,1295 1388,1298 1386,1298 1385,1299 1382,1299 1381,1300 1379,1300 1374,1305 1372,1305 1371,1306 1369,1306 1364,1311 1361,1311 1360,1312 1358,1312 1355,1315 1355,1316 1354,1317 1353,1317 1352,1318 1351,1318 1350,1319 1348,1319 1347,1320 1346,1320 1342,1324 1341,1324 1340,1325 1339,1325 1336,1328 1336,1329 1334,1331 1333,1331 1332,1332 1331,1332 1326,1337 1325,1337 1323,1339 1322,1339 1310,1351 1309,1351 1303,1357 1302,1357 1301,1358 1300,1358 1298,1360 1298,1361 1295,1364 1294,1364 1293,1365 1292,1365 1292,1366 1290,1368 1290,1369 1288,1371 1287,1371 1285,1373 1285,1374 1278,1381 1278,1382 1276,1384 1276,1385 1272,1389 1272,1390 1271,1391 1271,1392 1270,1393 1270,1394 1269,1395 1268,1395 1265,1398 1265,1399 1264,1400 1264,1401 1261,1404 1260,1404 1259,1405 1259,1406 1258,1407 1258,1408 1257,1409 1257,1410 1256,1411 1256,1412 1252,1416 1252,1417 1251,1418 1251,1419 1246,1424 1246,1425 1245,1426 1245,1428 1244,1429 1244,1430 1240,1434 1240,1435 1239,1436 1239,1438 1238,1439 1238,1440 1235,1443 1234,1443 1233,1444 1233,1445 1232,1446 1232,1451 1231,1452 1231,1453 1229,1455 1228,1455 1226,1457 1226,1459 1225,1460 1225,1465 1222,1468 1221,1468 1220,1469 1220,1470 1219,1471 1219,1478 1215,1482 1215,1483 1213,1485 1213,1490 1212,1491 1212,1494 1211,1495 1211,1496 1208,1499 1208,1500 1207,1501 1207,1502 1206,1503 1206,1511 1205,1512 1205,1514 1203,1516 1203,1517 1201,1519 1201,1520 1200,1521 1200,1525 1199,1526 1199,1534 1198,1535 1198,1537 1196,1539 1196,1540 1194,1542 1194,1545 1193,1546 1193,1560 1192,1561 1192,1566 1191,1567 1191,1568 1190,1569 1190,1570 1188,1572 1188,1574 1187,1575 1187,1583 1186,1584 1186,1617 1185,1618 1185,1656 1186,1657 1186,1687 1187,1688 1187,1699 1188,1700 1188,1704 1189,1705 1189,1706 1190,1707 1190,1708 1191,1709 1191,1711 1192,1712 1192,1716 1193,1717 1193,1732 1194,1733 1194,1736 1196,1738 1196,1739 1197,1740 1197,1741 1198,1742 1198,1743 1199,1744 1199,1751 1200,1752 1200,1757 1201,1758 1201,1759 1204,1762 1204,1763 1205,1764 1205,1766 1206,1767 1206,1775 1207,1776 1207,1778 1208,1779 1208,1780 1211,1783 1211,1784 1212,1785 1212,1790 1213,1791 1213,1793 1214,1794 1214,1795 1217,1798 1217,1799 1218,1800 1218,1802 1219,1803 1219,1806 1220,1807 1220,1810 1225,1815 1225,1817 1226,1818 1226,1824 1231,1829 1231,1830 1232,1831 1232,1835 1233,1836 1233,1837 1238,1842 1238,1844 1239,1845 1239,1849 1240,1850 1240,1851 1241,1851 1245,1855 1245,1857 1246,1858 1246,1859 1248,1861 1248,1862 1250,1864 1250,1865 1251,1866 1251,1868 1252,1869 1252,1870 1254,1872 1255,1872 1258,1875 1258,1876 1259,1877 1259,1878 1263,1882 1263,1883 1264,1884 1264,1885 1265,1886 1265,1887 1266,1888 1266,1889 1271,1894 1271,1895 1272,1896 1272,1897 1273,1898 1274,1898 1278,1902 1278,1903 1279,1904 1279,1905 1280,1905 1283,1908 1283,1909 1284,1910 1284,1911 1285,1912 1285,1913 1291,1919 1291,1920 1292,1921 1292,1922 1293,1923 1294,1923 1297,1926 1297,1927 1298,1928 1298,1929 1299,1930 1300,1930 1304,1934 1304,1935 1305,1936 1306,1936 1311,1941 1311,1942 1312,1943 1313,1943 1317,1947 1317,1948 1318,1949 1319,1949 1321,1951 1322,1951 1323,1952 1323,1953 1324,1954 1324,1955 1325,1956 1326,1956 1327,1957 1328,1957 1331,1960 1331,1961 1332,1962 1333,1962 1335,1964 1336,1964 1342,1970 1343,1970 1348,1975 1349,1975 1350,1976 1351,1976 1352,1977 1353,1977 1356,1980 1356,1981 1357,1982 1358,1982 1360,1984 1361,1984 1362,1985 1362,1986 1365,1989 1366,1989 1367,1990 1368,1990 1372,1994 1373,1994 1374,1995 1375,1995 1376,1996 1378,1996 1384,2002 1385,2002 1386,2003 1388,2003 1392,2007 1393,2007 1394,2008 1395,2008 1396,2009 1398,2009 1404,2015 1406,2015 1407,2016 1409,2016 1410,2017 1411,2017 1415,2021 1416,2021 1417,2022 1419,2022 1420,2023 1421,2023 1424,2026 1425,2026 1426,2027 1427,2027 1428,2028 1430,2028 1431,2029 1433,2029 1434,2030 1435,2030 1438,2033 1439,2033 1440,2034 1441,2034 1442,2035 1446,2035 1447,2036 1448,2036 1449,2037 1450,2037 1453,2040 1454,2040 1455,2041 1457,2041 1458,2042 1462,2042 1463,2043 1464,2043 1469,2048 1476,2048 1477,2049 1479,2049 1482,2052 1483,2052 1484,2053 1485,2053 1486,2054 1490,2054 1491,2055 1496,2055 1497,2056 1498,2056 1502,2060 1505,2060 1506,2061 1516,2061 1517,2062 1519,2062 1521,2064 1522,2064 1524,2066 1526,2066 1527,2067 1533,2067 1534,2068 1542,2068 1543,2069 1546,2069 1547,2070 1548,2070 1549,2071 1550,2071 1551,2072 1552,2072 1553,2073 1556,2073 1557,2074 1574,2074 1575,2075 1578,2075 1579,2076 1581,2076 1582,2077 1583,2077 1584,2078 1585,2078 1586,2079 1589,2079 1590,2080 1601,2080 1602,2081 1633,2081 1634,2082 1638,2082 1639,2081 1640,2081 1642,2079 1642,2073 1641,2072 1641,2070 1640,2069 1640,2068 1637,2065 1637,2064 1636,2063 1636,2058 1635,2057 1635,2051 1634,2050 1634,2048 1631,2045 1631,2044 1630,2043 1630,2041 1629,2040 1629,2033 1628,2032 1628,2030 1626,2028 1626,2027 1624,2025 1624,2024 1623,2023 1623,2019 1622,2018 1622,2011 1621,2010 1621,2009 1618,2006 1618,2005 1617,2004 1617,2002 1616,2001 1616,1993 1615,1992 1615,1990 1614,1989 1614,1988 1611,1985 1611,1984 1610,1983 1610,1980 1609,1979 1609,1972 1608,1971 1608,1970 1605,1967 1605,1966 1604,1965 1604,1963 1603,1962 1603,1953 1602,1952 1602,1950 1599,1947 1599,1946 1598,1945 1598,1944 1597,1943 1597,1940 1596,1939 1596,1931 1594,1929 1594,1928 1591,1925 1591,1924 1590,1923 1590,1915 1589,1914 1589,1912 1588,1911 1588,1910 1584,1906 1583,1906 1582,1905 1581,1905 1580,1904 1578,1904 1576,1902 1575,1902 1574,1901 1573,1901 1572,1900 1570,1900 1569,1899 1561,1899 1560,1898 1558,1898 1557,1897 1556,1897 1555,1896 1554,1896 1552,1894 1551,1894 1550,1893 1543,1893 1542,1892 1537,1892 1536,1891 1534,1891 1533,1890 1532,1890 1530,1888 1529,1888 1528,1887 1526,1887 1525,1886 1519,1886 1518,1885 1515,1885 1511,1881 1510,1881 1509,1880 1505,1880 1504,1879 1500,1879 1499,1878 1498,1878 1495,1875 1494,1875 1493,1874 1492,1874 1491,1873 1488,1873 1487,1872 1484,1872 1480,1868 1479,1868 1478,1867 1477,1867 1476,1866 1473,1866 1472,1865 1470,1865 1466,1861 1465,1861 1464,1860 1463,1860 1462,1859 1460,1859 1459,1858 1458,1858 1455,1855 1454,1855 1453,1854 1452,1854 1451,1853 1449,1853 1443,1847 1441,1847 1440,1846 1439,1846 1437,1844 1436,1844 1435,1843 1435,1842 1434,1841 1433,1841 1432,1840 1431,1840 1430,1839 1429,1839 1428,1838 1428,1837 1425,1834 1424,1834 1423,1833 1422,1833 1420,1831 1420,1830 1418,1828 1417,1828 1416,1827 1415,1827 1409,1821 1408,1821 1400,1813 1399,1813 1395,1809 1395,1808 1387,1800 1387,1799 1381,1793 1381,1792 1380,1791 1380,1790 1379,1789 1378,1789 1375,1786 1375,1785 1374,1784 1374,1783 1373,1782 1372,1782 1368,1778 1368,1777 1367,1776 1367,1775 1366,1774 1365,1774 1363,1772 1363,1771 1362,1770 1362,1769 1361,1768 1361,1767 1360,1766 1360,1765 1356,1761 1356,1760 1355,1759 1355,1758 1354,1757 1354,1756 1353,1755 1352,1755 1350,1753 1350,1752 1349,1751 1349,1749 1348,1748 1348,1746 1347,1745 1347,1744 1346,1744 1343,1741 1343,1740 1342,1739 1342,1737 1341,1736 1341,1735 1340,1734 1340,1733 1337,1730 1337,1729 1336,1728 1336,1726 1335,1725 1335,1723 1334,1722 1334,1721 1331,1718 1331,1717 1330,1716 1330,1715 1329,1714 1329,1710 1328,1709 1328,1706 1323,1701 1323,1697 1322,1696 1322,1691 1321,1690 1321,1689 1320,1688 1320,1687 1317,1684 1317,1682 1316,1681 1316,1672 1315,1671 1315,1669 1314,1668 1314,1667 1312,1665 1312,1664 1311,1663 1311,1662 1310,1661 1310,1655 1309,1654 1309,1644 1308,1643 1308,1641 1307,1640 1307,1639 1306,1638 1306,1637 1305,1636 1305,1634 1304,1633 1304,1627 1303,1626 1303,1600 1302,1599 1302,1556 1303,1555 1303,1527 1304,1526 1304,1523 1305,1522 1305,1521 1306,1520 1306,1519 1307,1518 1307,1517 1308,1516 1308,1513 1309,1512 1309,1500 1310,1499 1310,1494 1311,1493 1311,1491 1313,1489 1313,1488 1315,1486 1315,1483 1316,1482 1316,1475 1317,1474 1317,1472 1318,1471 1318,1470 1321,1467 1321,1466 1322,1465 1322,1459 1323,1458 1323,1455 1324,1454 1324,1453 1327,1450 1327,1449 1328,1448 1328,1447 1329,1446 1329,1443 1330,1442 1330,1440 1334,1436 1334,1435 1335,1434 1335,1432 1336,1431 1336,1429 1337,1428 1337,1427 1340,1424 1340,1423 1341,1422 1341,1421 1342,1420 1342,1418 1343,1417 1343,1416 1347,1412 1347,1411 1348,1410 1348,1408 1349,1407 1349,1405 1352,1402 1353,1402 1354,1401 1354,1400 1355,1399 1355,1398 1356,1397 1356,1396 1359,1393 1359,1392 1361,1390 1361,1389 1362,1388 1362,1386 1365,1383 1366,1383 1368,1381 1368,1380 1375,1373 1375,1372 1378,1369 1379,1369 1380,1368 1380,1367 1388,1359 1388,1358 1389,1357 1390,1357 1394,1353 1394,1352 1396,1350 1397,1350 1398,1349 1399,1349 1400,1348 1400,1347 1403,1344 1404,1344 1408,1340 1408,1339 1409,1338 1410,1338 1412,1336 1413,1336 1413,1335 1418,1330 1419,1330 1420,1329 1421,1329 1425,1325 1426,1325 1427,1324 1428,1324 1429,1323 1430,1323 1435,1318 1436,1318 1437,1317 1438,1317 1444,1311 1448,1311 1449,1310 1451,1310 1452,1309 1452,1308 1455,1305 1456,1305 1457,1304 1460,1304 1461,1303 1462,1303 1466,1299 1467,1299 1468,1298 1471,1298 1472,1297 1475,1297 1476,1296 1477,1296 1481,1292 1483,1292 1484,1291 1489,1291 1490,1290 1491,1290 1492,1289 1492,1288 1494,1286 1495,1286 1496,1285 1502,1285 1503,1284 1505,1284 1509,1280 1510,1280 1511,1279 1514,1279 1515,1278 1523,1278 1524,1277 1525,1277 1526,1276 1527,1276 1529,1274 1530,1274 1531,1273 1533,1273 1534,1272 1548,1272 1549,1271 1550,1271 1552,1269 1552,1267 1551,1266 1551,1263 1549,1261" /><polygon fill="black" points="1520,894 1519,895 1504,895 1503,896 1498,896 1497,897 1491,897 1490,898 1488,898 1487,899 1484,899 1483,900 1475,900 1474,901 1451,901 1450,902 1445,902 1444,903 1442,903 1441,904 1439,904 1438,905 1437,905 1436,906 1433,906 1432,907 1421,907 1420,908 1413,908 1412,909 1410,909 1409,910 1408,910 1406,912 1404,912 1403,913 1401,913 1400,914 1386,914 1385,915 1384,915 1383,916 1382,916 1380,918 1379,918 1378,919 1377,919 1376,920 1366,920 1365,921 1362,921 1361,922 1360,922 1357,925 1356,925 1355,926 1353,926 1352,927 1343,927 1342,928 1341,928 1340,929 1339,929 1335,933 1328,933 1327,934 1324,934 1323,935 1322,935 1319,938 1318,938 1317,939 1316,939 1315,940 1307,940 1306,941 1305,941 1301,945 1300,945 1299,946 1294,946 1293,947 1291,947 1290,948 1289,948 1286,951 1285,951 1284,952 1283,952 1282,953 1278,953 1277,954 1274,954 1270,958 1269,958 1268,959 1265,959 1264,960 1261,960 1260,961 1259,961 1258,962 1258,963 1256,965 1255,965 1254,966 1249,966 1248,967 1247,967 1242,972 1240,972 1239,973 1235,973 1234,974 1233,974 1233,975 1229,979 1226,979 1225,980 1222,980 1217,985 1216,985 1215,986 1212,986 1211,987 1210,987 1206,991 1205,991 1204,992 1202,992 1201,993 1200,993 1195,998 1193,998 1192,999 1189,999 1187,1001 1187,1002 1184,1005 1182,1005 1181,1006 1180,1006 1176,1010 1175,1010 1174,1011 1173,1011 1172,1012 1170,1012 1167,1015 1167,1016 1166,1017 1165,1017 1164,1018 1163,1018 1159,1022 1159,1023 1158,1024 1157,1024 1156,1025 1154,1025 1153,1026 1152,1026 1151,1027 1150,1027 1146,1031 1144,1031 1143,1032 1142,1032 1141,1033 1141,1034 1140,1035 1140,1036 1139,1037 1138,1037 1137,1038 1136,1038 1135,1039 1134,1039 1129,1044 1128,1044 1125,1047 1124,1047 1121,1050 1120,1050 1119,1051 1117,1051 1115,1053 1115,1054 1112,1057 1111,1057 1108,1060 1108,1061 1105,1064 1104,1064 1098,1070 1097,1070 1090,1077 1089,1077 1082,1084 1081,1084 1081,1085 1078,1088 1077,1088 1073,1092 1072,1092 1071,1093 1071,1094 1068,1097 1067,1097 1063,1101 1063,1102 1055,1110 1055,1111 1049,1117 1049,1118 1048,1119 1048,1120 1047,1121 1046,1121 1043,1124 1043,1125 1039,1129 1038,1129 1037,1130 1037,1131 1035,1133 1035,1134 1034,1135 1033,1135 1030,1138 1030,1139 1027,1142 1026,1142 1023,1145 1023,1146 1017,1152 1017,1153 1016,1154 1016,1155 1014,1157 1013,1157 1012,1158 1012,1159 1010,1161 1010,1162 1008,1164 1008,1165 1004,1169 1004,1170 1003,1171 1003,1172 1000,1175 999,1175 998,1176 998,1177 997,1178 997,1179 994,1182 993,1182 991,1184 991,1186 990,1187 990,1188 989,1189 989,1190 985,1194 985,1195 984,1196 984,1198 981,1201 980,1201 978,1203 978,1205 977,1206 977,1207 975,1209 975,1210 972,1213 972,1214 971,1215 971,1217 967,1221 966,1221 965,1222 965,1224 964,1225 964,1227 963,1228 963,1229 959,1233 959,1234 958,1235 958,1237 957,1238 957,1239 955,1241 954,1241 953,1242 953,1243 952,1244 952,1247 951,1248 951,1250 948,1253 947,1253 946,1254 946,1255 945,1256 945,1260 944,1261 944,1262 939,1267 939,1268 938,1269 938,1273 937,1274 937,1275 933,1279 933,1280 932,1281 932,1283 931,1284 931,1285 930,1286 930,1287 927,1290 927,1291 926,1292 926,1294 925,1295 925,1298 921,1302 921,1303 920,1304 920,1305 919,1306 919,1309 918,1310 918,1311 917,1312 917,1313 914,1316 914,1317 913,1318 913,1320 912,1321 912,1326 911,1327 911,1328 907,1332 907,1333 906,1334 906,1339 905,1340 905,1342 901,1346 901,1347 900,1348 900,1351 899,1352 899,1356 898,1357 898,1358 897,1359 897,1360 894,1363 894,1365 893,1366 893,1374 892,1375 892,1376 891,1377 891,1378 888,1381 888,1382 887,1383 887,1386 886,1387 886,1393 885,1394 885,1396 882,1399 882,1400 881,1401 881,1402 880,1403 880,1412 879,1413 879,1416 878,1417 878,1418 875,1421 875,1422 874,1423 874,1427 873,1428 873,1438 872,1439 872,1441 868,1445 868,1448 867,1449 867,1460 866,1461 866,1467 865,1468 865,1469 864,1470 864,1471 862,1473 862,1475 861,1476 861,1481 860,1482 860,1498 859,1499 859,1502 858,1503 858,1504 857,1505 857,1506 856,1507 856,1509 855,1510 855,1513 854,1514 854,1538 853,1539 853,1546 852,1547 852,1550 851,1551 851,1557 850,1558 850,1562 849,1563 849,1568 848,1569 848,1581 847,1582 847,1699 848,1700 848,1714 849,1715 849,1718 850,1719 850,1721 851,1722 851,1725 852,1726 852,1730 853,1731 853,1740 854,1741 854,1762 855,1763 855,1766 856,1767 856,1769 857,1770 857,1771 858,1772 858,1774 859,1775 859,1778 860,1779 860,1795 861,1796 861,1801 862,1802 862,1804 863,1805 863,1806 864,1807 864,1808 865,1809 865,1811 866,1812 866,1815 867,1816 867,1827 868,1828 868,1831 870,1833 870,1834 871,1835 871,1836 872,1837 872,1839 873,1840 873,1851 874,1852 874,1855 875,1856 875,1858 878,1861 878,1862 879,1863 879,1867 880,1868 880,1876 881,1877 881,1878 883,1880 883,1881 885,1883 885,1885 886,1886 886,1891 887,1892 887,1896 888,1897 888,1898 892,1902 892,1906 893,1907 893,1912 894,1913 894,1915 898,1919 898,1920 899,1921 899,1927 900,1928 900,1930 901,1931 901,1932 904,1935 904,1936 905,1937 905,1939 906,1940 906,1944 907,1945 907,1947 908,1948 908,1949 909,1950 910,1950 911,1951 911,1952 912,1953 912,1958 913,1959 913,1962 915,1964 916,1964 917,1965 917,1966 918,1967 918,1969 919,1970 919,1975 924,1980 924,1981 925,1982 925,1986 926,1987 926,1988 931,1993 931,1995 932,1996 932,2000 933,2001 933,2002 937,2006 937,2007 938,2008 938,2011 939,2012 939,2014 941,2016 942,2016 944,2018 944,2019 945,2020 945,2025 946,2026 946,2027 947,2028 948,2028 951,2031 951,2032 952,2033 952,2036 953,2037 953,2038 956,2041 956,2042 958,2044 958,2046 964,2052 964,2055 965,2056 965,2058 971,2064 971,2066 972,2067 972,2068 976,2072 976,2073 977,2074 977,2076 978,2077 978,2078 984,2084 984,2085 985,2086 985,2087 986,2088 986,2089 989,2092 989,2093 990,2094 990,2095 991,2096 991,2098 992,2099 993,2099 997,2103 997,2104 998,2105 998,2106 999,2107 1000,2107 1003,2110 1003,2111 1004,2112 1004,2113 1005,2114 1005,2115 1008,2118 1008,2119 1010,2121 1010,2122 1011,2123 1011,2124 1013,2126 1014,2126 1016,2128 1016,2129 1017,2130 1017,2131 1019,2133 1020,2133 1023,2136 1023,2137 1024,2138 1024,2139 1029,2144 1029,2145 1032,2148 1032,2149 1036,2153 1036,2154 1037,2155 1037,2156 1039,2158 1040,2158 1043,2161 1043,2162 1044,2163 1044,2164 1045,2164 1049,2168 1049,2169 1052,2172 1053,2172 1055,2174 1055,2175 1059,2179 1060,2179 1062,2181 1062,2182 1066,2186 1067,2186 1068,2187 1068,2188 1072,2192 1073,2192 1075,2194 1075,2195 1078,2198 1079,2198 1082,2201 1082,2202 1085,2205 1086,2205 1088,2207 1088,2208 1091,2211 1092,2211 1094,2213 1094,2214 1098,2218 1099,2218 1101,2220 1101,2221 1104,2224 1105,2224 1108,2227 1108,2228 1110,2230 1111,2230 1112,2231 1113,2231 1115,2233 1115,2234 1118,2237 1119,2237 1124,2242 1125,2242 1127,2244 1128,2244 1130,2246 1131,2246 1135,2250 1136,2250 1137,2251 1138,2251 1140,2253 1140,2254 1143,2257 1144,2257 1148,2261 1148,2262 1149,2263 1150,2263 1151,2264 1152,2264 1157,2269 1158,2269 1159,2270 1161,2270 1162,2271 1163,2271 1165,2273 1165,2274 1166,2275 1167,2275 1168,2276 1169,2276 1170,2277 1171,2277 1173,2279 1173,2280 1175,2282 1176,2282 1177,2283 1178,2283 1179,2284 1180,2284 1184,2288 1185,2288 1186,2289 1187,2289 1188,2290 1189,2290 1190,2291 1191,2291 1192,2292 1192,2293 1195,2296 1197,2296 1202,2301 1203,2301 1204,2302 1205,2302 1206,2303 1208,2303 1213,2308 1214,2308 1215,2309 1216,2309 1217,2310 1218,2310 1220,2312 1220,2313 1221,2314 1222,2314 1223,2315 1226,2315 1227,2316 1229,2316 1232,2319 1232,2320 1233,2321 1234,2321 1235,2322 1237,2322 1238,2323 1240,2323 1244,2327 1245,2327 1246,2328 1247,2328 1248,2329 1250,2329 1255,2334 1257,2334 1258,2335 1261,2335 1262,2336 1263,2336 1264,2337 1264,2338 1267,2341 1271,2341 1272,2342 1275,2342 1278,2345 1278,2346 1279,2347 1280,2347 1281,2348 1285,2348 1286,2349 1288,2349 1291,2352 1291,2353 1292,2354 1294,2354 1295,2355 1300,2355 1301,2356 1302,2356 1304,2358 1304,2359 1305,2360 1306,2360 1307,2361 1312,2361 1313,2362 1315,2362 1320,2367 1324,2367 1325,2368 1328,2368 1332,2372 1333,2372 1334,2373 1336,2373 1337,2374 1340,2374 1341,2375 1343,2375 1344,2376 1345,2376 1348,2379 1349,2379 1350,2380 1352,2380 1353,2381 1359,2381 1360,2382 1361,2382 1365,2386 1367,2386 1368,2387 1373,2387 1374,2388 1378,2388 1383,2393 1385,2393 1386,2394 1394,2394 1395,2395 1396,2395 1398,2397 1399,2397 1401,2399 1402,2399 1403,2400 1410,2400 1411,2401 1414,2401 1415,2402 1416,2402 1418,2404 1419,2404 1420,2405 1421,2405 1422,2406 1425,2406 1426,2407 1435,2407 1436,2408 1438,2408 1441,2411 1442,2411 1443,2412 1445,2412 1446,2413 1455,2413 1456,2414 1460,2414 1461,2415 1462,2415 1464,2417 1465,2417 1466,2418 1467,2418 1468,2419 1473,2419 1474,2420 1490,2420 1491,2421 1492,2421 1493,2422 1494,2422 1495,2423 1496,2423 1497,2424 1498,2424 1499,2425 1501,2425 1502,2426 1520,2426 1521,2427 1526,2427 1527,2428 1530,2428 1531,2429 1533,2429 1534,2430 1536,2430 1537,2431 1539,2431 1540,2432 1545,2432 1546,2433 1571,2433 1572,2434 1576,2434 1577,2435 1579,2435 1580,2436 1583,2436 1584,2437 1588,2437 1589,2438 1595,2438 1596,2439 1632,2439 1633,2440 1679,2440 1680,2441 1702,2441 1703,2440 1744,2440 1745,2439 1755,2439 1756,2440 1765,2440 1766,2439 1778,2439 1778,2438 1779,2437 1779,2431 1778,2430 1778,2428 1774,2424 1774,2422 1773,2421 1773,2415 1772,2414 1772,2409 1771,2408 1771,2407 1769,2405 1769,2404 1767,2402 1767,2400 1766,2399 1766,2390 1765,2389 1765,2386 1764,2385 1764,2384 1761,2381 1761,2380 1760,2379 1760,2372 1759,2371 1759,2367 1758,2366 1758,2364 1756,2362 1756,2361 1755,2360 1755,2359 1754,2358 1754,2356 1753,2355 1753,2348 1752,2347 1752,2344 1748,2340 1748,2339 1747,2338 1747,2332 1746,2331 1746,2324 1744,2322 1744,2321 1741,2318 1741,2316 1740,2315 1740,2305 1739,2304 1739,2302 1736,2299 1736,2298 1734,2296 1734,2292 1733,2291 1733,2284 1732,2283 1732,2282 1731,2281 1731,2280 1729,2278 1729,2277 1728,2276 1728,2275 1727,2274 1727,2267 1726,2266 1726,2265 1725,2264 1618,2264 1617,2263 1611,2263 1610,2262 1606,2262 1605,2261 1602,2261 1601,2260 1597,2260 1596,2259 1591,2259 1590,2258 1572,2258 1571,2257 1563,2257 1562,2256 1560,2256 1559,2255 1558,2255 1556,2253 1554,2253 1553,2252 1549,2252 1548,2251 1532,2251 1531,2250 1529,2250 1528,2249 1527,2249 1525,2247 1524,2247 1523,2246 1522,2246 1521,2245 1509,2245 1508,2244 1504,2244 1503,2243 1502,2243 1501,2242 1500,2242 1498,2240 1496,2240 1495,2239 1492,2239 1491,2238 1482,2238 1481,2237 1480,2237 1479,2236 1478,2236 1475,2233 1473,2233 1472,2232 1464,2232 1463,2231 1460,2231 1459,2230 1458,2230 1455,2227 1454,2227 1453,2226 1451,2226 1450,2225 1443,2225 1442,2224 1441,2224 1440,2223 1439,2223 1438,2222 1438,2221 1437,2221 1436,2220 1435,2220 1434,2219 1431,2219 1430,2218 1425,2218 1424,2217 1423,2217 1421,2215 1421,2214 1420,2213 1419,2213 1418,2212 1410,2212 1409,2211 1408,2211 1404,2207 1403,2207 1402,2206 1398,2206 1397,2205 1395,2205 1394,2204 1393,2204 1390,2201 1389,2201 1388,2200 1387,2200 1386,2199 1383,2199 1382,2198 1380,2198 1379,2197 1378,2197 1374,2193 1372,2193 1371,2192 1368,2192 1367,2191 1366,2191 1362,2187 1360,2187 1359,2186 1357,2186 1356,2185 1355,2185 1354,2184 1353,2184 1350,2181 1349,2181 1348,2180 1347,2180 1346,2179 1344,2179 1343,2178 1342,2178 1338,2174 1336,2174 1335,2173 1333,2173 1332,2172 1331,2172 1329,2170 1329,2169 1327,2167 1326,2167 1325,2166 1322,2166 1321,2165 1320,2165 1316,2161 1315,2161 1314,2160 1313,2160 1312,2159 1311,2159 1308,2156 1307,2156 1305,2154 1303,2154 1302,2153 1300,2153 1296,2149 1296,2148 1295,2148 1294,2147 1293,2147 1292,2146 1291,2146 1287,2142 1286,2142 1285,2141 1284,2141 1283,2140 1281,2140 1275,2134 1274,2134 1273,2133 1272,2133 1270,2131 1270,2130 1268,2128 1267,2128 1266,2127 1265,2127 1264,2126 1263,2126 1261,2124 1260,2124 1257,2121 1255,2121 1250,2116 1250,2115 1249,2115 1247,2113 1246,2113 1245,2112 1245,2111 1242,2108 1241,2108 1237,2104 1237,2103 1236,2102 1235,2102 1234,2101 1233,2101 1230,2098 1230,2097 1229,2096 1228,2096 1226,2094 1225,2094 1215,2084 1214,2084 1210,2080 1209,2080 1202,2073 1201,2073 1200,2072 1200,2071 1197,2068 1196,2068 1192,2064 1192,2063 1190,2061 1189,2061 1186,2058 1186,2057 1173,2044 1173,2043 1172,2042 1172,2041 1165,2034 1165,2033 1160,2028 1160,2027 1159,2026 1159,2025 1158,2024 1157,2024 1153,2020 1153,2019 1152,2018 1152,2017 1151,2017 1147,2013 1147,2012 1146,2011 1146,2010 1141,2005 1141,2004 1140,2003 1140,2002 1138,2000 1138,1999 1133,1994 1133,1993 1132,1992 1132,1991 1131,1991 1127,1987 1127,1986 1126,1985 1126,1984 1122,1980 1122,1979 1121,1978 1121,1976 1120,1975 1120,1973 1118,1971 1117,1971 1114,1968 1114,1967 1113,1966 1113,1964 1109,1960 1109,1959 1108,1958 1108,1957 1107,1956 1107,1954 1106,1953 1106,1952 1105,1952 1101,1948 1101,1946 1100,1945 1100,1943 1099,1942 1099,1941 1095,1937 1095,1936 1094,1935 1094,1933 1089,1928 1089,1927 1088,1926 1088,1922 1087,1921 1087,1920 1082,1915 1082,1913 1081,1912 1081,1908 1080,1907 1080,1906 1079,1905 1078,1905 1075,1902 1075,1898 1074,1897 1074,1895 1073,1894 1073,1893 1072,1892 1071,1892 1069,1890 1069,1888 1068,1887 1068,1882 1067,1881 1067,1880 1062,1875 1062,1870 1061,1869 1061,1867 1060,1866 1060,1865 1057,1862 1057,1861 1056,1860 1056,1859 1055,1858 1055,1853 1054,1852 1054,1850 1053,1849 1053,1848 1050,1845 1050,1844 1049,1843 1049,1838 1048,1837 1048,1834 1047,1833 1047,1832 1046,1831 1046,1830 1043,1827 1043,1825 1042,1824 1042,1816 1041,1815 1041,1813 1040,1812 1040,1811 1038,1809 1038,1808 1037,1807 1037,1806 1036,1805 1036,1800 1035,1799 1035,1792 1034,1791 1034,1790 1033,1789 1033,1788 1031,1786 1031,1785 1030,1784 1030,1782 1029,1781 1029,1770 1028,1769 1028,1766 1027,1765 1027,1764 1026,1763 1026,1762 1025,1761 1025,1760 1024,1759 1024,1757 1023,1756 1023,1752 1022,1751 1022,1736 1021,1735 1021,1733 1020,1732 1020,1731 1019,1730 1019,1728 1018,1727 1018,1726 1017,1725 1017,1721 1016,1720 1016,1702 1015,1701 1015,1694 1014,1693 1014,1689 1013,1688 1013,1686 1012,1685 1012,1683 1011,1682 1011,1676 1010,1675 1010,1662 1009,1661 1009,1589 1010,1588 1010,1576 1011,1575 1011,1570 1012,1569 1012,1564 1013,1563 1013,1560 1014,1559 1014,1554 1015,1553 1015,1545 1016,1544 1016,1525 1017,1524 1017,1520 1018,1519 1018,1517 1019,1516 1019,1515 1020,1514 1020,1513 1021,1512 1021,1510 1022,1509 1022,1493 1023,1492 1023,1488 1024,1487 1024,1486 1025,1485 1025,1484 1027,1482 1027,1481 1028,1480 1028,1477 1029,1476 1029,1464 1030,1463 1030,1462 1032,1460 1032,1459 1034,1457 1034,1456 1035,1455 1035,1445 1036,1444 1036,1442 1037,1441 1037,1440 1039,1438 1039,1437 1041,1435 1041,1432 1042,1431 1042,1424 1043,1423 1043,1421 1046,1418 1046,1417 1048,1415 1048,1409 1049,1408 1049,1404 1054,1399 1054,1397 1055,1396 1055,1392 1056,1391 1056,1389 1059,1386 1059,1385 1061,1383 1061,1380 1062,1379 1062,1374 1067,1369 1067,1368 1068,1367 1068,1364 1069,1363 1069,1361 1070,1360 1070,1359 1071,1358 1072,1358 1073,1357 1073,1356 1074,1355 1074,1354 1075,1353 1075,1349 1076,1348 1076,1347 1081,1342 1081,1339 1082,1338 1082,1336 1086,1332 1086,1331 1087,1330 1087,1328 1088,1327 1088,1326 1089,1325 1089,1324 1093,1320 1093,1318 1094,1317 1094,1314 1098,1310 1099,1310 1100,1309 1100,1308 1101,1307 1101,1304 1102,1303 1102,1302 1106,1298 1106,1297 1107,1296 1107,1295 1108,1294 1108,1293 1109,1292 1110,1292 1113,1289 1113,1288 1114,1287 1114,1285 1115,1284 1115,1283 1119,1279 1119,1278 1120,1277 1120,1276 1121,1275 1121,1274 1123,1272 1124,1272 1127,1269 1127,1268 1128,1267 1128,1266 1130,1264 1131,1264 1132,1263 1132,1262 1133,1261 1133,1260 1134,1259 1134,1258 1136,1256 1136,1255 1137,1254 1138,1254 1138,1253 1140,1251 1140,1249 1143,1246 1144,1246 1146,1244 1146,1243 1150,1239 1151,1239 1152,1238 1152,1237 1153,1236 1153,1235 1156,1232 1157,1232 1159,1230 1159,1229 1163,1225 1164,1225 1164,1224 1166,1222 1166,1221 1169,1218 1170,1218 1171,1217 1171,1216 1178,1209 1178,1208 1181,1205 1182,1205 1184,1203 1184,1202 1187,1199 1188,1199 1194,1193 1195,1193 1198,1190 1198,1189 1200,1187 1201,1187 1202,1186 1203,1186 1204,1185 1204,1184 1207,1181 1208,1181 1210,1179 1211,1179 1211,1178 1212,1177 1212,1176 1213,1175 1214,1175 1216,1173 1217,1173 1218,1172 1218,1171 1221,1168 1222,1168 1223,1167 1224,1167 1229,1162 1230,1162 1231,1161 1232,1161 1233,1160 1234,1160 1235,1159 1236,1159 1236,1158 1239,1155 1240,1155 1241,1154 1242,1154 1244,1152 1244,1151 1247,1148 1249,1148 1250,1147 1251,1147 1255,1143 1256,1143 1257,1142 1258,1142 1259,1141 1261,1141 1264,1138 1264,1137 1265,1136 1266,1136 1267,1135 1268,1135 1269,1134 1270,1134 1274,1130 1275,1130 1276,1129 1278,1129 1279,1128 1281,1128 1284,1125 1284,1124 1285,1123 1286,1123 1287,1122 1288,1122 1289,1121 1291,1121 1292,1120 1293,1120 1297,1116 1299,1116 1300,1115 1302,1115 1303,1114 1305,1114 1309,1110 1310,1110 1311,1109 1313,1109 1314,1108 1316,1108 1317,1107 1318,1107 1319,1106 1320,1106 1323,1103 1324,1103 1325,1102 1327,1102 1328,1101 1330,1101 1333,1098 1334,1098 1335,1097 1336,1097 1337,1096 1339,1096 1340,1095 1343,1095 1344,1094 1345,1094 1346,1093 1347,1093 1347,1092 1348,1091 1349,1091 1350,1090 1351,1090 1352,1089 1357,1089 1358,1088 1360,1088 1364,1084 1365,1084 1366,1083 1371,1083 1372,1082 1378,1082 1380,1080 1381,1080 1384,1077 1386,1077 1387,1076 1393,1076 1394,1075 1396,1075 1397,1074 1398,1074 1400,1072 1401,1072 1402,1071 1403,1071 1404,1070 1410,1070 1411,1069 1417,1069 1418,1068 1419,1068 1420,1067 1421,1067 1422,1066 1423,1066 1425,1064 1428,1064 1429,1063 1441,1063 1442,1062 1447,1062 1448,1061 1449,1061 1450,1060 1451,1060 1452,1059 1453,1059 1454,1058 1455,1058 1456,1057 1467,1057 1468,1056 1481,1056 1482,1055 1486,1055 1487,1054 1489,1054 1490,1053 1493,1053 1494,1052 1498,1052 1499,1051 1504,1051 1505,1050 1600,1050 1601,1051 1606,1051 1607,1052 1610,1052 1611,1053 1613,1053 1614,1054 1615,1054 1616,1055 1620,1055 1621,1056 1635,1056 1636,1057 1646,1057 1647,1058 1648,1058 1649,1059 1650,1059 1651,1060 1652,1060 1653,1061 1654,1061 1655,1062 1657,1062 1658,1063 1671,1063 1672,1064 1675,1064 1677,1066 1678,1066 1679,1067 1680,1067 1681,1068 1682,1068 1683,1069 1690,1069 1691,1070 1696,1070 1697,1071 1698,1071 1699,1072 1700,1072 1703,1075 1705,1075 1706,1076 1713,1076 1714,1077 1717,1077 1720,1080 1721,1080 1723,1082 1728,1082 1729,1083 1732,1083 1733,1084 1734,1084 1737,1087 1738,1087 1739,1088 1741,1088 1742,1089 1745,1089 1746,1090 1748,1090 1750,1092 1751,1092 1754,1095 1756,1095 1757,1096 1760,1096 1762,1098 1763,1098 1766,1101 1767,1101 1768,1102 1771,1102 1772,1103 1773,1103 1774,1104 1775,1104 1778,1107 1779,1107 1780,1108 1782,1108 1783,1109 1784,1109 1785,1110 1786,1110 1790,1114 1792,1114 1793,1115 1796,1115 1797,1116 1798,1116 1800,1118 1800,1119 1801,1120 1802,1120 1803,1121 1804,1121 1805,1122 1807,1122 1808,1123 1809,1123 1814,1128 1815,1128 1816,1129 1817,1129 1820,1132 1820,1133 1821,1134 1822,1134 1823,1135 1824,1135 1825,1136 1826,1136 1828,1138 1829,1138 1832,1141 1834,1141 1841,1148 1842,1148 1848,1154 1849,1154 1853,1158 1853,1159 1854,1159 1856,1161 1857,1161 1861,1165 1862,1165 1866,1169 1866,1170 1869,1173 1870,1173 1872,1175 1872,1176 1879,1183 1879,1184 1881,1186 1882,1186 1885,1189 1885,1190 1891,1196 1891,1197 1893,1199 1894,1199 1897,1202 1897,1203 1899,1205 1899,1206 1900,1206 1901,1207 1902,1207 1903,1208 1903,1209 1904,1210 1904,1211 1907,1214 1908,1214 1910,1216 1910,1217 1911,1218 1911,1219 1912,1220 1912,1221 1916,1225 1916,1226 1917,1227 1917,1229 1923,1235 1923,1236 1924,1237 1924,1238 1926,1240 1927,1240 1928,1241 1928,1242 1930,1244 1930,1247 1931,1248 1931,1250 1932,1251 1933,1251 1936,1254 1936,1255 1937,1256 1937,1258 1938,1259 1938,1260 1942,1264 1942,1266 1943,1267 1943,1270 1944,1271 1944,1272 1948,1276 1948,1277 1949,1278 1949,1281 1950,1282 1950,1284 1951,1285 1951,1286 1955,1290 1955,1292 1956,1293 1956,1296 1957,1297 1957,1299 1959,1301 1959,1302 1962,1305 1962,1308 1963,1309 1963,1315 1964,1316 1964,1317 1968,1321 1968,1322 1969,1323 1969,1330 1970,1331 1970,1335 1971,1336 1971,1337 1973,1339 1973,1340 1974,1341 1974,1342 1975,1343 1975,1346 1976,1347 1976,1357 1977,1358 1977,1359 1978,1360 1978,1361 1979,1362 1979,1363 1980,1364 1980,1365 1981,1366 1981,1369 1982,1370 1982,1386 1983,1387 1983,1392 1984,1393 1984,1396 1985,1397 1985,1399 1986,1400 1986,1402 1987,1403 1987,1406 1988,1407 1988,1417 1989,1418 1989,1473 1988,1474 1988,1483 1987,1484 1987,1488 1986,1489 1986,1492 1985,1493 1985,1495 1984,1496 1984,1499 1983,1500 1983,1506 1982,1507 1982,1523 1981,1524 1981,1526 1980,1527 1980,1528 1978,1530 1978,1531 1977,1532 1977,1534 1976,1535 1976,1544 1975,1545 1975,1550 1972,1553 1972,1554 1971,1555 1971,1556 1970,1557 1970,1560 1969,1561 1969,1569 1968,1570 1968,1571 1965,1574 1965,1575 1964,1576 1964,1577 1963,1578 1963,1590 1964,1591 1965,1591 1966,1592 1969,1592 1970,1593 1971,1593 1974,1596 1975,1596 1976,1597 1977,1597 1978,1598 1980,1598 1986,1604 1990,1604 1991,1605 1992,1605 1993,1606 1994,1606 1995,1607 1995,1608 1998,1611 2002,1611 2003,1612 2004,1612 2008,1616 2009,1616 2010,1617 2011,1617 2012,1618 2013,1618 2014,1619 2015,1619 2016,1620 2016,1621 2017,1622 2018,1622 2019,1623 2021,1623 2022,1624 2024,1624 2025,1625 2026,1625 2028,1627 2028,1628 2030,1630 2032,1630 2033,1631 2036,1631 2037,1632 2038,1632 2043,1637 2045,1637 2046,1638 2047,1638 2051,1642 2052,1642 2053,1643 2055,1643 2056,1644 2058,1644 2061,1647 2061,1648 2062,1649 2063,1649 2064,1650 2066,1650 2067,1651 2069,1651 2070,1652 2077,1652 2078,1651 2078,1650 2079,1649 2079,1646 2080,1645 2080,1642 2084,1638 2084,1637 2085,1636 2085,1635 2086,1634 2086,1629 2087,1628 2087,1627 2090,1624 2091,1624 2091,1623 2092,1622 2092,1617 2093,1616 2093,1614 2094,1613 2094,1612 2095,1611 2096,1611 2097,1610 2097,1609 2098,1608 2098,1604 2099,1603 2099,1600 2100,1599 2100,1598 2101,1597 2101,1596 2104,1593 2104,1592 2105,1591 2105,1582 2106,1581 2106,1580 2107,1579 2107,1578 2110,1575 2110,1574 2111,1573 2111,1571 2112,1570 2112,1561 2113,1560 2113,1559 2114,1558 2114,1557 2115,1556 2115,1555 2117,1553 2117,1552 2118,1551 2118,1540 2119,1539 2119,1534 2120,1533 2120,1532 2121,1531 2121,1530 2123,1528 2123,1526 2124,1525 2124,1521 2125,1520 2125,1502 2126,1501 2126,1498 2127,1497 2127,1496 2128,1495 2128,1494 2129,1493 2129,1492 2130,1491 2130,1487 2131,1486 2131,1444 2132,1443 2132,1427 2131,1426 2131,1419 2132,1418 2132,1404 2131,1403 2131,1370 2130,1369 2130,1366 2129,1365 2129,1364 2127,1362 2127,1360 2126,1359 2126,1355 2125,1354 2125,1334 2124,1333 2124,1329 2123,1328 2123,1326 2122,1325 2122,1324 2121,1323 2121,1322 2120,1321 2120,1319 2119,1318 2119,1312 2118,1311 2118,1301 2117,1300 2117,1299 2116,1298 2116,1297 2114,1295 2114,1294 2113,1293 2113,1292 2112,1291 2112,1281 2111,1280 2111,1277 2110,1276 2110,1275 2106,1271 2106,1268 2105,1267 2105,1260 2104,1259 2104,1257 2101,1254 2101,1253 2099,1251 2099,1244 2098,1243 2098,1241 2096,1239 2096,1238 2094,1236 2094,1235 2093,1234 2093,1232 2092,1231 2092,1227 2091,1226 2091,1224 2087,1220 2087,1219 2086,1218 2086,1216 2085,1215 2085,1211 2084,1210 2084,1209 2083,1208 2082,1208 2080,1206 2080,1205 2079,1204 2079,1199 2078,1198 2078,1197 2073,1192 2073,1190 2072,1189 2072,1186 2071,1185 2071,1184 2067,1180 2067,1179 2066,1178 2066,1176 2065,1175 2065,1174 2064,1173 2064,1172 2061,1169 2061,1168 2060,1167 2060,1165 2059,1164 2059,1163 2058,1162 2057,1162 2054,1159 2054,1158 2053,1157 2053,1155 2052,1154 2052,1153 2051,1152 2051,1151 2047,1147 2047,1146 2046,1145 2046,1144 2040,1138 2040,1136 2039,1135 2039,1134 2038,1133 2038,1132 2037,1132 2036,1131 2036,1130 2034,1128 2034,1127 2033,1126 2033,1125 2031,1123 2030,1123 2028,1121 2028,1120 2027,1119 2027,1118 2021,1112 2021,1111 2020,1110 2020,1109 2014,1103 2014,1102 2012,1100 2012,1099 2007,1094 2007,1093 2001,1087 2001,1086 1998,1083 1997,1083 1994,1080 1994,1079 1992,1077 1991,1077 1988,1074 1988,1073 1984,1069 1983,1069 1982,1068 1982,1067 1978,1063 1977,1063 1975,1061 1975,1060 1972,1057 1971,1057 1968,1054 1968,1053 1966,1051 1965,1051 1962,1048 1962,1047 1960,1045 1959,1045 1955,1041 1955,1040 1954,1039 1953,1039 1951,1037 1950,1037 1948,1035 1948,1034 1946,1032 1945,1032 1944,1031 1943,1031 1938,1026 1937,1026 1934,1023 1933,1023 1929,1019 1928,1019 1927,1018 1926,1018 1922,1014 1922,1013 1921,1012 1920,1012 1919,1011 1918,1011 1913,1006 1911,1006 1910,1005 1909,1005 1908,1004 1907,1004 1902,999 1901,999 1900,998 1899,998 1895,994 1895,993 1894,993 1893,992 1890,992 1889,991 1888,991 1884,987 1883,987 1882,986 1881,986 1880,985 1879,985 1878,984 1877,984 1873,980 1871,980 1870,979 1868,979 1867,978 1866,978 1863,975 1863,974 1862,973 1859,973 1858,972 1856,972 1855,971 1854,971 1850,967 1849,967 1848,966 1845,966 1844,965 1842,965 1837,960 1835,960 1834,959 1830,959 1829,958 1828,958 1824,954 1823,954 1822,953 1819,953 1818,952 1816,952 1815,951 1814,951 1812,949 1812,948 1811,948 1810,947 1808,947 1807,946 1802,946 1797,941 1796,941 1795,940 1788,940 1787,939 1786,939 1783,936 1782,936 1781,935 1780,935 1779,934 1776,934 1775,933 1769,933 1768,932 1767,932 1763,928 1761,928 1760,927 1752,927 1751,926 1748,926 1745,923 1744,923 1743,922 1742,922 1741,921 1737,921 1736,920 1728,920 1727,919 1726,919 1725,918 1724,918 1721,915 1720,915 1719,914 1705,914 1704,913 1701,913 1700,912 1699,912 1697,910 1696,910 1695,909 1693,909 1692,908 1687,908 1686,907 1671,907 1670,906 1666,906 1665,905 1664,905 1663,904 1662,904 1661,903 1659,903 1658,902 1656,902 1655,901 1634,901 1633,900 1618,900 1617,899 1607,899 1606,898 1599,898 1598,897 1595,897 1594,896 1591,896 1590,895 1583,895 1582,894" /><polygon fill="black" points="1572,555 1571,556 1545,556 1544,557 1533,557 1532,558 1526,558 1525,559 1521,559 1520,560 1512,560 1511,561 1497,561 1496,562 1474,562 1473,563 1469,563 1468,564 1466,564 1465,565 1463,565 1462,566 1458,566 1457,567 1453,567 1452,568 1432,568 1431,569 1427,569 1426,570 1424,570 1423,571 1422,571 1421,572 1420,572 1419,573 1418,573 1417,574 1409,574 1408,575 1395,575 1394,576 1392,576 1391,577 1390,577 1389,578 1388,578 1387,579 1386,579 1385,580 1383,580 1382,581 1371,581 1370,582 1366,582 1365,583 1364,583 1363,584 1362,584 1360,586 1358,586 1357,587 1353,587 1352,588 1342,588 1341,589 1339,589 1338,590 1337,590 1334,593 1332,593 1331,594 1322,594 1321,595 1318,595 1314,599 1313,599 1312,600 1309,600 1308,601 1300,601 1299,602 1298,602 1297,603 1296,603 1293,606 1291,606 1290,607 1282,607 1281,608 1279,608 1278,609 1277,609 1274,612 1273,612 1272,613 1269,613 1268,614 1262,614 1261,615 1260,615 1259,616 1258,616 1255,619 1254,619 1253,620 1248,620 1247,621 1243,621 1242,622 1241,622 1237,626 1235,626 1234,627 1227,627 1225,629 1224,629 1224,630 1222,632 1220,632 1219,633 1216,633 1215,634 1213,634 1212,635 1211,635 1208,638 1207,638 1206,639 1204,639 1203,640 1199,640 1198,641 1196,641 1191,646 1187,646 1186,647 1182,647 1180,649 1180,650 1178,652 1176,652 1175,653 1170,653 1169,654 1168,654 1167,655 1167,656 1165,658 1164,658 1163,659 1160,659 1159,660 1157,660 1156,661 1155,661 1154,662 1154,663 1152,665 1151,665 1150,666 1145,666 1144,667 1143,667 1138,672 1137,672 1136,673 1132,673 1130,675 1129,675 1129,676 1127,678 1126,678 1125,679 1123,679 1122,680 1121,680 1117,684 1116,684 1115,685 1112,685 1111,686 1110,686 1104,692 1100,692 1099,693 1097,693 1096,694 1096,695 1093,698 1092,698 1091,699 1089,699 1085,703 1084,703 1083,704 1082,704 1081,705 1079,705 1078,706 1077,706 1076,707 1076,708 1073,711 1072,711 1071,712 1069,712 1068,713 1067,713 1063,717 1062,717 1061,718 1059,718 1058,719 1057,719 1056,720 1056,721 1053,724 1052,724 1051,725 1049,725 1048,726 1047,726 1043,730 1042,730 1041,731 1040,731 1039,732 1038,732 1036,734 1036,735 1034,737 1033,737 1032,738 1031,738 1030,739 1029,739 1025,743 1024,743 1023,744 1022,744 1021,745 1020,745 1015,750 1014,750 1013,751 1012,751 1010,753 1010,754 1007,757 1006,757 1005,758 1004,758 999,763 998,763 997,764 996,764 995,765 994,765 989,770 988,770 987,771 986,771 985,772 985,773 981,777 980,777 977,780 977,781 975,783 974,783 973,784 972,784 970,786 970,787 968,789 967,789 966,790 965,790 959,796 958,796 957,797 956,797 955,798 954,798 949,803 948,803 945,806 945,807 943,809 942,809 941,810 940,810 939,811 939,812 934,817 933,817 933,818 928,823 927,823 926,824 926,825 922,829 921,829 919,831 919,832 915,836 914,836 913,837 913,838 909,842 908,842 906,844 906,845 902,849 901,849 900,850 900,851 896,855 895,855 893,857 893,858 889,862 888,862 887,863 887,864 882,869 881,869 881,870 879,872 879,873 878,874 877,874 875,876 874,876 874,877 873,878 873,879 870,882 869,882 867,884 867,885 866,886 866,887 859,894 859,895 858,896 857,896 856,897 856,898 854,900 854,901 852,903 852,904 849,907 848,907 848,908 847,909 847,910 844,913 843,913 841,915 841,916 840,917 840,918 837,921 836,921 835,922 835,923 833,925 833,926 828,931 828,932 827,933 827,934 824,937 824,938 821,941 821,942 820,943 820,944 818,946 817,946 815,948 815,949 814,950 814,951 809,956 809,957 808,958 808,960 807,961 807,962 802,967 802,968 801,969 801,970 798,973 797,973 795,975 795,977 791,981 791,982 789,984 789,987 788,988 788,989 785,992 784,992 783,993 783,994 782,995 782,996 781,997 781,999 780,1000 780,1001 776,1005 776,1007 775,1008 775,1009 772,1012 771,1012 770,1013 770,1014 769,1015 769,1018 768,1019 768,1021 765,1024 764,1024 764,1025 763,1026 763,1027 762,1028 762,1029 757,1034 757,1035 756,1036 756,1040 755,1041 755,1042 753,1044 752,1044 750,1046 750,1047 749,1048 749,1052 748,1053 748,1054 745,1057 744,1057 744,1058 743,1059 743,1061 742,1062 742,1063 741,1064 741,1065 738,1068 738,1069 737,1070 737,1072 736,1073 736,1075 735,1076 735,1077 731,1081 731,1083 730,1084 730,1087 729,1088 729,1089 728,1090 728,1091 725,1094 725,1095 724,1096 724,1098 723,1099 723,1101 722,1102 722,1103 719,1106 719,1107 718,1108 718,1109 717,1110 717,1113 716,1114 716,1115 714,1117 714,1118 711,1121 711,1123 710,1124 710,1127 709,1128 709,1130 706,1133 706,1134 704,1136 704,1139 703,1140 703,1145 698,1150 698,1152 697,1153 697,1159 695,1161 695,1162 694,1163 693,1163 693,1164 692,1165 692,1166 691,1167 691,1171 690,1172 690,1176 689,1177 689,1178 685,1182 685,1184 684,1185 684,1192 683,1193 683,1195 680,1198 680,1199 679,1200 679,1201 678,1202 678,1207 677,1208 677,1212 673,1216 673,1217 672,1218 672,1220 671,1221 671,1229 670,1230 670,1231 669,1232 669,1233 666,1236 666,1237 665,1238 665,1244 664,1245 664,1252 663,1253 663,1254 661,1256 661,1257 659,1259 659,1261 658,1262 658,1272 657,1273 657,1276 656,1277 656,1278 654,1280 654,1281 653,1282 653,1283 652,1284 652,1290 651,1291 651,1299 650,1300 650,1302 649,1303 649,1304 648,1305 648,1306 647,1307 647,1308 646,1309 646,1312 645,1313 645,1328 644,1329 644,1332 643,1333 643,1335 642,1336 642,1337 640,1339 640,1341 639,1342 639,1348 638,1349 638,1365 637,1366 637,1370 636,1371 636,1373 635,1374 635,1375 634,1376 634,1378 633,1379 633,1382 632,1383 632,1411 631,1412 631,1417 630,1418 630,1421 629,1422 629,1424 628,1425 628,1429 627,1430 627,1438 626,1439 626,1456 625,1457 625,1580 626,1581 626,1593 627,1594 627,1598 628,1599 628,1603 629,1604 629,1607 630,1608 630,1613 631,1614 631,1624 632,1625 632,1652 633,1653 633,1656 634,1657 634,1659 635,1660 635,1662 636,1663 636,1665 637,1666 637,1669 638,1670 638,1686 639,1687 639,1694 640,1695 640,1696 642,1698 642,1699 643,1700 643,1701 644,1702 644,1706 645,1707 645,1722 646,1723 646,1726 647,1727 647,1728 649,1730 649,1731 650,1732 650,1734 651,1735 651,1745 652,1746 652,1751 653,1752 653,1754 656,1757 656,1758 657,1759 657,1762 658,1763 658,1771 659,1772 659,1775 660,1776 660,1777 662,1779 662,1780 663,1781 663,1782 664,1783 664,1789 665,1790 665,1793 666,1794 666,1795 669,1798 669,1799 670,1800 670,1802 671,1803 671,1811 672,1812 672,1813 673,1814 673,1815 676,1818 676,1819 677,1820 677,1823 678,1824 678,1830 679,1831 679,1832 683,1836 683,1837 684,1838 684,1846 685,1847 685,1850 690,1855 690,1860 691,1861 691,1864 692,1865 692,1866 693,1867 693,1868 696,1871 696,1873 697,1874 697,1880 698,1881 698,1883 700,1885 701,1885 702,1886 702,1887 703,1888 703,1894 704,1895 704,1897 705,1898 705,1899 706,1900 707,1900 709,1902 710,1902 711,1903 714,1903 715,1902 715,1901 710,1896 710,1892 709,1891 709,1881 704,1876 704,1874 703,1873 703,1862 702,1861 702,1857 700,1855 700,1854 697,1851 697,1848 696,1847 696,1833 695,1832 695,1830 694,1829 694,1828 693,1827 693,1826 692,1825 692,1824 691,1823 691,1821 690,1820 690,1805 689,1804 689,1799 688,1798 688,1794 687,1793 687,1790 686,1789 686,1788 685,1787 685,1785 684,1784 684,1780 683,1779 683,1759 682,1758 682,1755 681,1754 681,1752 680,1751 680,1749 679,1748 679,1744 678,1743 678,1736 677,1735 677,1715 676,1714 676,1698 675,1697 675,1692 674,1691 674,1688 673,1687 673,1685 672,1684 672,1679 671,1678 671,1661 670,1660 670,1574 671,1573 671,1556 672,1555 672,1548 673,1547 673,1543 674,1542 674,1538 675,1537 675,1532 676,1531 676,1519 677,1518 677,1492 678,1491 678,1487 679,1486 679,1484 680,1483 680,1482 681,1481 681,1480 682,1479 682,1475 683,1474 683,1455 684,1454 684,1450 685,1449 685,1447 686,1446 686,1444 688,1442 688,1440 689,1439 689,1432 690,1431 690,1419 691,1418 691,1416 694,1413 694,1412 695,1411 695,1408 696,1407 696,1395 697,1394 697,1390 698,1389 698,1388 699,1387 699,1386 701,1384 701,1383 702,1382 702,1377 703,1376 703,1367 704,1366 704,1364 707,1361 707,1360 708,1359 708,1357 709,1356 709,1349 710,1348 710,1345 711,1344 711,1343 714,1340 714,1339 715,1338 715,1336 716,1335 716,1326 717,1325 717,1324 720,1321 720,1320 721,1319 721,1318 722,1317 722,1311 723,1310 723,1307 724,1306 724,1305 727,1302 727,1301 728,1300 728,1297 729,1296 729,1292 730,1291 730,1290 731,1289 731,1288 734,1285 734,1284 735,1283 735,1278 736,1277 736,1274 737,1273 737,1272 740,1269 740,1268 741,1267 741,1264 742,1263 742,1260 743,1259 743,1258 744,1257 744,1256 748,1252 748,1249 749,1248 749,1244 750,1243 750,1242 754,1238 754,1237 755,1236 755,1232 756,1231 756,1229 758,1227 759,1227 760,1226 760,1225 761,1224 761,1222 762,1221 762,1218 763,1217 763,1216 765,1214 766,1214 766,1213 768,1211 768,1207 769,1206 769,1204 774,1199 774,1197 775,1196 775,1192 776,1191 776,1190 778,1188 779,1188 780,1187 780,1186 781,1185 781,1183 782,1182 782,1180 786,1176 786,1175 787,1174 787,1172 788,1171 788,1169 790,1167 791,1167 793,1165 793,1163 794,1162 794,1159 795,1158 795,1157 797,1155 798,1155 800,1153 800,1152 801,1151 801,1149 802,1148 802,1147 806,1143 806,1141 807,1140 807,1138 813,1132 813,1131 814,1130 814,1127 815,1126 815,1125 817,1123 818,1123 819,1122 819,1121 820,1120 820,1119 821,1118 821,1117 824,1114 825,1114 825,1113 826,1112 826,1111 827,1110 827,1107 828,1106 828,1105 830,1103 831,1103 832,1102 832,1101 833,1100 833,1099 837,1095 838,1095 839,1094 839,1093 840,1092 840,1091 841,1090 841,1089 845,1085 845,1084 846,1083 846,1081 847,1080 847,1079 849,1077 850,1077 853,1074 853,1073 854,1072 854,1071 855,1070 856,1070 859,1067 859,1066 860,1065 860,1064 865,1059 865,1058 866,1057 866,1056 867,1055 867,1054 870,1051 871,1051 871,1050 873,1048 873,1047 877,1043 878,1043 878,1042 879,1041 879,1040 882,1037 883,1037 885,1035 885,1034 892,1027 892,1026 898,1020 898,1019 910,1007 910,1006 912,1004 912,1003 918,997 918,996 922,992 923,992 925,990 925,989 928,986 929,986 933,982 933,981 934,980 935,980 939,976 939,975 941,973 942,973 950,965 951,965 952,964 952,963 953,962 954,962 964,952 965,952 971,946 972,946 974,944 975,944 975,943 979,939 980,939 981,938 982,938 982,937 987,932 988,932 990,930 990,929 993,926 994,926 995,925 996,925 997,924 997,923 1000,920 1001,920 1002,919 1003,919 1004,918 1005,918 1009,914 1010,914 1012,912 1013,912 1018,907 1019,907 1023,903 1023,902 1024,901 1025,901 1026,900 1027,900 1033,894 1034,894 1035,893 1036,893 1037,892 1038,892 1042,888 1043,888 1044,887 1045,887 1046,886 1047,886 1048,885 1048,884 1051,881 1052,881 1053,880 1054,880 1055,879 1056,879 1060,875 1061,875 1062,874 1064,874 1065,873 1066,873 1068,871 1068,870 1070,868 1071,868 1072,867 1073,867 1074,866 1075,866 1076,865 1076,864 1077,863 1078,863 1080,861 1083,861 1084,860 1085,860 1087,858 1087,857 1089,855 1090,855 1091,854 1093,854 1094,853 1095,853 1099,849 1100,849 1101,848 1104,848 1105,847 1106,847 1107,846 1107,845 1110,842 1111,842 1112,841 1114,841 1115,840 1117,840 1122,835 1124,835 1125,834 1127,834 1131,830 1132,830 1133,829 1135,829 1136,828 1138,828 1139,827 1140,827 1144,823 1145,823 1146,822 1149,822 1150,821 1151,821 1156,816 1158,816 1159,815 1163,815 1164,814 1165,814 1168,811 1169,811 1170,810 1171,810 1172,809 1175,809 1176,808 1178,808 1179,807 1180,807 1184,803 1186,803 1187,802 1190,802 1191,801 1192,801 1196,797 1197,797 1198,796 1202,796 1203,795 1204,795 1205,794 1206,794 1209,791 1210,791 1211,790 1212,790 1213,789 1217,789 1218,788 1221,788 1225,784 1226,784 1227,783 1229,783 1230,782 1235,782 1236,781 1237,781 1241,777 1242,777 1243,776 1249,776 1250,775 1252,775 1253,774 1254,774 1257,771 1258,771 1259,770 1263,770 1264,769 1269,769 1270,768 1271,768 1272,767 1273,767 1276,764 1278,764 1279,763 1287,763 1288,762 1290,762 1293,759 1294,759 1295,758 1296,758 1297,757 1300,757 1301,756 1309,756 1310,755 1312,755 1314,753 1315,753 1317,751 1319,751 1320,750 1329,750 1330,749 1334,749 1336,747 1337,747 1339,745 1340,745 1341,744 1344,744 1345,743 1357,743 1358,742 1360,742 1362,740 1363,740 1365,738 1368,738 1369,737 1380,737 1381,736 1386,736 1388,734 1389,734 1391,732 1393,732 1394,731 1398,731 1399,730 1418,730 1419,729 1422,729 1423,728 1425,728 1426,727 1427,727 1428,726 1430,726 1431,725 1434,725 1435,724 1456,724 1457,723 1464,723 1465,722 1469,722 1470,721 1472,721 1473,720 1476,720 1477,719 1480,719 1481,718 1489,718 1490,717 1539,717 1540,716 1555,716 1556,715 1578,715 1579,716 1590,716 1591,717 1628,717 1629,718 1637,718 1638,719 1642,719 1643,720 1647,720 1648,721 1652,721 1653,722 1656,722 1657,723 1667,723 1668,724 1689,724 1690,725 1693,725 1694,726 1695,726 1696,727 1698,727 1699,728 1701,728 1702,729 1705,729 1706,730 1719,730 1720,731 1725,731 1726,732 1728,732 1730,734 1731,734 1732,735 1734,735 1735,736 1738,736 1739,737 1750,737 1751,738 1753,738 1754,739 1755,739 1756,740 1757,740 1759,742 1761,742 1762,743 1771,743 1772,744 1776,744 1777,745 1778,745 1779,746 1780,746 1782,748 1783,748 1784,749 1787,749 1788,750 1798,750 1799,751 1800,751 1803,754 1804,754 1805,755 1806,755 1807,756 1812,756 1813,757 1817,757 1818,758 1819,758 1822,761 1823,761 1824,762 1827,762 1828,763 1834,763 1835,764 1837,764 1840,767 1841,767 1842,768 1843,768 1844,769 1848,769 1849,770 1852,770 1853,771 1854,771 1858,775 1859,775 1860,776 1867,776 1868,777 1869,777 1871,779 1871,780 1873,782 1879,782 1880,783 1882,783 1883,784 1884,784 1885,785 1885,786 1886,787 1887,787 1888,788 1891,788 1892,789 1895,789 1896,790 1897,790 1901,794 1902,794 1903,795 1906,795 1907,796 1910,796 1911,797 1912,797 1915,800 1916,800 1917,801 1918,801 1919,802 1922,802 1923,803 1924,803 1925,804 1926,804 1929,807 1930,807 1931,808 1932,808 1933,809 1935,809 1940,814 1942,814 1943,815 1946,815 1950,819 1950,820 1951,820 1952,821 1953,821 1954,822 1957,822 1958,823 1959,823 1964,828 1966,828 1967,829 1968,829 1971,832 1971,833 1972,833 1973,834 1975,834 1976,835 1978,835 1984,841 1985,841 1986,842 1987,842 1991,846 1992,846 1993,847 1994,847 1995,848 1997,848 1998,849 1999,849 2000,850 2000,851 2003,854 2005,854 2011,860 2012,860 2013,861 2014,861 2015,862 2016,862 2020,866 2021,866 2022,867 2023,867 2025,869 2026,869 2027,870 2027,871 2029,873 2030,873 2031,874 2032,874 2035,877 2035,878 2037,880 2038,880 2039,881 2040,881 2042,883 2042,884 2043,885 2044,885 2046,887 2047,887 2048,888 2049,888 2054,893 2055,893 2057,895 2058,895 2060,897 2060,898 2061,899 2062,899 2063,900 2064,900 2067,903 2067,904 2069,906 2070,906 2073,909 2073,910 2076,913 2077,913 2080,916 2080,917 2083,920 2084,920 2087,923 2087,924 2089,926 2090,926 2093,929 2093,930 2096,933 2097,933 2100,936 2100,937 2102,939 2103,939 2107,943 2107,944 2108,945 2109,945 2113,949 2113,950 2115,952 2116,952 2119,955 2119,956 2122,959 2123,959 2125,961 2125,962 2129,966 2130,966 2131,967 2131,968 2132,969 2132,970 2138,976 2138,977 2139,978 2139,979 2145,985 2145,986 2146,987 2146,988 2152,994 2152,995 2153,996 2153,997 2154,997 2158,1001 2158,1002 2159,1003 2159,1004 2161,1006 2162,1006 2163,1007 2163,1008 2164,1009 2164,1010 2165,1011 2165,1012 2167,1014 2167,1015 2171,1019 2171,1021 2172,1022 2172,1023 2173,1024 2174,1024 2178,1028 2178,1030 2179,1031 2179,1032 2180,1033 2180,1034 2184,1038 2184,1040 2185,1041 2185,1042 2186,1043 2187,1043 2191,1047 2191,1050 2192,1051 2192,1053 2197,1058 2197,1059 2198,1060 2198,1062 2203,1067 2203,1069 2204,1070 2204,1073 2205,1074 2205,1075 2206,1075 2210,1079 2210,1080 2211,1081 2211,1085 2212,1086 2212,1087 2213,1088 2214,1088 2216,1090 2216,1091 2217,1092 2217,1094 2218,1095 2218,1097 2219,1098 2219,1099 2223,1103 2223,1105 2224,1106 2224,1109 2225,1110 2225,1111 2227,1113 2227,1114 2229,1116 2229,1117 2230,1118 2230,1120 2231,1121 2231,1124 2232,1125 2232,1126 2233,1127 2234,1127 2235,1128 2235,1129 2236,1130 2236,1131 2237,1132 2237,1137 2238,1138 2238,1139 2243,1144 2243,1151 2244,1152 2244,1154 2248,1158 2248,1159 2249,1160 2249,1163 2250,1164 2250,1169 2251,1170 2251,1171 2255,1175 2255,1176 2256,1177 2256,1184 2257,1185 2257,1188 2259,1190 2259,1191 2261,1193 2261,1194 2262,1195 2262,1196 2263,1197 2263,1206 2264,1207 2264,1208 2265,1209 2265,1210 2268,1213 2268,1215 2269,1216 2269,1224 2270,1225 2270,1230 2271,1231 2271,1232 2274,1235 2274,1236 2275,1237 2275,1240 2276,1241 2276,1252 2277,1253 2277,1256 2278,1257 2278,1258 2279,1259 2279,1260 2280,1261 2280,1262 2281,1263 2281,1265 2282,1266 2282,1276 2283,1277 2283,1284 2284,1285 2284,1287 2285,1288 2285,1289 2286,1290 2286,1291 2287,1292 2287,1293 2288,1294 2288,1300 2289,1301 2289,1324 2290,1325 2290,1331 2291,1332 2291,1335 2292,1336 2292,1339 2293,1340 2293,1342 2294,1343 2294,1348 2295,1349 2295,1459 2294,1460 2294,1466 2293,1467 2293,1470 2292,1471 2292,1474 2291,1475 2291,1478 2290,1479 2290,1484 2289,1485 2289,1510 2288,1511 2288,1514 2287,1515 2287,1516 2286,1517 2286,1518 2284,1520 2284,1522 2283,1523 2283,1531 2282,1532 2282,1543 2281,1544 2281,1547 2280,1548 2280,1550 2278,1552 2278,1553 2277,1554 2277,1556 2276,1557 2276,1570 2275,1571 2275,1574 2274,1575 2274,1576 2273,1577 2273,1578 2271,1580 2271,1581 2270,1582 2270,1587 2269,1588 2269,1597 2268,1598 2268,1599 2264,1603 2264,1605 2263,1606 2263,1615 2262,1616 2262,1618 2261,1619 2261,1620 2258,1623 2258,1624 2257,1625 2257,1627 2256,1628 2256,1635 2254,1637 2254,1638 2251,1641 2251,1642 2250,1643 2250,1648 2249,1649 2249,1653 2248,1654 2248,1655 2244,1659 2244,1660 2243,1661 2243,1667 2242,1668 2242,1669 2238,1673 2238,1674 2237,1675 2237,1680 2236,1681 2236,1682 2235,1683 2235,1684 2231,1688 2231,1691 2230,1692 2230,1695 2228,1697 2228,1698 2225,1701 2225,1702 2224,1703 2224,1706 2223,1707 2223,1709 2221,1711 2221,1712 2218,1715 2218,1717 2217,1718 2217,1721 2216,1722 2216,1723 2215,1724 2215,1725 2213,1727 2213,1728 2212,1729 2212,1733 2213,1734 2214,1734 2215,1735 2217,1735 2218,1736 2219,1736 2224,1741 2226,1741 2227,1742 2228,1742 2233,1747 2235,1747 2236,1748 2239,1748 2245,1754 2246,1754 2247,1755 2249,1755 2250,1756 2251,1756 2254,1759 2255,1759 2256,1760 2257,1760 2258,1761 2260,1761 2266,1767 2270,1767 2271,1768 2272,1768 2273,1769 2274,1769 2275,1770 2275,1771 2277,1773 2278,1773 2279,1774 2281,1774 2282,1775 2284,1775 2285,1776 2286,1776 2287,1777 2287,1778 2288,1779 2289,1779 2290,1780 2291,1780 2292,1781 2293,1781 2298,1786 2299,1786 2300,1787 2303,1787 2304,1788 2306,1788 2308,1790 2308,1791 2310,1793 2312,1793 2313,1794 2314,1794 2315,1795 2316,1795 2319,1798 2320,1798 2321,1799 2322,1799 2323,1800 2324,1800 2325,1801 2326,1801 2331,1806 2334,1806 2335,1807 2338,1807 2340,1805 2340,1804 2344,1800 2345,1800 2346,1799 2346,1798 2347,1797 2347,1795 2348,1794 2348,1793 2350,1791 2350,1790 2352,1788 2352,1787 2353,1786 2353,1784 2354,1783 2354,1782 2356,1780 2357,1780 2359,1778 2359,1775 2360,1774 2360,1772 2361,1771 2361,1770 2364,1767 2365,1767 2365,1766 2366,1765 2366,1762 2367,1761 2367,1758 2370,1755 2371,1755 2372,1754 2372,1752 2373,1751 2373,1749 2374,1748 2374,1746 2378,1742 2378,1741 2379,1740 2379,1737 2380,1736 2380,1734 2381,1733 2381,1732 2385,1728 2385,1727 2386,1726 2386,1720 2387,1719 2387,1718 2388,1717 2389,1717 2392,1714 2392,1710 2393,1709 2393,1705 2398,1700 2398,1696 2399,1695 2399,1691 2400,1690 2400,1688 2403,1685 2403,1684 2405,1682 2405,1675 2406,1674 2406,1672 2410,1668 2410,1667 2411,1666 2411,1664 2412,1663 2412,1657 2413,1656 2413,1654 2417,1650 2417,1649 2418,1648 2418,1640 2419,1639 2419,1636 2420,1635 2420,1634 2423,1631 2423,1630 2424,1629 2424,1627 2425,1626 2425,1618 2426,1617 2426,1615 2427,1614 2427,1613 2430,1610 2430,1608 2431,1607 2431,1600 2432,1599 2432,1593 2433,1592 2433,1591 2435,1589 2435,1588 2436,1587 2436,1586 2437,1585 2437,1583 2438,1582 2438,1569 2439,1568 2439,1566 2442,1563 2442,1562 2443,1561 2443,1560 2444,1559 2444,1550 2445,1549 2445,1540 2446,1539 2446,1536 2447,1535 2447,1533 2448,1532 2448,1531 2449,1530 2449,1528 2450,1527 2450,1525 2451,1524 2451,1505 2452,1504 2452,1500 2453,1499 2453,1496 2454,1495 2454,1494 2455,1493 2455,1491 2456,1490 2456,1487 2457,1486 2457,1471 2458,1470 2458,1456 2459,1455 2459,1450 2460,1449 2460,1446 2461,1445 2461,1443 2462,1442 2462,1438 2463,1437 2463,1418 2464,1417 2464,1345 2463,1344 2463,1335 2462,1334 2462,1329 2461,1328 2461,1326 2460,1325 2460,1322 2459,1321 2459,1315 2458,1314 2458,1291 2457,1290 2457,1272 2456,1271 2456,1268 2455,1267 2455,1265 2454,1264 2454,1262 2453,1261 2453,1260 2452,1259 2452,1254 2451,1253 2451,1233 2450,1232 2450,1229 2449,1228 2449,1227 2447,1225 2447,1224 2446,1223 2446,1220 2445,1219 2445,1209 2444,1208 2444,1200 2443,1199 2443,1197 2440,1194 2440,1193 2439,1192 2439,1190 2438,1189 2438,1177 2437,1176 2437,1173 2436,1172 2436,1171 2435,1170 2435,1169 2433,1167 2433,1166 2432,1165 2432,1160 2431,1159 2431,1151 2430,1150 2430,1149 2427,1146 2427,1145 2426,1144 2426,1142 2425,1141 2425,1133 2424,1132 2424,1130 2423,1129 2423,1128 2420,1125 2420,1124 2419,1123 2419,1120 2418,1119 2418,1111 2417,1110 2417,1109 2413,1105 2413,1103 2412,1102 2412,1096 2411,1095 2411,1093 2410,1092 2410,1091 2406,1087 2406,1083 2405,1082 2405,1078 2404,1077 2404,1076 2400,1072 2400,1070 2399,1069 2399,1064 2398,1063 2398,1060 2393,1055 2393,1053 2392,1052 2392,1046 2389,1043 2388,1043 2387,1042 2387,1041 2386,1040 2386,1034 2385,1033 2385,1032 2381,1028 2381,1027 2380,1026 2380,1023 2379,1022 2379,1020 2378,1019 2378,1018 2374,1014 2374,1013 2373,1012 2373,1008 2372,1007 2372,1006 2370,1004 2369,1004 2368,1003 2368,1002 2367,1001 2367,999 2366,998 2366,995 2365,994 2365,993 2363,991 2362,991 2361,990 2361,989 2360,988 2360,985 2359,984 2359,981 2358,980 2357,980 2354,977 2354,976 2353,975 2353,972 2352,971 2352,970 2348,966 2348,965 2347,964 2347,963 2346,962 2346,960 2345,959 2344,959 2342,957 2342,956 2341,955 2341,954 2340,953 2340,950 2339,949 2339,948 2338,948 2334,944 2334,943 2333,942 2333,941 2332,940 2332,939 2328,935 2328,933 2327,932 2327,930 2326,929 2326,928 2325,928 2321,924 2321,923 2320,922 2320,921 2316,917 2316,916 2315,915 2315,914 2314,913 2314,911 2313,910 2313,909 2312,908 2311,908 2308,905 2308,904 2307,903 2307,902 2306,901 2305,901 2301,897 2301,896 2300,895 2300,894 2299,893 2299,892 2295,888 2295,886 2294,885 2294,884 2291,881 2290,881 2289,880 2289,879 2288,878 2288,877 2285,874 2284,874 2282,872 2282,871 2281,870 2281,869 2279,867 2278,867 2276,865 2276,864 2275,863 2275,862 2274,861 2274,860 2269,855 2269,854 2267,852 2267,851 2266,850 2265,850 2262,847 2262,846 2261,845 2261,844 2259,842 2258,842 2256,840 2256,839 2252,835 2251,835 2249,833 2249,832 2248,831 2248,830 2247,830 2245,828 2244,828 2243,827 2243,826 2242,825 2242,824 2241,823 2240,823 2235,818 2235,817 2234,816 2233,816 2230,813 2230,812 2227,809 2226,809 2223,806 2223,805 2221,803 2220,803 2216,799 2216,798 2215,797 2214,797 2209,792 2209,791 2208,791 2206,789 2205,789 2204,788 2204,787 2200,783 2199,783 2197,781 2197,780 2194,777 2193,777 2190,774 2190,773 2188,771 2187,771 2185,769 2184,769 2183,768 2183,767 2181,765 2180,765 2178,763 2177,763 2171,757 2170,757 2169,756 2168,756 2166,754 2166,753 2164,751 2163,751 2162,750 2161,750 2158,747 2158,746 2157,745 2156,745 2155,744 2154,744 2150,740 2150,739 2149,739 2147,737 2146,737 2141,732 2140,732 2139,731 2138,731 2137,730 2136,730 2132,726 2131,726 2130,725 2129,725 2128,724 2127,724 2125,722 2125,721 2122,718 2121,718 2120,717 2119,717 2115,713 2114,713 2113,712 2111,712 2110,711 2109,711 2104,706 2103,706 2102,705 2101,705 2096,700 2095,700 2094,699 2091,699 2090,698 2089,698 2086,695 2086,694 2085,693 2084,693 2083,692 2082,692 2081,691 2080,691 2076,687 2075,687 2074,686 2072,686 2071,685 2069,685 2066,682 2066,681 2064,679 2061,679 2060,678 2059,678 2058,677 2057,677 2054,674 2053,674 2052,673 2051,673 2050,672 2048,672 2044,668 2043,668 2042,667 2041,667 2040,666 2037,666 2036,665 2035,665 2034,664 2034,663 2031,660 2028,660 2027,659 2024,659 2018,653 2013,653 2012,652 2010,652 2008,650 2008,649 2006,647 2005,647 2004,646 2000,646 1999,645 1998,645 1994,641 1993,641 1992,640 1988,640 1987,639 1985,639 1980,634 1978,634 1977,633 1973,633 1972,632 1971,632 1966,627 1959,627 1958,626 1957,626 1956,625 1955,625 1954,624 1954,623 1953,623 1951,621 1948,621 1947,620 1941,620 1940,619 1939,619 1935,615 1934,615 1933,614 1927,614 1926,613 1924,613 1923,612 1922,612 1919,609 1918,609 1917,608 1915,608 1914,607 1907,607 1906,606 1905,606 1904,605 1903,605 1901,603 1900,603 1899,602 1898,602 1897,601 1891,601 1890,600 1886,600 1885,599 1884,599 1882,597 1881,597 1880,596 1879,596 1878,595 1875,595 1874,594 1867,594 1866,593 1865,593 1862,590 1861,590 1860,589 1858,589 1857,588 1848,588 1847,587 1843,587 1842,586 1840,586 1838,584 1837,584 1836,583 1835,583 1834,582 1831,582 1830,581 1818,581 1817,580 1815,580 1814,579 1813,579 1811,577 1810,577 1809,576 1807,576 1806,575 1796,575 1795,574 1789,574 1788,573 1785,573 1784,572 1783,572 1782,571 1781,571 1780,570 1778,570 1777,569 1773,569 1772,568 1753,568 1752,567 1749,567 1748,566 1746,566 1745,565 1744,565 1743,564 1741,564 1740,563 1737,563 1736,562 1712,562 1711,561 1700,561 1699,560 1692,560 1691,559 1688,559 1687,558 1676,558 1675,557 1664,557 1663,556 1588,556 1587,555" /></svg>