<?xml version="1.0" standalone="no"?>
<!DOCTYPE svg PUBLIC "-//W3C//DTD SVG 20010904//EN"
 "http://www.w3.org/TR/2001/REC-SVG-20010904/DTD/svg10.dtd">
<svg version="1.0" xmlns="http://www.w3.org/2000/svg"
 width="700.000000pt" height="700.000000pt" viewBox="0 0 700.000000 700.000000"
 preserveAspectRatio="xMidYMid meet">
<metadata>
</metadata>
<g transform="translate(0.000000,700.000000) scale(0.100000,-0.100000)"
fill="#000000" stroke="none">
<path d="M3611 6983 c-100 -34 -177 -109 -212 -205 l-13 -38 -116 -1 c-63 0
-140 -2 -170 -4 -66 -5 -176 -15 -210 -19 -94 -12 -143 -19 -200 -32 -36 -7
-76 -15 -90 -18 -150 -25 -459 -128 -643 -215 -49 -22 -90 -41 -92 -41 -6 0
-197 -107 -265 -149 -117 -71 -309 -207 -335 -236 -5 -6 -21 -18 -34 -28 -23
-15 -26 -15 -52 4 -44 31 -115 48 -185 45 -248 -12 -398 -294 -273 -514 l18
-32 -58 -78 c-124 -166 -224 -328 -315 -508 -62 -124 -146 -319 -146 -338 0
-7 -3 -16 -7 -19 -11 -11 -42 -105 -79 -237 -49 -175 -74 -288 -94 -425 -6
-44 -13 -93 -15 -110 -20 -137 -27 -537 -13 -715 57 -716 377 -1452 866 -1990
13 -15 20 -31 16 -40 -57 -127 -62 -227 -17 -322 63 -131 178 -203 321 -200
56 1 136 32 182 69 l24 21 76 -52 c83 -57 75 -51 197 -122 316 -182 622 -297
988 -373 56 -11 125 -23 155 -26 30 -3 64 -8 76 -10 142 -30 625 -27 829 5 33
5 80 12 105 15 25 3 61 10 80 15 19 5 53 12 75 16 22 3 109 26 192 50 406 117
768 302 1098 559 151 118 343 297 443 414 26 30 55 63 64 72 40 42 202 263
269 369 69 109 203 361 244 460 10 25 27 65 38 90 35 80 117 340 147 464 37
153 48 209 66 346 3 25 7 56 9 69 25 154 25 658 0 801 -2 14 -6 43 -9 65 -7
57 -25 172 -31 187 -2 7 -6 29 -9 48 -15 97 -102 404 -141 495 -7 17 -32 77
-55 135 -108 263 -287 567 -467 791 l-53 66 24 44 c14 24 36 79 50 121 138
424 -107 881 -534 995 -68 18 -249 24 -325 11 -134 -24 -302 -115 -403 -221
l-34 -35 -56 25 c-88 39 -237 92 -351 124 -57 16 -106 30 -107 32 -2 1 -5 14
-7 27 -27 140 -92 233 -200 284 -72 34 -171 42 -236 19z m-217 -439 c12 -47
56 -112 103 -154 64 -56 130 -79 223 -77 98 3 169 36 239 113 l50 55 63 -15
c57 -13 232 -67 268 -83 8 -3 17 -7 20 -7 9 -2 74 -28 96 -38 21 -10 21 -10 2
-49 -59 -123 -83 -281 -65 -429 35 -283 233 -534 497 -628 104 -38 140 -43
262 -44 186 0 376 74 501 196 l35 34 80 -106 c43 -59 108 -152 142 -207 61
-96 205 -371 244 -465 130 -316 208 -631 243 -975 10 -101 10 -472 0 -587 -34
-398 -149 -803 -331 -1166 -129 -259 -265 -461 -457 -681 -144 -165 -264 -276
-491 -454 -153 -121 -481 -303 -693 -386 -60 -24 -119 -47 -130 -51 -79 -33
-391 -114 -480 -125 -11 -1 -39 -5 -63 -9 -239 -42 -660 -42 -912 -2 -25 4
-58 10 -75 12 -51 8 -218 44 -251 55 -17 5 -40 11 -50 14 -52 11 -299 98 -374
132 -188 84 -323 158 -478 259 -108 71 -112 75 -105 101 5 16 7 60 7 99 -5
222 -218 379 -427 314 l-62 -20 -25 28 c-60 65 -132 154 -197 242 -74 100
-183 265 -183 277 0 3 -6 14 -14 22 -20 22 -147 278 -189 381 -96 233 -187
558 -212 759 -4 30 -8 61 -10 71 -12 63 -20 229 -20 425 0 276 8 370 51 600
59 312 149 578 289 855 93 186 224 395 322 517 l34 41 45 -15 c66 -22 174 -14
239 19 162 83 229 255 171 443 -5 17 15 36 116 112 335 250 698 426 1088 526
124 32 203 49 300 62 30 5 62 9 70 10 8 2 51 6 95 10 44 4 81 8 82 9 1 1 72 3
156 5 l154 2 7 -27z"/>
<path d="M3237 5274 c-1 -1 -43 -5 -94 -8 -50 -3 -115 -11 -145 -16 -29 -6
-69 -13 -88 -16 -58 -10 -200 -53 -295 -91 -384 -152 -728 -457 -934 -828 -49
-87 -137 -286 -143 -322 -3 -17 39 -18 804 -18 l807 -1 24 -23 c14 -12 27 -35
30 -49 7 -37 -26 -89 -61 -96 -15 -3 -382 -5 -817 -5 -434 0 -802 0 -817 0
-23 -1 -27 -6 -37 -52 -17 -76 -24 -147 -25 -224 l-1 -69 675 -1 c371 -1 685
-4 698 -9 51 -17 64 -99 22 -140 -20 -21 -27 -21 -708 -21 -794 0 -705 16
-686 -125 22 -156 25 -174 50 -275 134 -533 499 -985 991 -1229 105 -53 313
-129 385 -141 18 -4 51 -10 73 -15 36 -8 98 -17 180 -26 39 -4 291 -4 330 0
375 42 691 171 987 404 83 64 338 338 338 362 0 3 -242 5 -537 5 -296 -1 -550
3 -566 8 -58 19 -75 86 -33 134 l24 28 599 2 c329 2 606 3 615 3 12 0 29 23
52 68 32 65 101 232 108 261 3 13 -113 15 -842 16 -465 0 -855 4 -867 8 -51
18 -65 100 -24 141 l22 21 878 0 c484 0 882 3 885 6 3 3 8 23 11 45 4 21 9 47
11 57 3 10 11 68 18 130 41 385 -41 789 -231 1132 l-55 100 -481 2 c-265 1
-492 3 -505 3 -35 0 -72 43 -72 83 0 29 7 41 43 79 1 1 202 5 447 8 l444 5
-124 126 c-243 246 -504 404 -815 492 -103 30 -116 32 -245 52 -79 12 -295 26
-303 19z"/>
<path d="M6580 5864 c-91 -24 -172 -89 -215 -174 -99 -195 3 -433 212 -493
150 -43 313 34 385 181 30 60 33 75 33 152 0 70 -5 95 -27 141 -71 154 -231
233 -388 193z"/>
<path d="M6486 1193 c-95 -28 -169 -95 -215 -193 -34 -74 -36 -201 -4 -272 73
-162 238 -243 404 -198 38 11 139 73 151 93 3 7 16 23 27 36 64 74 82 224 40
332 -37 95 -138 186 -229 206 -47 11 -131 9 -174 -4z"/>
</g>
</svg>
