<svg fill="none" height="100" viewBox="0 0 135 100" width="135" xmlns="http://www.w3.org/2000/svg"><path d="m131.333 77.7773-29.427-1.0656-15.5186 1.5149-26.5131 2.5875-9.9773.9732-23.1063 7.8851c-.0928.0316-.1924.0357-.2873.0118-.095-.024-.1813-.075-.2491-.1471s-.1142-.1624-.1338-.2604c-.0196-.0981-.0117-.1998.0228-.2934l.0018-.0017 4.0072-10.8456-.4217-.3179-11.0273-8.2918-.059-.0444-14.29874-2.2305c-.2013-.0316-.39142-.1152-.55243-.2428-.161-.1276-.28758-.2951-.36781-.4867-.08022-.1915-.11145-.4008-.09073-.6082.02073-.2073.09271-.4058.20917-.5768l21.77694-31.9772 11.4438-16.8003 1.2409-1.8238 47.6045-.6731 46.4781 62.2194c.105.1402.168.3079.184.4836.015.1756-.019.3521-.098.5088-.08.1567-.201.2872-.349.3762-.149.0891-.32.133-.492.1268z" fill="#e6cdb4"/><path d="m49.1567 17.3308-19.4266 60.4875-11.0261-8.2917 6.6171-36.1664 11.4105-16.8407.0325.0393z" fill="#000" opacity=".2"/><path d="m31.8161 40.5028c-2.2043 5.4225-2.9847 9.9517-5.5993 9.1338-3.5796-1.1197.1789-5.0803 2.3831-10.5028 2.2043-5.4226 3.7618-9.5821 5.5993-9.1339 3.4258.8356-.1788 5.0803-2.3831 10.5029z" fill="#3f3d56"/><path d="m36.8103 29.6489c-.0006-.3589-.0702-.7141-.2049-1.0455-.1347-.3313-.3319-.6322-.5803-.8856-.2484-.2533-.5431-.4542-.8673-.591s-.6716-.2069-1.0223-.2063c-.0603.0001-.1198.003-.1791.0071l-2.5201-.3181c-.2892-.1055-.594-.1591-.901-.1583-.0848.0001-.1685.0048-.2512.0128l-.0971-.0122-.0026.0242c-.5914.0812-1.1392.3628-1.556.7998-.4168.4371-.6785 1.0043-.7435 1.6113-.0649.607.0707 1.2188.3852 1.7377.3145.519.7898.9152 1.35 1.1254l-.0053.0492.248.0284c.2223.0595.4513.0893.6811.0889.0255-.0001.0507-.0013.076-.0021l2.5762.2953c.3029.1172.6241.1769.948.1761.1207-.0004.2413-.0091.3609-.0261l.2196.0252.0013-.0659c.5923-.1364 1.1215-.4753 1.5004-.9607s.5849-1.0884.584-1.7096z" fill="#e6cdb4"/><path d="m36.8103 29.6489c-.0006-.3589-.0702-.7141-.2049-1.0455-.1347-.3313-.3319-.6322-.5803-.8856-.2484-.2533-.5431-.4542-.8673-.591s-.6716-.2069-1.0223-.2063c-.0603.0001-.1198.003-.1791.0071l-2.5201-.3181c-.2892-.1055-.594-.1591-.901-.1583-.0848.0001-.1685.0048-.2512.0128l-.0971-.0122-.0026.0242c-.5914.0812-1.1392.3628-1.556.7998-.4168.4371-.6785 1.0043-.7435 1.6113-.0649.607.0707 1.2188.3852 1.7377.3145.519.7898.9152 1.35 1.1254l-.0053.0492.248.0284c.2223.0595.4513.0893.6811.0889.0255-.0001.0507-.0013.076-.0021l2.5762.2953c.3029.1172.6241.1769.948.1761.1207-.0004.2413-.0091.3609-.0261l.2196.0252.0013-.0659c.5923-.1364 1.1215-.4753 1.5004-.9607s.5849-1.0884.584-1.7096z" fill="#fff" opacity=".2"/><path d="m1.145 66.9786-.308452-.1656c7.900762-15.4095 30.246952-48.3338 30.471752-48.6646l.286.2035c-.2246.3306-22.5586 33.2368-30.4493 48.6267z" fill="#3f3d56"/><path d="m25.3461 90.072-.336-.0937c.1627-.6123 16.3458-61.3564 21.9646-71.6033l.3037.1744c-5.5979 10.209-21.7695 70.9106-21.9323 71.5226z" fill="#3f3d56"/><path d="m133.458 78.2956c-8.628-14.5434-41.209-59.5853-41.5372-60.0386l.2799-.2121c.3282.4534 32.9193 45.5084 41.5543 60.0657z" fill="#3f3d56"/><path d="m24.719 91.6894c.6733-.0011 1.218-.7202 1.2166-1.606-.0013-.8859-.5483-1.6031-1.2216-1.602-.6734.0011-1.2181.7201-1.2167 1.606s.5484 1.6031 1.2217 1.602z" fill="#3f3d56"/><path d="m1.2242 67.6689c.67332-.0011 1.21802-.7202 1.21663-1.606-.00139-.8859-.54835-1.6031-1.22167-1.602-.673324.0011-1.21803094.7201-1.21663817 1.606.00139278.8859.54835717 1.6031 1.22167817 1.602z" fill="#3f3d56"/><path d="m133.781 79.0956c.673-.0011 1.218-.7201 1.216-1.606-.001-.8858-.548-1.6031-1.221-1.602-.674.0011-1.218.7202-1.217 1.6061.002.8858.549 1.6031 1.222 1.6019z" fill="#3f3d56"/><path d="m29.9543 19.9184 65.7094.7205c-.0456-5.4916-2.2102-10.74234-6.0221-14.60815-3.812-3.86582-8.9624-6.0334831-14.3293-6.03074741l-25.0771.04128441c-10.4892.0172673-19.3708 8.411093-20.2198 19.109313z" fill="#3f3d56"/><path d="m87.6891 42.1455h-24.0158c-.2924-.0003-.5819.0589-.8518.1741s-.5147.2841-.7202.4969c-.2056.2128-.3677.4653-.4771.7428-.1094.2774-.1639.5744-.1602.8736l.0209 1.7972.2134 19.2404.0035.3711.007.6127.0069.5985.0399 3.6069c.0066.587.2358 1.1483.6393 1.5655s.9497.6576 1.5231.6704c.059 0 .1198-.0018.1805-.0053l5.7029-.3552 8.2505-.515 2.9121-.1812.6491-.0408 4.5383-.2824h.0017l1.6696-.1048c.5616-.0356 1.0888-.2889 1.4744-.7082s.6006-.9732.6012-1.549v-24.7474c-.0006-.5994-.2335-1.1741-.6477-1.5979-.4142-.4239-.9758-.6623-1.5615-.6629z" fill="#000" opacity=".2"/><path d="m92.6346 39.0022c-.0869.0071-.1711.0338-.2467.0781-.0756.0444-.1406.1053-.1905.1784l-2.6461.0044v-.7182c-.0007-.5994-.2336-1.174-.6478-1.5979-.4142-.4238-.9758-.6622-1.5615-.6628h-24.0157c-.2925-.0003-.582.0589-.8519.1741-.2698.1151-.5146.284-.7202.4969-.2055.2128-.3677.4652-.4771.7427s-.1638.5745-.1601.8737l.0085.7383-1.7066.0028c-.0935-.102-.2219-.1629-.3584-.1699-.5981.0009-1.0809 1.3376-1.0783 2.9855s.4896 2.983 1.0877 2.9821c.1042-.0117.2042-.0488.2914-.1083.0873-.0595.1593-.1396.2099-.2336l32.6348-.0537c.0501.073.1153.1336.1911.1777.0757.0441.16.0705.2469.0773.5981-.001 1.0809-1.3377 1.0783-2.9856s-.4895-2.983-1.0877-2.982z" fill="#e6cdb4"/><path d="m92.6346 39.0022c-.0868.0071-.1711.0338-.2467.0781-.0756.0444-.1406.1053-.1905.1784l-2.6461.0044v-.7182c-.0006-.5994-.2336-1.174-.6478-1.5979-.4142-.4238-.9758-.6622-1.5615-.6628h-24.0157c-.2924-.0003-.582.0589-.8519.1741-.2698.1151-.5146.284-.7202.4969-.2055.2128-.3677.4652-.4771.7427s-.1638.5745-.1601.8737l.0085.7383-1.7066.0028c-.0935-.102-.2219-.1629-.3584-.1699-.5981.0009-1.0809 1.3376-1.0783 2.9855s.4896 2.983 1.0877 2.9821c.1042-.0117.2042-.0488.2914-.1083.0873-.0595.1593-.1396.2099-.2336l32.6348-.0537c.0501.073.1153.1336.1911.1777.0757.0441.16.0705.2469.0773.5981-.001 1.0809-1.3377 1.0783-2.9856-.0025-1.6479-.4895-2.983-1.0877-2.982z" fill="#fff" opacity=".2"/><path d="m89.9461 76.7305c-.159.1522-.3503.2647-.5588.3287s-.4287.0778-.6433.0403c-.2146-.0376-.4178-.1254-.5938-.2566-.1759-.1313-.3198-.3024-.4203-.5l-1.3057-2.5652.5194-1.1517 2.7991 1.8331c.1811.1186.3333.278.4451.466.1117.188.18.3997.1996.6188s-.0099.4399-.0864.6456c-.0765.2056-.1979.3907-.3549.541z" fill="#ffb8b8"/><g fill="#3f3d56"><path d="m95.5861 91.6978c-.031-.2964-.169-.5702-.387-.7679s-.5003-.305-.7915-.3009c-.2654-.0018-.5236.0876-.7333.254-.2097.1663-.3587.4-.423.6634l-1.1563 5.7458c-.0382.168-.0581.3398-.0591.5123 0 1.2957 1.0597 2.1965 2.3717 2.1965 1.3119 0 2.3723-.9008 2.3723-2.1965-.0007-.2076-.0283-.4142-.082-.6144z"/><path d="m104.333 94.2677c-.118-.1055-.245-.2002-.378-.2828l-4.4178-3.159c-.4301-.2763-.8895-.2685-1.223.065-.1456.1418-.2381.3313-.2613.5356s.0243.4104.1342.5826l3.3359 4.4859c.076.1088.161.2108.254.3049.578.6612 1.86.6976 2.564 0 .696-.7093.687-1.9731-.008-2.5322z"/><path d="m107.652 89.5883h-4.474c-.143-.0056-.283.047-.389.1464-.105.0994-.168.2374-.175.3841-.002.1353.04.2674.119.3754.08.1079.193.1854.321.2201l4.22 1.336c.613.1463 1.439-.4128 1.439-1.111 0-.8881-.483-1.351-1.061-1.351z"/><path d="m86.3637 90.1145c-.0047-.0754-.024-.1492-.0568-.2169-.0329-.0677-.0786-.128-.1345-.1774s-.1209-.0869-.1911-.1103c-.0703-.0234-.1444-.0322-.218-.0259h-4.4739c-.5636 0-1.0388.6228-1.0388 1.321 0 .6983.8018 1.2899 1.4168 1.1436l4.284-1.336c.1285-.0306.2415-.1084.3175-.2187s.1098-.2453.0948-.3794z"/><path d="m89.4342 90.8308-4.4187 3.1453c-.1372.079-.2651.1739-.3812.2828-.3248.3092-.5164.7378-.5324 1.1915-.0161.4537.1446.8953.4468 1.2277.0275.0303.056.0595.0856.0877.3466.335.8053.5216 1.2821.5216s.9355-.1866 1.2821-.5216c.0944-.0925.1796-.1944.2541-.3043l3.338-4.4605c.1118-.1699.1605-.3752.1372-.5786-.0233-.2035-.1171-.3916-.2642-.5305-.1648-.1572-.3787-.2497-.6038-.2609-.225-.0112-.4467.0596-.6256.1998z"/><path d="m96.3075 84.6827c.0512-.0772.0797-.1678.0819-.2611 0-.5506-1.0603-.9333-2.3723-.9333-1.3119 0-2.3717.3827-2.3717.9333.0019.0764.0222.1512.0591.2177l1.1563 2.4419c.1325.2304.6102.3915 1.1563.3899.6156 0 1.1271-.1992 1.1785-.4542z"/><path d="m103.951 84.8494c-.705-.2965-1.987-.281-2.565 0-.087.0372-.172.0805-.254.1296l-3.3354 1.9064c-.2268.151-.1733.3509.1271.4752.3948.14.8225.1497 1.223.0277l4.4173-1.3426c.128-.0332.254-.0733.378-.1201.696-.2377.704-.7748.009-1.0762z"/><path d="m108.323 87.3405c0-.2967-.826-.5343-1.439-.4721l-4.221.5677c-.252.0362-.439.1202-.439.2531s.275.2255.564.2255h4.474c.578 0 1.061-.1967 1.061-.5742z"/><path d="m85.5609 87.4367-4.284-.5678c-.615-.0622-1.4168.1892-1.4168.486 0 .2967.4752.5614 1.0388.5614h4.4739c.3113 0 .6004-.0873.6004-.2254 0-.1382-.1334-.218-.4123-.2542z"/><path d="m90.2731 87.3596c.3126-.1263.3494-.3172.1271-.4714l-3.338-1.8956c-.0812-.0501-.1662-.0933-.2541-.1293-.8304-.2956-1.7339-.2956-2.5642 0-.0296.0119-.0581.0244-.0857.0372-.6292.2942-.5908.7545.0857 1.0282.1242.0488.2516.089.3812.1202l4.4187 1.3367c.4024.1223.8321.1132 1.2293-.026z"/></g><path d="m103.116 84.2872c0 7.0615-3.8456 7.1921-8.5899 7.1921-4.7442 0-12.5334-1.3969-8.5902-7.1921 4.1589-6.1123 11.2936-17.7629 8.5902-18.38 0 0 8.5899 11.3184 8.5899 18.38z" fill="#f9a825"/><path d="m97.5516 88.6338c0 2.7952-1.5224 2.8469-3.4003 2.8469-1.878 0-4.9612-.553-3.4003-2.8469 1.6462-2.4194 4.4704-7.0312 3.4003-7.2754 0 0 3.4003 4.4802 3.4003 7.2754z" fill="#ff6584" opacity=".5"/><path d="m89.8984 67.891v1.2627c-.0007.5757-.2157 1.1296-.6013 1.5489s-.9128.6726-1.4744.7083l-23.7241 1.4793c-.2988.0187-.5981-.0249-.8799-.1282s-.5401-.2642-.7592-.4728-.3945-.4606-.5155-.7408c-.121-.2801-.1851-.5825-.1884-.8888l-.0572-5.1892 14.3507-.238z" fill="#3f3d56"/><path d="m86.0297 74.1453-10.703-5.6884c-.0494-.0263-.0927-.063-.1271-.1077-.0345-.0447-.0592-.0964-.0726-.1516l-2.3218-9.5754c-.1347-.5556-.0619-1.1426.204-1.6462.266-.5036.706-.8876 1.2341-1.0767l.5593-.2003c.1247-.0446.257-.0626.3888-.0529.1317.0098.2601.0472.3772.1098s.2203.1492.3034.2543.1442.2265.1796.3568l2.2884 8.4302c.0214.0789.0659.1491.1275.2014l8.7205 7.3938c.0752.0638.1244.154.138.2531.0136.099-.0095.1996-.0647.2821l-.7276 1.0883c-.0541.0808-.1352.1386-.228.1625-.0929.0238-.1911.012-.276-.0331z" fill="#e6e6e6"/><path d="m78.9789 59.2485c-5.1911-2.7966-10.6249-4.201-16.4491-3.3665 1.7556-3.0448 3.0596-5.8597 2.9724-7.9671-.0375-.6772.0879-1.3534.3651-1.9695.2773-.6161.698-1.1532 1.2252-1.5643.8484-.6436 1.8766-.9909 2.9328-.9904.943-.4303 2.0115-.4738 2.985-.1215.4132.1592.7889.4058 1.1026.7237s.5584.7.718 1.1212c.1991.4936.6278.9261 1.2496 1.307.576.341 1.0452.8427 1.353 1.4465.4095.8341.4377 1.6738-.0991 2.5218 2.0101 2.1608 2.0157 5.4078 1.6445 8.8591z" fill="#2f2e41"/><path d="m71.6201 52.2502c2.0081 0 3.6361-1.6658 3.6361-3.7208 0-2.0549-1.628-3.7208-3.6361-3.7208-2.0082 0-3.6362 1.6659-3.6362 3.7208 0 2.055 1.628 3.7208 3.6362 3.7208z" fill="#ffb8b8"/><path d="m73.3516 56.591-4.2422.443c.2277-2.5381.3173-4.8802 0-6.6444h4.2422c-.8057 2.8089-.735 4.8109 0 6.2014z" fill="#ffb8b8"/><path d="m75.624 56.4943c-.0035.389-.0116.7737-.0243 1.1544-.0885 2.7242-.4235 5.1768-1.3364 6.9829-.1853.374-.4068.7279-.6612 1.0567-.0018.0033-.0041.0064-.0069.0089-.0175.0249-.0367.0486-.0573.071-.1867.2372-.3941.4565-.6196.6553l-1.7372 1.8647-.0798.0853-.5068.3463-2.6102 1.7795-6.2686-3.4471-.0069-.5985-.007-.6127c1.3936-2.021 2.2631-4.6493 2.815-7.6418.151-.8187.2794-1.6658.3888-2.536.0746-.602.1405-1.2165.1978-1.8399.0089-.1913.0722-.3759.1822-.531 0-.0002.0001-.0004.0002-.0006 0-.0003.0002-.0005.0003-.0006.0002-.0002.0004-.0003.0006-.0004s.0004-.0001.0007-.0001c.2672-.3481.7983-.341 1.4404-.3765.9008-.0498 1.7876-.5275 2.5842-.0764.0198.0093.0389.02.0572.032l2.3378 2.6568 1.0742-1.1846.0504-.055 2.2127.9696c.2263.1001.4096.2805.5162.5079.1065.2275.129.4868.0635.7299z" fill="#e6e6e6"/><path d="m70.6899 69.5536c.0001.453-.0835.9019-.2464 1.323l-.6422 1.6588-5.7028.3551c-.0607.0036-.1215.0054-.1805.0054-.5735-.0128-1.1196-.2532-1.5231-.6704s-.6327-.9786-.6393-1.5655l-.0399-3.6069-.007-.5985 2.0757.9004 2.0236-1.1117c.1103-.0483.2233-.0898.3384-.1243.1499-.0486.303-.086.4582-.1119h.0017c.0746-.0125.1493-.0231.2239-.0302.8577-.088 1.7171.1504 2.414.6695.4074.3019.7456.6909.991 1.1401.0188.0309.0356.0629.0503.0959.138.2646.2419.5464.3089.8383.0632.2729.0952.5524.0955.8329z" fill="#2f2e41"/><path d="m69.0661 58.9385.7586 3.5616 4.6089 4.0573-4.0688-4.2523z" fill="#000" opacity=".2"/><path d="m64.824 60.6211 1.3851 5.7584 4.0691 1.5062-3.8093-1.9491z" fill="#000" opacity=".2"/><path d="m75.9921 48.7499c-2.6799-1.2617-5.7097-1.6214-8.3977-.2658l.3463-3.1893 5.887-.9745z" fill="#2f2e41"/><path d="m97.5344 76.7762-19.706-3.4642.2416-1.2182z" fill="#3f3d56"/><path d="m81.1156 74.0723c-.159.1522-.3503.2647-.5588.3287-.2086.064-.4287.0778-.6433.0403-.2146-.0376-.4179-.1254-.5938-.2566-.1759-.1313-.3198-.3024-.4204-.5l-1.3056-2.5652.5194-1.1517 2.7991 1.8331c.1811.1186.3333.278.4451.466.1117.188.18.3996.1996.6188.0196.2191-.0099.4399-.0864.6456-.0765.2056-.1979.3907-.3549.541z" fill="#ffb8b8"/><path d="m77.1992 71.4871-10.703-5.6884c-.0494-.0263-.0927-.063-.1272-.1077-.0344-.0447-.0591-.0964-.0725-.1516l-2.3218-9.5753c-.1347-.5556-.0619-1.1427.204-1.6463.266-.5036.706-.8876 1.234-1.0767l.5594-.2003c.1247-.0447.257-.0626.3887-.0529.1318.0098.2602.0472.3773.1098s.2203.1492.3034.2543.1442.2265.1796.3568l2.2884 8.4302c.0214.0788.0659.1491.1275.2014l8.7204 7.3938c.0753.0638.1245.1541.1381.2531s-.0095.1996-.0647.2821l-.7276 1.0883c-.0541.0808-.1352.1386-.2281.1625-.0928.0238-.191.012-.2759-.0331z" fill="#e6e6e6"/><path d="m95.4104 77.4061c.0946.0189.1927-.0012.2728-.0559.0802-.0548.136-.1397.1553-.2364l.1974-1.0112c.019-.0968-.0005-.1974-.054-.2796-.0535-.0821-.1368-.1391-.2314-.1585l-2.8603-.5852c-.0946-.0191-.1928.0009-.273.0557-.0803.0548-.136.1398-.1551.2366l-.1975 1.0112c-.0093.048-.0094.0973-.0001.1453s.0277.0936.0542.1343c.0265.0406.0605.0756.1002.1028s.0843.0461.1311.0557z" fill="#e6e6e6"/></svg>