<svg fill="none" height="129" viewBox="0 0 626 129" width="626" xmlns="http://www.w3.org/2000/svg"><g fill="#111"><path d="m164.73 76.195h-14.96v19.805h-6.545v-58.82h21.505c6.403 0 11.135 1.5583 14.195 4.675s4.59 7.8767 4.59 14.28c0 13.3733-6.262 20.06-18.785 20.06zm-14.96-5.78h14.875c8.103 0 12.155-4.76 12.155-14.28 0-4.5333-.963-7.8483-2.89-9.945-1.927-2.1533-5.015-3.23-9.265-3.23h-14.875zm42.736 25.585v-42.5h6.29v5.78c4.93-3.4 10.115-5.6383 15.555-6.715v6.46c-2.38.4533-4.874 1.1617-7.48 2.125-2.55.9633-4.505 1.8133-5.865 2.55l-2.125 1.105v31.195zm26.684-21.335c0-7.7633 1.389-13.3733 4.165-16.83 2.777-3.4567 7.452-5.185 14.025-5.185 6.63 0 11.305 1.7283 14.025 5.185 2.777 3.4567 4.165 9.0667 4.165 16.83s-1.303 13.4017-3.91 16.915c-2.606 3.5133-7.366 5.27-14.28 5.27-6.913 0-11.673-1.7567-14.28-5.27-2.606-3.5133-3.91-9.1517-3.91-16.915zm6.545-.085c0 6.1767.737 10.5117 2.21 13.005 1.53 2.4933 4.675 3.74 9.435 3.74 4.817 0 7.962-1.2183 9.435-3.655 1.474-2.4933 2.21-6.8567 2.21-13.09s-.821-10.5117-2.465-12.835c-1.643-2.38-4.703-3.57-9.18-3.57-4.42 0-7.48 1.19-9.18 3.57-1.643 2.3233-2.465 6.6017-2.465 12.835zm72.873-39.61v61.03h-6.29v-2.89c-4.364 2.4933-8.67 3.74-12.92 3.74-2.267 0-4.25-.2833-5.95-.85s-3.287-1.5867-4.76-3.06c-3.06-3.06-4.59-8.6983-4.59-16.915 0-8.2733 1.36-14.2233 4.08-17.85 2.776-3.6833 7.338-5.525 13.685-5.525 3.286 0 6.771.3683 10.455 1.105v-18.785zm-24.99 53.38c.906 1.0767 1.87 1.8133 2.89 2.21s2.323.595 3.91.595c1.643 0 3.456-.255 5.44-.765 2.04-.5667 3.626-1.105 4.76-1.615l1.7-.765v-28.815c-3.627-.68-6.999-1.02-10.115-1.02-4.307 0-7.31 1.3883-9.01 4.165-1.7 2.72-2.55 6.97-2.55 12.75 0 6.5733.991 10.9933 2.975 13.26zm63.86-34.85h6.375v42.5h-6.375v-2.975c-4.25 2.55-8.443 3.825-12.58 3.825-5.78 0-9.633-1.5017-11.56-4.505-1.87-3.0033-2.805-8.5567-2.805-16.66v-22.185h6.375v22.1c0 6.1767.538 10.3133 1.615 12.41s3.513 3.145 7.31 3.145c1.87 0 3.768-.255 5.695-.765 1.927-.5667 3.4-1.105 4.42-1.615l1.53-.765zm34.531-.85c1.87 0 5.043.34 9.52 1.02l2.04.255-.255 5.185c-4.533-.51-7.877-.765-10.03-.765-4.817 0-8.103 1.1617-9.86 3.485-1.7 2.2667-2.55 6.5167-2.55 12.75 0 6.1767.793 10.4833 2.38 12.92 1.643 2.4367 5.015 3.655 10.115 3.655l10.03-.765.255 5.27c-5.27.7933-9.208 1.19-11.815 1.19-6.63 0-11.22-1.7-13.77-5.1-2.493-3.4-3.74-9.1233-3.74-17.17 0-8.1033 1.36-13.77 4.08-17 2.72-3.2867 7.253-4.93 13.6-4.93zm43.142 6.375h-13.515v20.315c0 4.8733.34 8.075 1.02 9.605.736 1.53 2.436 2.295 5.1 2.295l7.565-.51.425 5.27c-3.797.6233-6.687.935-8.67.935-4.42 0-7.48-1.0767-9.18-3.23s-2.55-6.2617-2.55-12.325v-22.355h-6.035v-5.525h6.035v-13.005h6.29v13.005h13.515zm3.789-5.525h6.8l9.945 36.975h3.145l10.285-36.975h6.545l-11.985 42.5h-12.75zm73.071 37.23 2.465-.255.17 5.015c-6.46.9067-11.985 1.36-16.575 1.36-6.12 0-10.455-1.7567-13.005-5.27-2.55-3.57-3.825-9.095-3.825-16.575 0-14.9033 5.922-22.355 17.765-22.355 5.724 0 10.002 1.615 12.835 4.845 2.834 3.1733 4.25 8.1883 4.25 15.045l-.34 4.845h-28.05c0 4.7033.85 8.1883 2.55 10.455s4.647 3.4 8.84 3.4c4.25 0 8.557-.17 12.92-.51zm-2.295-18.445c0-5.2133-.85-8.8967-2.55-11.05-1.643-2.1533-4.363-3.23-8.16-3.23-3.74 0-6.573 1.1333-8.5 3.4-1.87 2.2667-2.833 5.8933-2.89 10.88zm16.31 23.715v-42.5h6.29v5.78c4.93-3.4 10.115-5.6383 15.555-6.715v6.46c-2.38.4533-4.873 1.1617-7.48 2.125-2.55.9633-4.505 1.8133-5.865 2.55l-2.125 1.105v31.195zm24.312 0v-9.69h6.97v9.69zm32.114-37.655c-6.176 0-9.265 2.1533-9.265 6.46 0 1.9833.709 3.4 2.125 4.25 1.417.7933 4.647 1.6433 9.69 2.55 5.044.85 8.614 2.0683 10.71 3.655 2.097 1.5867 3.145 4.5617 3.145 8.925s-1.416 7.565-4.25 9.605c-2.776 2.04-6.856 3.06-12.24 3.06-3.513 0-7.65-.3967-12.41-1.19l-2.55-.425.34-5.525c6.46.9633 11.334 1.445 14.62 1.445 3.287 0 5.78-.51 7.48-1.53 1.757-1.0767 2.635-2.8333 2.635-5.27 0-2.4933-.736-4.165-2.21-5.015-1.473-.9067-4.703-1.7567-9.69-2.55-4.986-.7933-8.528-1.955-10.625-3.485-2.096-1.53-3.145-4.3633-3.145-8.5s1.445-7.1967 4.335-9.18c2.947-1.9833 6.602-2.975 10.965-2.975 3.457 0 7.792.3967 13.005 1.19l2.38.425-.17 5.44c-6.29-.9067-11.248-1.36-14.875-1.36zm55.067 32.385 2.465-.255.17 5.015c-6.46.9067-11.985 1.36-16.575 1.36-6.12 0-10.455-1.7567-13.005-5.27-2.55-3.57-3.825-9.095-3.825-16.575 0-14.9033 5.922-22.355 17.765-22.355 5.723 0 10.002 1.615 12.835 4.845 2.833 3.1733 4.25 8.1883 4.25 15.045l-.34 4.845h-28.05c0 4.7033.85 8.1883 2.55 10.455s4.647 3.4 8.84 3.4c4.25 0 8.557-.17 12.92-.51zm-2.295-18.445c0-5.2133-.85-8.8967-2.55-11.05-1.643-2.1533-4.363-3.23-8.16-3.23-3.74 0-6.573 1.1333-8.5 3.4-1.87 2.2667-2.833 5.8933-2.89 10.88z"/><path d="m59.3736 9c-2.5149 0-4.5974 1.7935-5.1867 4.193-.5213-.0154-1.0354-.0434-1.5603-.0434-12.6117 0-24.201 4.5515-33.2711 12.1467-.8942-.6736-1.9763-1.0807-3.1627-1.0807-2.965 0-5.3976 2.4936-5.3976 5.5331 0 1.2161.397 2.3253 1.0542 3.2421-7.40929 9.2975-11.8494 21.1775-11.8494 34.1056 0 14.3523 5.49145 27.3837 14.4217 37.0456-.6598 1.092-.8376 2.459-.9277 3.069 0 3.039 2.4326 5.533 5.3976 5.533 1.387 0 2.6249-.578 3.5844-1.47 8.5422 6.127 18.9406 9.726 30.1506 9.726 29.0489 0 52.6264-24.126 52.6264-53.9036 0-13.3599-4.749-25.5847-12.6082-35.0135 1.1361-1.8933 1.8133-4.1051 1.8133-6.484 0-6.8592-5.4533-12.4493-12.1447-12.4493-3.6457 0-6.9216 1.6593-9.1506 4.2794-2.688-1.17-5.4974-2.1508-8.3916-2.8529-.2594-3.7391-2.9099-5.413-5.3976-5.5761zm-6.747 6.8731c.5229 0 1.0413.0266 1.5603.0434.6033 2.379 2.6861 4.1499 5.1867 4.1499 1.9976 0 3.7476-1.1418 4.6808-2.8097 2.6161.6279 5.1511 1.4324 7.5904 2.4639-.9252 1.7556-1.476 3.7492-1.476 5.8788 0 6.859 5.4533 12.4492 12.1446 12.4492 3.3883 0 6.4807-1.4117 8.6868-3.7174 7.2079 8.8784 11.5538 20.3051 11.5538 32.7657 0 28.2823-22.337 51.1801-49.9274 51.1801-10.6721 0-20.5234-3.458-28.6326-9.294.1839-.554.2952-1.156.2952-1.772 0-3.039-2.4326-5.533-5.3976-5.533-.8857 0-1.7057.256-2.4458.649-8.50039-9.1734-13.747-21.5644-13.747-35.2304 0-12.262 4.21428-23.5171 11.2169-32.3335.6916.3323 1.4674.5186 2.2771.5186 2.965 0 5.3976-2.4935 5.3976-5.5329 0-.8301-.1819-1.6254-.506-2.3342 8.596-7.2 19.5683-11.5415 31.5422-11.5415zm53.9764 11.1092c-2.965 0-5.398 2.4935-5.398 5.5331 0 3.0394 2.433 5.5329 5.398 5.5329s5.397-2.4935 5.397-5.5329c0-3.0396-2.432-5.5331-5.397-5.5331zm-53.9764 9.6395c9.2315 0 17.4577 4.343 22.8977 11.1093-4.5572 0-9.1701 0-13.7049 0-.7067.0672-1.2895.7886-1.2233 1.5129.0663.7244.7697 1.3218 1.4763 1.2536 5.0812-.2333 10.381.3645 15.3917-.0868 3.0636 4.7921 4.8493 10.5222 4.8493 16.6855 0 2.4132-.2851 4.7527-.8012 7.0026-9.5714-.1762-19.525-.0869-27.7892-.0869-.7064.0686-1.2887.7889-1.2225 1.5131.0662.7241.7691 1.3212 1.4755 1.2535h26.7772c-.6316 1.9308-1.4261 3.7977-2.4036 5.533-6.6794 0-13.4897 0-19.229 0-.7064.0686-1.2888.7887-1.2226 1.513.0663.724.7691 1.3211 1.4756 1.2535h17.2048c-5.3969 7.5441-14.1098 12.4492-23.9518 12.4492-15.9557 0-28.9356-12.8742-29.6447-29.0482h21.5483c.7123.014 1.3668-.6529 1.3668-1.3832 0-.7304-.6545-1.3927-1.3668-1.3833h-21.5483c.0831-1.8919.313-3.7466.7169-5.533h26.229c.7123.014 1.3668-.6529 1.3668-1.3832s-.6545-1.3927-1.3668-1.3833h-25.4278c3.9375-12.0724 15.0175-20.7919 28.1266-20.7919zm52.6264 65.0562c-2.965 0-5.3973 2.493-5.3973 5.533 0 3.039 2.4323 5.533 5.3973 5.533s5.398-2.494 5.398-5.533c0-3.04-2.433-5.533-5.398-5.533z"/></g></svg>