<svg fill="none" height="110" viewBox="0 0 135 110" width="135" xmlns="http://www.w3.org/2000/svg"><g fill="#3f3d56"><path d="m129.688 96.21h-129.688v1.4515h129.688z"/><path d="m129.688 108.548h-129.688v1.451h129.688z"/><path d="m118.5 97.5444c-.077-.1286-1.905-3.2262-2.538-9.6585-.581-5.9012-.208-15.8482 4.874-29.7235 9.628-26.2858-2.218-47.4947-2.34-47.7059l.585-.3442c.031.0536 3.087 5.461 4.893 14.0715 2.386 11.4157 1.517 23.2852-2.505 34.2176-9.611 26.241-2.465 38.6632-2.392 38.7857z"/><path d="m114.736 8.91382c2.425 0 4.39-1.99542 4.39-4.45691 0-2.46148-1.965-4.45691-4.39-4.45691s-4.391 1.99543-4.391 4.45691c0 2.46149 1.966 4.45691 4.391 4.45691z"/><path d="m128.583 25.3699c2.425 0 4.391-1.9954 4.391-4.4569s-1.966-4.4569-4.391-4.4569-4.391 1.9954-4.391 4.4569 1.966 4.4569 4.391 4.4569z"/></g><path d="m119.126 36.3406c2.425 0 4.391-1.9954 4.391-4.4569s-1.966-4.4569-4.391-4.4569c-2.424 0-4.39 1.9954-4.39 4.4569s1.966 4.4569 4.39 4.4569z" fill="#e6cdb4"/><path d="m130.609 45.5974c2.425 0 4.391-1.9954 4.391-4.4569s-1.966-4.4569-4.391-4.4569c-2.424 0-4.39 1.9954-4.39 4.4569s1.966 4.4569 4.39 4.4569z" fill="#e6cdb4"/><path d="m115.749 59.9968c2.425 0 4.391-1.9954 4.391-4.4569s-1.966-4.4569-4.391-4.4569-4.391 1.9954-4.391 4.4569 1.966 4.4569 4.391 4.4569z" fill="#3f3d56"/><path d="m121.153 97.7098s-4.391-10.9709 8.781-19.1991z" fill="#3f3d56"/><path d="m115.753 97.5096s-1.998-11.6666-17.4638-11.5666z" fill="#3f3d56"/><path d="m21.5619 68.7102c3.5769 0 6.4765-2.9434 6.4765-6.5743s-2.8996-6.5744-6.4765-6.5744c-3.5768 0-6.4765 2.9435-6.4765 6.5744s2.8997 6.5743 6.4765 6.5743z" fill="#a0616a"/><path d="m22.7353 53.9589c-1.2386-.3087-2.5704-.3602-3.7703.0785-1.2358.4518-2.2531 1.3964-3.0013 2.4923s-1.2507 2.3431-1.7008 3.5957c-.2625.6831-.4657 1.3881-.6073 2.107-.1614.9584-.1303 1.9399.0914 2.8858.2217.9458.6294 1.8364 1.1987 2.6183-.1897-.5076.2878-1.061.8116-1.171.5237-.1099 1.0572.076 1.5737.2168.9101.2479 1.8509.3602 2.7928.3333.3608-.0103.7391-.0472 1.0392-.2509.9401-.6381.4425-2.2872 1.2248-3.1162.2791-.2959.6775-.4343 1.0374-.6199 1.2953-.6681 2.1489-2.0165 2.5519-3.4335.2526-.8882.8794-3.4394.3452-4.265-.4828-.7461-2.7669-1.2668-3.587-1.4712z" fill="#2f2e41"/><path d="m39.1853 54.8861c-.4784-.1706-.9853-.2436-1.4916-.215-.5062.0287-1.002.1584-1.4587.3819-1.6894.8043-4.677 2.7528-4.5634 6.4409.1579 5.1312 1.8955 8.4985 1.8955 8.4985l-.3159 10.4228-1.5796 18.9212s-7.7402 6.4136-4.7389 8.0176c3.0013 1.603 8.0561-7.6969 8.0561-7.6969l3.9491-10.7434 1.4216-10.4227s2.3695-10.9038 0-15.7143c0 0 2.7373-6.4413-1.1742-7.8906z" fill="#a0616a"/><path d="m58.0515 71.4365s-2.6854 11.5452 6.7924 14.7522 21.9568 8.6589 21.9568 8.6589l1.5797 2.7259 3.6331-4.9708-.6318-3.8484-6.1606-1.7639s-11.5313-8.9795-16.5861-9.6209l.6318-5.933z" fill="#a0616a"/><path d="m83.2951 62.1709 3.3476 5.5774s11.0575 6.414 13.9003 10.7435c2.844 4.3294 9.636 8.9796 9.636 8.9796l-3.001 7.2157s-8.5301-10.102-12.1632-11.0641c-3.6332-.9621-19.7454-14.1108-19.7454-14.1108z" fill="#a0616a"/><path d="m53.4813 42.6247c-1.233.1966-2.467.3935-3.6852.6692-2.8304.6408-5.552 1.7023-8.2088 2.8823-3.7181 1.6514-7.3293 3.5402-10.8121 5.655-.9393.5445-1.8355 1.1623-2.6805 1.8476-.5623.4754-1.0917 1.0204-1.3933 1.6972-.1915.4725-.3154.9705-.368 1.4786-.2449 1.7831-.2335 3.6231.2424 5.3574.4759 1.7342 1.4412 3.36 2.862 4.4375.376.2943.7936.5293 1.2387.6971.5987.1853 1.2186.2909 1.8441.3138 1.993.1609 4.0751.3084 5.9194-.4752 1.1721-.4979 2.1643-1.3397 3.2428-2.0215 4.5671-2.8877 10.3696-2.7647 15.3635-4.7978.4855-.1976.9799-.4281 1.3195-.8319.2571-.3464.4507-.7367.5718-1.1526.6314-1.7738 1.2627-3.5477 1.8941-5.3216.4001-1.1239.8004-2.2487 1.1362-3.3941.3512-1.1982.6311-2.4164.9108-3.6338.2407-1.0476.4885-2.1448.396-3.2278-.1365-1.5974-.5001-1.6623-1.9455-1.4311-2.6157.4185-5.2317.8357-7.8479 1.2517z" fill="#e6cdb4"/><path d="m34.4464 54.8861c-.4784-.1706-.9853-.2436-1.4915-.215-.5063.0287-1.0021.1584-1.4588.3819-1.6894.8043-4.677 2.7528-4.5634 6.4409.1579 5.1312 1.8955 8.4985 1.8955 8.4985l-.3159 10.4228-1.5796 18.9212s-7.7402 6.4136-4.7389 8.0176c3.0013 1.603 8.0561-7.6969 8.0561-7.6969l3.9491-10.7434 1.4216-10.4227s2.3695-10.9038 0-15.7143c0 0 2.7373-6.4413-1.1742-7.8906z" fill="#a0616a"/><path d="m61.8678 41.2965s14.0334-1.2898 13.4016 7.5295c-.6319 8.8192-5.3708 24.0524-5.3708 24.0524l-12.1631.6414s-1.5796-10.4227.6318-13.9504z" fill="#2f2e41"/><path d="m71.6363 44.1758s3.4751 2.2449 5.3707 6.7347 7.5822 13.309 7.5822 13.309l-9.3198 6.7347-6.9504-7.2158z" fill="#2f2e41"/><path d="m88.3803 94.2054s-3.0013 1.1224-.9478 3.3673c1.2614 1.3931 2.3248 2.9583 3.1593 4.6503 0 0-.6319 4.169 2.0535 4.009 2.6854-.161 3.7911-5.773 3.1592-7.6972-.6318-1.9242-1.4216-11.0641-1.4216-11.0641s-5.5287.4811-5.3708 1.2828c.158.8017.9478 4.8105-.6318 5.4519z" fill="#2f2e41"/><path d="m107.178 90.9986s-2.843 1.4431-2.054 2.7259c.79 1.2828 3.318 4.9709 3.318 4.9709s-.948 4.8106 1.737 5.2916c2.686.481 4.265-5.7727 3.791-7.0555s-.474-6.2536-.474-6.2536.158-4.9709-1.421-4.9709c-1.58 0-4.265.6414-4.265.6414s.632 4.4898-.632 4.6502z" fill="#2f2e41"/><path d="m19.7454 99.0752h-4.581v8.1158h4.581z" fill="#e6cdb4"/></svg>