<svg fill="none" height="110" viewBox="0 0 135 110" width="135" xmlns="http://www.w3.org/2000/svg" xmlns:xlink="http://www.w3.org/1999/xlink"><linearGradient id="a"><stop offset="0" stop-color="#808080" stop-opacity=".25"/><stop offset=".54" stop-color="#808080" stop-opacity=".12"/><stop offset="1" stop-color="#808080" stop-opacity=".1"/></linearGradient><linearGradient id="b" gradientUnits="userSpaceOnUse" x1="109.293" x2="109.293" xlink:href="#a" y1="24.3655" y2="19.3898"/><linearGradient id="c" gradientUnits="userSpaceOnUse" x1="45653.3" x2="45653.3" xlink:href="#a" y1="79959.6" y2="17029.2"/><path d="m115.462 103.158c10.06 0 18.214-1.427 18.214-3.1871 0-1.76-8.154-3.1867-18.214-3.1867-10.059 0-18.2132 1.4267-18.2132 3.1867 0 1.7601 8.1542 3.1871 18.2132 3.1871z" fill="#e6cdb4" opacity=".1"/><path d="m60.3159 98.7942c14.8924 0 26.965-.8686 26.965-1.9401 0-1.0714-12.0726-1.94-26.965-1.94s-26.9651.8686-26.9651 1.94c0 1.0715 12.0727 1.9401 26.9651 1.9401z" fill="#e6cdb4" opacity=".1"/><g fill="#000" opacity=".1"><path d="m62.3029 83.1438c.5884 1.0176 1.5107 1.6736 2.5495 1.6736 1.7741 0 3.2174-1.912 3.2174-4.2728s-1.4479-4.2573-3.2174-4.2573c-.835 0-1.5965.4239-2.168 1.1204-.2167.2665-.4004.5591-.5469.8711l-.0307.1854s-.6848.5953-1.6179.0484v-13.8408h-13.2864c-.1074-.1432-.1784-.3112-.2064-.489-.0281-.1778-.0125-.36.0455-.5301.0993-.3164.3136-.5823.5991-.7433 1.0004-.5984 1.647-1.5365 1.647-2.593 0-1.8045-1.8814-3.2725-4.201-3.2725s-4.2011 1.4633-4.2011 3.2725c0 .8492.4183 1.6253 1.1032 2.2065.2617.2196.5488.4059.8549.5548l.0184.0311c.2009.1978.3342.4558.3802.7363.0461.2805.0025.5686-.1244.822h-5.992v25.6308c0 1.6118.6295 3.1576 1.7501 4.2974 1.1205 1.1397 2.6403 1.78 4.2251 1.78h17.3924v-13.6008c.1418-.1369.318-.2311.5092-.2724s.3898-.0279.574.0386c.3089.0994.5687.3151.7262.6031z" opacity=".1"/><path d="m39.9419 64.1332h2.0806c-.5059-.3952-.9165-.9025-1.2008-1.4833s-.4348-1.2198-.4401-1.8685c0-2.4294 2.0837-4.3975 4.653-4.3975s4.6545 1.9681 4.6545 4.3975c-.0052.6487-.1557 1.2877-.44 1.8685s-.695 1.0881-1.2008 1.4833h12.4713v-13.6553c.1425-.1355.3188-.2289.5096-.27.1909-.0412.3892-.0287.5736.0363.3118.1001.574.3182.7323.6093.5868 1.0175 1.5091 1.6736 2.5494 1.6736 1.7742 0 3.2175-1.9121 3.2175-4.2713 0-2.3593-1.4371-4.2729-3.2175-4.2729-.8365 0-1.5979.4255-2.1694 1.1205-.2161.2669-.3997.5594-.547.871l-.0291.0187c-.2054.2181-.4776.3587-.7718.3986-.2943.0399-.5932-.0231-.8476-.1788v-13.8377h-12.7916c-.1074-.1431-.1783-.3111-.2064-.489-.0281-.1778-.0124-.3599.0456-.5301.0985-.3168.313-.5829.599-.7433 1.0005-.5968 1.6455-1.5365 1.6455-2.593 0-1.8045-1.8799-3.2724-4.1995-3.2724s-4.201 1.4632-4.201 3.2724c0 .8508.4182 1.6253 1.1016 2.2065.2624.2198.55.4066.8564.5563l.0184.0296c.2009.1978.3342.4559.3802.7363.0461.2805.0025.5686-.1243.822h-3.7016v-.7012h2.7333c-.5049-.3947-.9148-.901-1.1988-1.4807-.284-.5796-.4347-1.2173-.4406-1.8649 0-2.4294 2.0837-4.3991 4.6545-4.3991 2.5709 0 4.653 1.9697 4.653 4.3991-.0061.649-.1576 1.2881-.443 1.8686-.2853.5806-.6971 1.0873-1.204 1.4817h11.8126v-13.8221c.1421-.1367.3186-.2308.51-.272.1914-.0413.3902-.028.5747.0383.3112.1006.5727.3186.7308.6093.5868 1.0175 1.5107 1.6736 2.5494 1.6736 1.7742 0 3.2175-1.9121 3.2175-4.2729s-1.4372-4.2712-3.2175-4.2712c-.8365 0-1.598.4238-2.1694 1.1204-.2167.2664-.4004.559-.547.8711l-.0291.1854s-.6849.5953-1.6194.0483v-12.89177h-17.3848c-1.5848 0-3.1046.64029-4.2251 1.78001-1.1206 1.13973-1.7501 2.68552-1.7501 4.29734v6.57912h-.0904c-.0931 0-.1823.0376-.2481.1045s-.1028.1577-.1028.2523v3.1166c.0004.0945.0375.1851.1032.2519s.1547.1046.2477.105h.0904v3.182h-.118c-.0932 0-.1826.0376-.2486.1044-.0661.0669-.1034.1577-.1038.2525v5.9511c.0004.0948.0377.1855.1038.2524.066.0669.1554.1044.2486.1044h.118v2.3375h-.0966c-.093 0-.1823.0376-.248.1045-.0658.0669-.1028.1577-.1028.2523v1.9167h-.0766v4.0391c-.0002.0469.0087.0934.0263.1368.0175.0434.0434.0828.076.116s.0714.0595.114.0773c.0427.0179.0884.027.1345.0268h.1042v28.1022z" opacity=".1"/><path d="m85.4041 22.7602c0-.0948-.0369-.1857-.1026-.2529-.0658-.0672-.155-.1051-.2482-.1055h-.2115v-.3912h-.1149v-15.54395c.0002-.76745-.1482-1.52742-.4369-2.23649s-.7119-1.35335-1.2454-1.89602c-.5336-.54267-1.167-.9731-1.8642-1.26669-.6971-.293599-1.4443-.444608-2.1989-.444403h-17.2361v11.843053c.3937-.5315.9026-.9633 1.4873-1.262.5846-.2986 1.2291-.456 1.8833-.4599 2.4069 0 4.3588 2.1208 4.3588 4.7356s-1.9519 4.7357-4.3588 4.7357c-.6543-.0037-1.2988-.161-1.8835-.4597s-1.0936-.7306-1.4871-1.2622v13.1411h13.9421c-.5052-.3964-.9151-.9044-1.1989-1.4857-.2837-.5812-.4338-1.2204-.4389-1.8694 0-2.4324 2.0791-4.4037 4.6453-4.4037 1.1406-.0065 2.2465.3988 3.1209 1.1438.48.39.8675.885 1.1338 1.4481s.4046 1.18.4046 1.8048c0 .6249-.1383 1.2418-.4046 1.8049s-.6538 1.058-1.1338 1.4481v.1044h3.0259v-.0109h.5623z" opacity=".1"/><path d="m80.7756 63.4334v-1.5583c.0631-.0936.1209-.1909.1731-.2914.2052-.3797.3137-.8055.3156-1.2388-.0005-.2888-.0492-.5755-.144-.8477-.0836-.2425-.1996-.4722-.3447-.6826-.7063-1.0331-2.1021-1.7375-3.7108-1.7375-2.3211 0-4.201 1.4633-4.201 3.2725 0 .8508.4182 1.6253 1.1016 2.2065.2624.2198.55.4065.8564.5563l.0184.0296c.2007.1979.3338.456.3799.7364.046.2804.0026.5685-.124.8219h-13.5163v12.778c.3882-.5282.8913-.9578 1.4699-1.2552.5787-.2974 1.2172-.4544 1.8655-.4589 2.3886 0 4.3236 2.1193 4.3236 4.7326 0 2.6132-1.935 4.7341-4.3236 4.7341-.6483-.0045-1.2868-.1616-1.8655-.459-.5786-.2974-1.0817-.727-1.4699-1.2552v10.3144h15.5095c.9761 0 1.9123-.3938 2.6034-1.0949.691-.7011 1.0804-1.6523 1.0829-2.645v-25.3862 25.369c0 .9944-.3884 1.948-1.0797 2.6511-.6913.7032-1.6289 1.0982-2.6066 1.0982h-15.5095v2.4933h16.0871c1.5848 0 3.1046-.6403 4.2251-1.7801 1.1206-1.1397 1.7501-2.6855 1.7501-4.2973v-25.5342-.6701h-2.8665z" opacity=".1"/></g><path d="m43.832 93.2512c-.9777 0-1.9153-.395-2.6066-1.0981s-1.0797-1.6567-1.0797-2.6511v-25.4532h-2.8665v25.6262c0 1.6118.6295 3.1576 1.7501 4.2973 1.1205 1.1397 2.6404 1.78 4.2251 1.78h17.3924v-2.4933z" fill="#3a3768"/><path d="m61.7193 81.9177c.3117.0998.5735.318.7308.6093.5884 1.0176 1.5107 1.6736 2.5494 1.6736 1.7742 0 3.2175-1.912 3.2175-4.2728 0-2.3609-1.4417-4.2635-3.2113-4.2635-.835 0-1.5965.4238-2.1679 1.1204-.2168.2665-.4005.559-.547.8711l-.0306.1854s-.6849.5953-1.618.0483v-13.8408h-13.2864c-.1074-.1431-.1783-.3111-.2064-.4889-.0281-.1779-.0124-.36.0456-.5302.0992-.3164.3135-.5822.599-.7433 1.0005-.5984 1.647-1.5365 1.647-2.593 0-1.8045-1.8814-3.2724-4.201-3.2724s-4.201 1.4632-4.201 3.2724c0 .8493.4182 1.6253 1.1031 2.2066.2617.2195.5488.4058.8549.5547l.0184.0312c.2009.1977.3342.4558.3802.7363.0461.2804.0025.5686-.1244.822h-3.1254v25.4578c0 .9944.3883 1.948 1.0796 2.6511.6913.7032 1.6289 1.0982 2.6066 1.0982h16.8148v-11.0998c.1408-.1348.3151-.2279.5042-.2691s.3856-.029.5683.0354z" fill="#e6cdb4"/><path d="m37.2287 30.999h-.455v.7542h.455z" fill="#3a3768"/><path d="m40.0953 30.999h-2.4867v.7542h2.4867z" fill="#3a3768"/><path d="m37.6086 30.999h-.38v.7542h.38z" fill="#3a3768"/><path d="m37.1244 35.3952h.1042v-3.6432h-.4597v3.2864c-.0002.0473.0089.0942.0267.1379.0179.0437.0441.0833.0772.1166.0332.0332.0725.0594.1157.077.0431.0175.0894.0262.1359.0253z" fill="#3a3768"/><path d="m40.0952 31.752h-2.4866v3.2864c0 .047-.0091.0935-.0269.1369-.0177.0434-.0437.0828-.0764.116-.0327.0331-.0716.0594-.1143.0772-.0428.0179-.0886.0269-.1348.0267h-.0276v28.1148h2.8666z" fill="#3a3768"/><path d="m37.2286 35.3952h.0276c.0462.0002.092-.0088.1348-.0267.0427-.0178.0816-.0441.1143-.0772.0327-.0332.0587-.0726.0764-.116.0178-.0434.0269-.0899.0269-.1369v-3.2864h-.38z" fill="#3a3768"/><path d="m40.5348 60.1518c0-2.4294 2.0837-4.3975 4.653-4.3975 2.5694 0 4.6545 1.9681 4.6545 4.3975-.0043.6498-.1543 1.2901-.4387 1.872-.2843.5819-.6955 1.0902-1.2021 1.4861h12.4713v-13.6553c.1426-.1355.3188-.2289.5096-.2701.1909-.0412.3892-.0286.5736.0363.3118.1002.574.3183.7323.6093.5868 1.0176 1.5092 1.6736 2.5495 1.6736 1.7741 0 3.2174-1.912 3.2174-4.2713 0-2.3592-1.4371-4.2728-3.2174-4.2728-.8366 0-1.598.4254-2.1695 1.1204-.2161.267-.3997.5595-.547.8711l-.0291.0187c-.2054.2181-.4775.3586-.7718.3985-.2943.04-.5932-.0231-.8476-.1788v-13.8376h-12.7916c-.1074-.1432-.1783-.3112-.2064-.489s-.0124-.36.0456-.5302c.0985-.3167.313-.5828.599-.7433 1.0005-.5968 1.6455-1.5364 1.6455-2.593 0-1.8045-1.8799-3.2724-4.1995-3.2724s-4.201 1.4633-4.201 3.2724c0 .8509.4183 1.6253 1.1016 2.2066.2625.2197.55.4065.8564.5563l.0184.0296c.2009.1977.3342.4558.3803.7363.046.2805.0024.5686-.1244.822h-3.7016v31.7627h2.0806c-.5067-.3959-.9178-.9042-1.2022-1.4861-.2843-.5819-.4344-1.2222-.4387-1.872z" fill="#e6cdb4"/><path d="m37.6851 29.0307c0-.047-.0091-.0935-.0268-.1369s-.0437-.0828-.0765-.116c-.0327-.0332-.0716-.0594-.1143-.0773-.0428-.0178-.0885-.0269-.1347-.0267h-.0276v2.325h.3799z" fill="#3a3768"/><path d="m37.2915 12.7207h-.0766c-.0461 0-.0917.0092-.1343.0272-.0426.0179-.0812.0442-.1138.0773-.0326.0332-.0584.0725-.0761.1158-.0176.0433-.0267.0897-.0267.1366v3.1165c.0004.0946.0375.1851.1032.2519.0657.0669.1547.1046.2477.105h.0904v-3.8287z" fill="#3a3768"/><path d="m37.1872 19.7295c-.0932 0-.1826.0375-.2486.1044-.0661.0669-.1034.1577-.1038.2524v5.9512c.0004.0948.0377.1855.1038.2524.066.0669.1554.1044.2486.1044h.118v-6.6648z" fill="#3a3768"/><path d="m37.3052 28.7256h-.0996c-.0931 0-.1823.0376-.2481.1045s-.1028.1577-.1028.2523v1.9682h.4597z" fill="#3a3768"/><path d="m37.3053 6.14317v6.57913c.0905.0032.1762.0421.2391.1084.0629.0662.098.1548.098.2469v3.1166c-.0004.092-.0356.1803-.0984.2465s-.1483.1051-.2387.1088v3.182h.0536c.0461 0 .0917.0092.1343.0272.0426.0179.0812.0442.1138.0773s.0584.0725.0761.1158c.0176.0433.0267.0897.0267.1365v5.9512c0 .0946-.037.1854-.1028.2523s-.155.1045-.2481.1045h-.0567v2.3375h.0276c.0932 0 .1826.0375.2487.1044.066.0669.1033.1576.1037.2524v1.9603h2.4866v-24.73008c0-.9941.3882-1.9475 1.0791-2.65058.691-.70307 1.6282-1.09826 2.6056-1.09868h4.9962v.65137c0 .81872.3198 1.6039.889 2.18282.5692.57893 1.3412.90416 2.1461.90416h8.7897v-2.03825h-4.0463c-.1565-.00081-.3064-.06418-.4173-.17643-.1109-.11224-.174-.26437-.1756-.42351v-.1309c.0004-.15981.063-.31297.1741-.42597.1111-.11301.2617-.17668.4188-.17709h4.0386v-2.8703772h-17.3893c-1.584.0008261-3.1028.6412682-4.2226 1.7805672-1.1199 1.13929-1.7492 2.68422-1.7496 4.29522z" fill="#3a3768"/><path d="m37.6422 16.1926v-3.1166c.0001-.0921-.035-.1806-.0979-.2469s-.1486-.1052-.2391-.1084v3.8256c.0901-.0036.1754-.0423.2381-.1082.0628-.0659.0982-.1538.0989-.2455z" fill="#3a3768"/><path d="m37.7127 26.0375v-5.9512c0-.0468-.0091-.0932-.0267-.1365s-.0435-.0826-.076-.1158c-.0326-.0331-.0713-.0594-.1139-.0773-.0425-.018-.0882-.0272-.1342-.0272h-.0567v6.6648h.0536c.0463.0004.0923-.0085.1352-.0262.0429-.0178.082-.044.1149-.0772s.059-.0727.0768-.1161c.0178-.0435.027-.0902.027-.1373z" fill="#3a3768"/><path d="m41.1891 27.7001c0-2.4294 2.0836-4.399 4.6545-4.399s4.653 1.9696 4.653 4.399c-.0061.6491-.1576 1.2881-.443 1.8687-.2854.5805-.6972 1.0873-1.204 1.4817h11.8125v-13.8221c.1422-.1367.3187-.2308.5101-.2721.1913-.0412.3902-.028.5747.0383.3112.1007.5727.3187.7308.6093.5868 1.0176 1.5106 1.6736 2.5494 1.6736 1.7742 0 3.2174-1.912 3.2174-4.2728s-1.4371-4.2713-3.2174-4.2713c-.8365 0-1.598.4239-2.1695 1.1204-.2167.2665-.4004.5591-.5469.8711l-.0291.1855s-.6849.5952-1.6195.0483v-6.65395h-8.7851c-.8036-.00206-1.5736-.32821-2.1412-.9069-.5675-.5787-.8862-1.36271-.8862-2.18008v-.65136h-4.9931c-.4844.0002-.9639.09748-1.4113.28628-.4473.18881-.8537.46542-1.1959.81405-.3422.34862-.6135.76242-.7984 1.21774s-.2797.94323-.2791 1.43586v24.73016h2.6566c-.5054-.3952-.9157-.9023-1.1998-1.4828-.284-.5805-.4343-1.2192-.4395-1.8676z" fill="#e6cdb4"/><path d="m56.6281 2.93262c-.1571.00041-.3077.06408-.4188.17708-.1111.11301-.1737.26616-.1741.42598v.13557c.0004.15996.0629.31327.174.42653.111.11325.2616.17727.4189.17809h4.0386v-1.33858z" fill="#e6e8ec"/><path d="m83.9608 21.7601v9.2501h1.0342v-9.6225h-.5592c-.262 0-.475.1667-.475.3724z" fill="#3a3768"/><path d="m63.1242 0h-1.2256v2.80493h1.2256z" fill="#3a3768"/><path d="m63.1242 4.20703h-1.2256v2.02578h1.2256z" fill="#3a3768"/><path d="m63.1242 2.80469h-1.2256v1.40246h1.2256z" fill="#e6e8ec"/><path d="m85.2065 21.7783h-.288v9.2204h.6389v-8.862c0-.0948-.037-.1857-.1027-.2529-.0658-.0671-.155-.1051-.2482-.1055z" fill="#3a3768"/><path d="m63.1227 2.80493c.3264.0748.6129.67942.6129.67942v.13089s-.288.60306-.6129.59215v2.02579h6.9236c.8051-.00042 1.5771-.326 2.1463-.90517.5691-.57917.8888-1.36451.8888-2.18337v-.65137h5.2092c.9759.00206 1.9112.39782 2.6005 1.10043.6894.7026 1.0765 1.65466 1.0765 2.64727v18.15563c.48.3901.8675.885 1.1338 1.4481.2663.5632.4046 1.18.4046 1.8049s-.1383 1.2417-.4046 1.8048-.6538 1.0581-1.1338 1.4481v.1044h2.145v-9.1456c0-.0061.0012-.0121.0035-.0177.0023-.0055.0057-.0106.01-.0148s.0094-.0075.015-.0097c.0055-.0022.0115-.0032.0174-.003h.7201v-15.9725c.0002-.76745-.1482-1.52742-.4369-2.23649s-.7119-1.35335-1.2454-1.89602-1.167-.973094-1.8641-1.26669c-.6972-.293596-1.4444-.44460453-2.199-.44439979h-16.1621v2.80492979zm2.3197-.01402c.1475 0 .2918.0445.4145.12789s.2183.20191.2748.34058.0712.29126.0425.43847c-.0288.14721-.0999.28243-.2042.38856-.1044.10613-.2373.17841-.3821.20769-.1447.02928-.2947.01425-.4311-.04318-.1363-.05744-.2528-.15471-.3348-.27951s-.1258-.27152-.1258-.42162c0-.20127.0786-.39429.2186-.53661.1399-.14232.3297-.22227.5276-.22227z" fill="#3a3768"/><path d="m65.2615 10.1195c2.4069 0 4.3588 2.1208 4.3588 4.7356s-1.9519 4.7357-4.3588 4.7357c-.6543-.0037-1.2988-.161-1.8835-.4597s-1.0936-.7306-1.4871-1.2623v13.1411h13.9421c-.5052-.3963-.9151-.9044-1.1988-1.4856-.2838-.5812-.4339-1.2205-.439-1.8694 0-2.4325 2.0791-4.4037 4.6453-4.4037 1.1435-.0079 2.2524.3981 3.1286 1.1453v-18.15564c0-.9926-.3872-1.94466-1.0765-2.64727-.6894-.70261-1.6246-1.09836-2.6006-1.10043h-5.2091v.65137c0 .81886-.3197 1.60421-.8889 2.18338-.5691.57916-1.3411.90475-2.1462.90516h-8.1493v5.60983c.3928-.5307.9005-.9622 1.4837-1.2611.5832-.2988 1.2263-.4571 1.8793-.4623z" fill="#e6cdb4"/><path d="m63.1227 4.20715c.1574.0002.3088-.06117.4229-.17141.114-.11024.1821-.26089.1899-.42074v-.1309c-.0177-.16484-.0867-.31961-.197-.4418-.1102-.1222-.2559-.20544-.4158-.23761h-.1532v1.40246z" fill="#e6e8ec"/><path d="m65.5619 4.29552c.4068-.06715.683-.45697.6169-.87068-.066-.41371-.4492-.69464-.856-.62749-.4068.06716-.683.45697-.6169.87068.066.41371.4492.69464.856.62749z" fill="#e6e8ec"/><path d="m80.9287 62.8102v-1.5583c.3177-.4448.4887-.9805.4887-1.5302 0-.5498-.171-1.0855-.4887-1.5303z" fill="#3a3768"/><path d="m83.7953 63.4111h-2.8666v.6701h2.8666z" fill="#3a3768"/><path d="m79.7721 62.3178c-.2857.1608-.5001.4268-.5991.7433-.0582.1704-.074.3529-.046.531.0281.1781.0992.3464.2069.4897h1.5949v-.6701h-.6128c.2221-.1807.4273-.3821.6128-.6015v-1.5582c-.305.4364-.6997.8001-1.1567 1.0658z" fill="#e6cdb4"/><path d="m80.313 63.412h.6128v-.6015c-.1855.2194-.3907.4208-.6128.6015z" fill="#e6cdb4"/><path d="m81.4175 59.7246c-.0037-.5492-.1745-1.0837-.4888-1.5303v3.059c.3137-.4463.4843-.9802.4888-1.5287z" fill="#3a3768"/><path d="m83.7953 64.082v25.542c0 1.6118-.6295 3.1576-1.7501 4.2974-1.1205 1.1397-2.6403 1.78-4.2251 1.78h-16.0871v-2.4933h15.5095c.9777 0 1.9153-.395 2.6066-1.0981.6913-.7032 1.0797-1.6568 1.0797-2.6511v-25.3769z" fill="#3a3768"/><path d="m79.173 63.0611c.0989-.3165.3133-.5825.599-.7433.4569-.2653.8516-.6285 1.1568-1.0643v-3.059c-.7063-1.0331-2.1021-1.7375-3.7108-1.7375-2.3211 0-4.201 1.4633-4.201 3.2724 0 .8509.4182 1.6254 1.1016 2.2066.2624.2197.55.4065.8564.5563l.0184.0296c.2007.1979.3338.4559.3799.7364.046.2804.0026.5684-.124.8219h-13.5163v12.778c.3882-.5282.8913-.9578 1.4699-1.2552.5787-.2974 1.2172-.4545 1.8655-.4589 2.3886 0 4.3236 2.1193 4.3236 4.7325 0 2.6133-1.935 4.7341-4.3236 4.7341-.6483-.0044-1.2868-.1615-1.8655-.4589-.5786-.2974-1.0817-.727-1.4699-1.2552v10.3143h15.5095c.9761 0 1.9123-.3937 2.6033-1.0948.6911-.7011 1.0805-1.6523 1.083-2.6451v-25.3892h-1.5904c-.1084-.143-.1803-.311-.2092-.4892-.0289-.1781-.0139-.3607.0438-.5315z" fill="#e6cdb4"/><path d="m108.323 24.3655c.855-.3912 1.487-1.0503 1.703-1.8949.027-.1025.046-.2066.059-.3117.038-.0972.071-.1966.098-.2976.216-.8477-.022-1.725-.586-2.4746l-1.12 4.3632z" fill="url(#b)"/><path d="m134.176 22.7273c-.175-1.0425-3.411-3.3005-3.411-3.3005s-1.429-.7791-2.186-1.6798c-.484-.5735-.636-.5672-.682-.4893-.031-.0204-.067-.0327-.104-.0359-.031-.0218-.06-.042-.087-.0654.004-.044-.005-.0883-.027-.1267-.022-.0383-.055-.0687-.095-.0868-.036-.0218-.073-.0499-.11-.0764-.245-.4191-.332-1.0128-.361-1.5302-.037-.6529-.766-.4893-1.016-.4161-.172-.3272-.339-.6669-.497-1.0066.07-.1103.128-.2278.174-.3506.45-.9958.352-2.138.548-3.1914.141-.76203.435-1.55832.377-2.30007 0-.01714 0-.03584 0-.05454v.01091c-.016-.18582-.058-.36841-.124-.54229-.13-.33347-.357-.62331-.46-.9677-.164-.50333-.06-1.05808-.196-1.56764-.17-.64513-.706-1.14379-1.313-1.42896s-1.282-.38334-1.947-.46749c-1.663-.21192-3.429-.33815-4.946.37244-.139.08381-.298.12745-.459.12622-.15-.04202-.292-.10889-.42-.1979-.408-.2057-.92-.0748-1.284.19946-.365.27426-.613.67006-.854 1.0534-.24.38334-.504.77915-.881 1.03004-.442.30075-1.028.40204-1.378.80719-.157.19208-.256.4257-.285.67319 0 0 0-.00779 0-.01091-.002.02959-.002.05923 0 .08882v.07168.05766.1979c.049.38068.148.75286.295 1.10639.071.26381.21.5037.402.695.533.441 1.379.02493 2.022.27114.057.02026.11.04675.164.07168 0 .02494-.017.04987-.024.07636-.138.47612-.208.97002-.207 1.46632 0 2.9265 2.388 5.2982 5.334 5.2982.111 0 .22 0 .328-.0124.016.0576.033.1168.046.1729.164.6467.216 1.3174.154 1.9822l-.033-.2899c-.071-.0348-.146-.0635-.222-.0857-.213-.0722-.437-.1069-.662-.1028-.724-.0094-1.815.2867-2.98 1.7235 0 0-1.486.8399-1.922 1.0425-.036.022-.065.0546-.082.0935s-1.987 3.0527-2.192 4.2136-.46 2.4933-.46 2.4933-.496 1.5053-.816 2.1722c-.321.667-.613 1.3028-.641 1.5926-.027.2898.117.9256-.496 1.3308-.613.4051-.766 1.5053-.766 1.5053s-.307.293-.74.6638h-.016l1.602-6.2441.286.0733c.069.0173.141.0141.207-.0091.067-.0232.126-.0655.17-.1218.03-.0382.051-.0822.063-.1294l.323-1.2653.13-.5033.026-.1029.189-.7339-.638-.1559-.746-.1885-2.108-.5407.184-.7168.153-.6078.964-3.7617.153-.6062c-.613-.8072-1.589-1.4632-2.788-1.7671-2.314-.5843-4.554.3662-5.004 2.1224-.027.1024-.047.2066-.06.3117-.039.0963-.071.1952-.097.296-.078.305-.098.6222-.061.935.006.0509.014.1029.023.1558.092.4852.293.9423.587 1.3355.207.281.447.5348.715.7558l.011.0343c.114.189.183.4024.201.6233v.0966c-.052.094-.113.1818-.184.2618l-14.1351-3.5732-.1532.6062-3.1838 12.443c.4151-.3245.8813-.5748 1.3789-.7402.1955-.0658.3951-.1179.5976-.1558l.072-.0125c.5698-.0941 1.1525-.0698 1.7129.0717 1.7864.4519 3.0213 1.9993 3.2511 3.8193.0297.2299.0425.4617.0383.6935-.0044.2957-.0352.5904-.0919.8804-.7661 2.3655-3.1194 3.7945-5.4053 3.2163-.6406-.1643-1.2352-.477-1.7375-.9135s-.8987-.9852-1.1582-1.6031l-.1532.6077-3.2848 12.7703 12.5188 3.1664.1348-.6124h.0199c-.3707-.4671-.6396-1.009-.7886-1.5899-.1489-.5809-.1747-1.1874-.0755-1.7791 0-.0203.0123-.039.02-.0593.0153-.0451.0321-.0888.049-.1324.0857-.2132.1882-.4191.3064-.6155.0613-.1013.1256-.1995.1946-.2946.0429-.0592.0873-.1168.1333-.1729.2204-.2715.4719-.5153.7492-.7262l.0888-.0654c.1011-.0733.2053-.1434.3065-.2088.0628-.0374.1271-.0748.1915-.1091.7414-.3984 1.57-.5994 2.4084-.5844.4029.0055.8039.0578 1.1951.1558 1.2078.2952 2.263 1.041 2.955 2.0897.092.1406.176.2863.252.4363.225.4452.372.9274.433 1.4243.048.3967.038.7985-.03 1.1921-.298.8715-.867 1.6204-1.621 2.1333l-.1536.5859h.0169l-.023.0172-.1532.5843 2.8589.7231 4.049-15.7466c1.093-.1293 1.652-.6233 1.652-.695s1.313-.8118 2.041-1.0144c.361-.0998.78-.1714 1.112-.2431-.392 1.9806-.766 3.8957-.732 4.0079.01.0436.081-.0249.188-.1745-.01.0575-.015.116-.014.1745 0 .0296.042.0078.095-.053l-.007.0374s-2.274 4.4739-2.452 4.9866c-.177.5127.043 1.8247.743 2.2595.136.0873.257.1962.359.3226l-.083.1667c-.26.5376-.492 1.136-.45 1.5084.054.4714-.054.9474-.307 1.3464 0 0-1.968 6.188-1.924 7.9691s-.7 5.6893-.7 5.6893-.809 2.5182-.328 3.2351c.481.7168 1.028 3.8443 1.028 3.8443s.372.7168.349 1.3245c-.023.6078.351 1.7141.351 1.7141l1.226 4.4942s-.132 1.1952.328 2.0413c.459.8462.415.586.196 2.0632-.219 1.4773.263 2.8439 1.049 3.2724.307.1683.322.4254.227.6763-.201-.0794-.368.3429-.467.6841l-.101.0982.067.0171c-.043.1559-.067.2868-.067.2868s-2.055 1.7375-2.187 2.367c-.131.6296-1.575.9552-1.575.9552s-2.186.6078-2.757.9116c-.164.0757-.306.1931-.411.3408-.106.1477-.173.3208-.193.5023-.026.2862.001.5747.08.8508.217.8898 3.278.9771 4.749.7386 1.471-.2384 4.503-1.1079 4.503-1.1079s3.193-.3117 4.137-.695c.943-.3833.196-1.39.196-1.39s0-.0327 0-.0935c.023-.3631.089-1.6798-.138-2.0258-.17-.268-.166-.935-.141-1.3588.639-1.1687-.732-4.6749-.732-4.6749s.262-3.4282.087-3.93-.919-4.7559-.919-4.7559-.46-1.9323-.284-2.258-.11-1.2607-.11-1.2607-.749-1.0393-.682-1.3666c.067-.3272-.219-.9116-.219-.9116s2.231-3.3877 2.033-4.0173c-.198-.6295.089-1.6502.089-1.6502s.28-.48.613-1.055c.413-.7043.919-1.5473 1.085-1.8107.214-.335.73-1.7609 1.018-2.5821.123-.349.206-.589.206-.589s.349 6.389.655 7.0357c.307.6467.766 5.7984.766 5.7984.17.4572.245.9454.22 1.4336-.043.8025.7 4.2993.7 4.2993s.328 2.4746.109 3.126c-.22.6514-.043 5.454-.043 5.454s-1.203.935-1.51 1.6503c-.306.7152.043 2.6709.043 2.6709l.141.067c-.112.2716-.196.5548-.249.8446-.043.4129-.701 2.2813-.635 2.5415.066.2603-.283 1.0644-.328 1.4757-.044.4114-.589 1.0207-.634 1.2389-.069.1952-.149.3862-.24.5719-.119.2855-.214.5805-.284.8815-.219.914 2.383 1.065 2.383 1.065 3.848.717 4.548-2.2145 4.548-2.2145s.481-2.6055.656-2.805c.022-.037.035-.0781.04-.1208.005-.0426.001-.0858-.011-.1269-.1-.4433-.288-.8608-.554-1.2264-.123-.1449-.131-.5174-.111-.8508.112-.0111.222-.0319.33-.0624 1.552-.455.919-3.0838.919-3.0838s1.049-1.736 1.049-2.4092c0-.6731.373-2.7363.373-2.7363 1.334-2.4325.809-8.3385 1.028-8.8169s-.46-2.2579-1.007-3.062-.328-2.9748 0-3.6043c.328-.6296-.328-2.805-.328-2.805s.635-4.2074.613-4.865c-.021-.6576.547-2.5836.547-2.5836s.569-.9989.437-1.3027c-.132-.3039.436-1.0909.285-1.4337-.152-.3428.13-1.4118.415-2.0413.146-.3226.326-1.2108.46-2.0009.015-.0873.03-.1745.044-.2602.637.4098 1.226.7152 1.434.6326.391-.1558-.231-2.1816-.657-3.4438.073-.0561.104-.0982.073-.1169-.262-.1745.029-.9568.029-.9568 1.546-.9256 1.021-1.6206.526-2.0257-.495-.4052-.175-1.5583-.322-2.0258s.176-2.5759.438-4.1108c.055-.3335.052-.674-.007-1.0067.28-.4347.57-.8897.824-1.3105.873-1.4476 2.739-8.3384 2.739-8.3384l-.012-.0358c.183-.3662.319-.6639.392-.8618.566-1.4959-.484-6.015-.658-7.0606zm-13.587-3.9674.04-.0187v.0327zm-8.483 73.9176c-.096.0007-.19-.0184-.278-.0561z" fill="url(#c)"/><path d="m95.9083 42.4555c1.2609.4862 4.1917.5392 5.4937.5392h.641l.835-1.7297-.835-1.4414s-.766-.2151-1.784-.4021c-1.501-.2742-3.5556-.4893-4.5346.1278-1.6424 1.0332-1.4585 2.272.1839 2.9062z" fill="#fec2be"/><path d="m101.401 42.995h.64l.835-1.7297-.833-1.4414s-.766-.215-1.784-.402c.826.6171 2.812 1.9603 1.142 3.5731z" fill="#000" opacity=".1"/><path d="m115.231 21.7662-.368-.4332s-1.898 3.0543-2.097 4.2074-.46 2.4777-.46 2.4777-.481 1.4991-.793 2.1613c-.313.6623-.595 1.2965-.622 1.5848-.028.2883.113.9225-.483 1.3261s-.735 1.4991-.735 1.4991-2.155 2.1318-3.288 2.1816c-1.134.0499-4.391.6342-4.278 1.2108s-1.359.921-1.955 1.0659c-.5959.1449 3.83 1.8699 1.247 4.0921 0 0 1.643.3459 1.813.7479.17.4021 1.898-.229 1.898-.229s.369-.8945 1.644-.9521c1.275-.0577 1.926-.6343 1.926-.72s1.274-.8072 1.991-1.0082c.718-.201 1.643-.2883 1.672-.4908.029-.2026 4.25-18.7292 4.25-18.7292z" fill="#4c4981"/><path d="m115.231 21.7662-.368-.4332s-1.898 3.0543-2.097 4.2074-.46 2.4777-.46 2.4777-.481 1.4991-.793 2.1613c-.313.6623-.595 1.2965-.622 1.5848-.028.2883.113.9225-.483 1.3261s-.735 1.4991-.735 1.4991-2.155 2.1318-3.288 2.1816c-1.134.0499-4.391.6342-4.278 1.2108s-1.359.921-1.955 1.0659c-.5959.1449 3.83 1.8699 1.247 4.0921 0 0 1.643.3459 1.813.7479.17.4021 1.898-.229 1.898-.229s.369-.8945 1.644-.9521c1.275-.0577 1.926-.6343 1.926-.72s1.274-.8072 1.991-1.0082c.718-.201 1.643-.2883 1.672-.4908.029-.2026 4.25-18.7292 4.25-18.7292z" fill="#000" opacity=".05"/><path d="m119.644 101.73c3.739.714 4.42-2.2049 4.42-2.2049s.467-2.593.637-2.7878c.021-.0368.035-.0776.04-.12.005-.0423.001-.0853-.011-.1262-.098-.4396-.281-.8549-.539-1.2217-.233-.2805-.043-1.4476-.043-1.4476l-4.334-1.1236s-.383.8852-.425 1.2965c-.041.4114-.68 2.2689-.613 2.5292.068.2602-.275 1.058-.318 1.4694s-.573 1.016-.613 1.2311c-.067.1947-.145.3852-.235.5703-.115.2843-.207.5783-.275.8773-.219.907 2.309 1.058 2.309 1.058z" fill="#ca8496"/><path d="m119.644 101.73c3.739.714 4.42-2.2048 4.42-2.2048s.467-2.593.637-2.7878c.021-.0368.035-.0777.04-.12.005-.0424.001-.0853-.011-.1262l-.901 2.6242s-.743 1.5766-3.505 1.3406c-1.572-.136-2.346-.432-2.721-.6628-.115.2848-.207.5778-.276.8778-.211.908 2.317 1.059 2.317 1.059z" fill="#000" opacity=".1"/><path d="m122.555 97.6239s-.935.0219-.999-.7557z" fill="#000" opacity=".1"/><path d="m93.4814 55.209.5929.1543-.1302.6124-.5501-.1418z" fill="#e6cdb4"/><path d="m93.4814 55.209.5929.1543-.1302.6124-.5501-.1418z" fill="#000" opacity=".1"/><path d="m111.078 26.6949-.182.7309.619.1603.183-.7309z" fill="#3a3768"/><path d="m108.299 25.9751-.183.731 2.053.5315.183-.7309z" fill="#3a3768"/><path d="m110.351 26.5083-.183.731.726.1879.183-.7309z" fill="#3a3768"/><path d="m108.331 25.8801c-.049.0234-.097.0483-.144.0686l.119.0311-.184.7309-.908-.2353c-.069-.1657-.097-.3462-.08-.5254.016-.1792.076-.3515.173-.5015.173-.2839.448-.4884.766-.5704.195-.0569.385-.1287.569-.215z" fill="#e6cdb4"/><path d="m110.498 29.0359.278.0733c.044.0116.091.0142.137.0075s.09-.0225.129-.0465c.04-.0241.075-.0558.102-.0936.028-.0377.048-.0805.059-.1261l.31-1.2591-.613-.1559z" fill="#3a3768"/><path d="m110.287 22.7775c-.211.8415-.826 1.4976-1.656 1.8856l1.088-4.3477c.551.7465.782 1.6207.568 2.4621z" fill="#3a3768"/><path d="m110.112 28.9362c-.089-.0235-.167-.0823-.214-.1635s-.061-.1782-.038-.2697l.315-1.2607-2.053-.5314-6.261 25.0169c.455.9014.57 1.941.325 2.9231-.246.9822-.836 1.839-1.66 2.4094l-.146.5828 2.778.7246 7.341-29.3256z" fill="#3a3768"/><path d="m109.86 28.5028c-.023.0916-.009.1886.038.2698s.124.14.214.1635l.386.0997.402-1.6051-.725-.1885z" fill="#3a3768"/><path d="m107.306 25.4486c.174-.283.448-.4872.766-.5704.194-.0573.383-.1292.567-.215l1.089-4.3477c-.682-.8809-1.637-1.5006-2.71-1.7577-2.248-.5828-4.427.3631-4.863 2.1115-.207.8243.01 1.6798.533 2.4153.2.2789.433.5317.694.7527l.011.0343c.147.2429.214.5276.19.8122-.023.2845-.136.5537-.322.7679l-13.737-3.5576-3.0995 12.3853c.5027-.4141 1.0926-.7046 1.7237-.8489s1.2865-.1386 1.9151.0168c2.315.5999 3.677 3.14 3.0427 5.6722s-3.0182 4.1014-5.3332 3.5093c-.6274-.1682-1.2079-.4818-1.6962-.9162-.4883-.4345-.871-.978-1.1183-1.588l-3.1822 12.7094 12.168 3.1493c-.3947-.5095-.6699-1.1039-.8048-1.7379-.1348-.6341-.1258-1.291.0265-1.9209.5899-2.3531 3.0857-3.74 5.5769-3.0948.665.1656 1.2873.4742 1.8253.9051s.978.9741 1.292 1.5928l6.262-25.0168-.899-.2353c-.071-.1649-.1-.3449-.086-.524.015-.1792.073-.352.169-.5029z" fill="#e6cdb4"/><path d="m108.304 25.9796.027-.0997c-.048.0234-.095.0483-.144.0701z" fill="#e6cdb4"/><g fill="#000" opacity=".1"><path d="m111.082 26.6999-.724-.1886-2.052-.5314.026-.0997.307-1.217c-.184.0863-.374.1581-.569.215-.318.082-.593.2865-.766.5704-.045.0784-.083.1608-.113.2462.03-.0854.067-.1678.112-.2462.174-.283.448-.4872.766-.5704.194-.0573.383-.1292.566-.215l1.09-4.3477c-.682-.8809-1.638-1.5006-2.711-1.7577-2.247-.5828-4.426.3631-4.862 2.1115-.207.8243.01 1.6798.533 2.4153.2.2789.433.5317.694.7527l.011.0343c.147.2429.214.5276.19.8122-.023.2845-.136.5537-.322.7679l-13.7371-3.5576-3.0994 12.3853c.503-.4145 1.0934-.7053 1.7251-.8497.6317-.1443 1.2876-.1383 1.9167.0176 2.315.5999 3.677 3.14 3.0427 5.6722s-3.0182 4.1014-5.3332 3.5093c-.6274-.1682-1.2079-.4818-1.6962-.9162-.4883-.4345-.871-.978-1.1183-1.588l-3.1822 12.7094 12.168 3.1493c-.3947-.5095-.6699-1.1039-.8048-1.7379-.1348-.6341-.1258-1.291.0265-1.9209.5899-2.3531 3.0857-3.74 5.5769-3.0948.665.1656 1.2873.4742 1.8253.9051s.978.9741 1.292 1.5928c.456.9015.571 1.9411.326 2.9232-.246.9821-.836 1.839-1.66 2.4093l-.146.5828 2.778.7246 7.34-29.3255.278.0732c.045.0117.091.0143.137.0076s.09-.0225.129-.0466c.04-.024.075-.0558.102-.0935.028-.0377.048-.0806.059-.1261l.31-1.2654.182-.7308zm-2.825-.7792c-.023.0109-.046.0234-.069.0328zm-1.042.5595.909.2353z" opacity=".1"/><path d="m110.287 22.7775c.21-.8414-.022-1.7141-.568-2.4621l-1.088 4.3477c.835-.388 1.449-1.0456 1.656-1.8856z" opacity=".1"/></g><path d="m111.229 26.0923-.183.7309.619.1603.183-.7309z" fill="#3a3768"/><path d="m108.449 25.3726-.183.7309 2.054.5316.183-.7309z" fill="#3a3768"/><path d="m110.502 25.9029-.183.7309.726.1879.183-.7309z" fill="#3a3768"/><path d="m108.482 25.2758-.144.0702.118.0296-.182.7355-.909-.2353c-.07-.1654-.098-.346-.082-.5253.016-.1794.076-.3518.174-.5016.174-.2834.448-.4877.766-.5704.194-.0569.384-.1288.567-.215z" fill="#e6cdb4"/><path d="m110.649 28.433.278.0717c.045.0123.093.0155.139.0091.046-.0063.091-.022.131-.0461s.075-.0561.103-.0942.048-.0814.059-.1275l.316-1.2591-.613-.1558z" fill="#3a3768"/><path d="m110.44 22.1746c-.21.8399-.824 1.496-1.656 1.884l1.089-4.3477c.549.7465.78 1.6207.567 2.4637z" fill="#3a3768"/><path d="m110.264 28.3325c-.045-.0116-.087-.0321-.123-.0603-.037-.0281-.068-.0634-.092-.1038-.023-.0404-.039-.0851-.045-.1315-.007-.0465-.004-.0938.007-.1392l.307-1.2591-2.044-.5282-6.26 25.0137c.456.901.572 1.9407.326 2.9228s-.836 1.8387-1.661 2.4081l-.145.5828 2.779.7199 7.339-29.3255z" fill="#3a3768"/><path d="m110.011 27.8978c-.011.0454-.014.0927-.007.1391.006.0465.022.0912.045.1316s.055.0756.091.1038c.037.0281.079.0486.124.0602l.385.0998.404-1.6066-.726-.187z" fill="#3a3768"/><path d="m107.457 24.8435c.174-.2834.448-.4877.766-.5704.194-.0569.384-.1288.567-.215l1.088-4.3477c-.681-.8807-1.636-1.5004-2.709-1.7577-2.249-.5813-4.426.3631-4.864 2.113-.205.8228.011 1.6783.535 2.4138.2.2794.433.5327.694.7542l.01.0328c.147.243.214.5277.19.8121-.023.2844-.136.5536-.321.768l-13.7388-3.556-3.1041 12.3837c.5036-.4152 1.0948-.7062 1.7274-.8503s1.2894-.1374 1.919.0197c2.3135.5984 3.6771 3.1384 3.0428 5.6722s-3.0198 4.0999-5.3409 3.5015c-.6265-.1692-1.2061-.4835-1.6935-.9181-.4874-.4347-.8695-.978-1.1164-1.5876l-3.1806 12.7094 12.1664 3.1509c-.3944-.5097-.6694-1.1042-.804-1.7382s-.1253-1.2909.0272-1.9207c.5883-2.3546 3.0857-3.7399 5.5769-3.0947.6662.1656 1.2896.4751 1.8276.9074.539.4324.979.9775 1.292 1.5983l6.26-25.0137-.909-.2353c-.07-.1663-.098-.3476-.082-.5276.016-.1801.076-.3533.174-.504z" fill="#e6cdb4"/><path d="m108.456 25.3767.025-.1013c-.048.0234-.095.0483-.143.0701z" fill="#e6cdb4"/><path d="m106.304 72.0809c.459.7122.998 3.8256.998 3.8256s.362.7122.341 1.3183c-.022.6062.34 1.7142.34 1.7142l1.19 4.4738s-.129 1.189.319 2.0258c.447.8368.403.5828.191 2.0523-.211 1.4695.255 2.8314 1.019 3.2724.765.441-.34 1.4477-.34 1.4477s4.888 1.3401 5.908.5189-.532-4.8853-.532-4.8853.256-3.4142.086-3.9113-.893-4.7325-.893-4.7325-.446-1.9245-.276-2.2487c.17-.3241-.106-1.2466-.106-1.2466s-.723-1.0378-.658-1.3619c.064-.3242-.213-.907-.213-.907s2.163-3.3815 1.971-4.0157c-.191-.6342.085-1.6424.085-1.6424l.603-1.0503c.403-.7012.89-1.5412 1.054-1.803.209-.3334.711-1.7515.992-2.5696l.199-.5859s.34 6.3547.637 7.003c.297.6482.743 5.7657.743 5.7657.166.4556.238.9407.213 1.4258-.043.7994.68 4.2791.68 4.2791s.319 2.4636.106 3.1166c-.213.6529-.043 5.4259-.043 5.4259s-1.169.935-1.466 1.6425c-.297.7074.043 2.6491.043 2.6491s3.4 1.7297 4.903 1.2762.891-3.0698.891-3.0698 1.021-1.7282 1.021-2.3982c0-.6701.371-2.7162.371-2.7162 1.296-2.42.786-8.2979.998-8.7731.213-.4753-.447-2.2487-.977-3.0481s-.319-2.9607 0-3.584c.319-.6234-.328-2.7909-.328-2.7909s.613-4.1934.595-4.8417c-.019-.6482.531-2.5711.531-2.5711s.552-.9942.425-1.2981c-.128-.3039.424-1.0799.275-1.4258-.148-.346.129-1.4025.405-2.0258.141-.321.317-1.2061.46-1.99.13-.7464.226-1.4024.226-1.4024l-3.507-2.8751-8.754-2.3374-3.293-1.0799-3.209 5.1423c-.227.3751-.435.7615-.624 1.1579-.253.5345-.478 1.1297-.438 1.5006.053.4681-.052.9407-.297 1.3401 0 0-1.914 6.1584-1.871 7.9317.043 1.7734-.68 5.6613-.68 5.6613s-.786 2.5058-.314 3.221z" fill="#ceddf9"/><path d="m119.244 21.9818c.134-.0561 9.378-3.9394 8.104-4.7107-.755-.4582-1.685-2.3998-2.322-3.9191-.445-1.0612-.746-1.9167-.746-1.9167s-7.419-1.3402-4.764 3.2849c.419.7094.734 1.4768.936 2.2782.757 3.1509-1.147 4.9258-1.208 4.9834z" fill="#fec2be"/><path d="m119.516 14.7202c.419.7094.734 1.4768.936 2.2782.942-.0666 1.847-.3934 2.619-.9452.772-.5517 1.381-1.3074 1.762-2.1854.073-.1682.138-.3404.193-.5158-.445-1.0612-.746-1.9167-.746-1.9167s-7.419-1.3402-4.764 3.2849z" fill="#000" opacity=".1"/><path d="m114.905 11.5646c0 1.3342.498 2.6186 1.393 3.5942.895.9755 2.12 1.5698 3.428 1.6628 1.309.0931 2.604-.322 3.623-1.1615 1.02-.8394 1.688-2.0408 1.871-3.362.183-1.3211-.133-2.66366-.885-3.75693s-1.883-1.85594-3.166-2.1342c-1.283-.27827-2.622-.05144-3.747.63474-1.125.68619-1.952 1.78069-2.315 3.06279-.134.4747-.202.9662-.202 1.4601z" fill="#fec2be"/><path d="m109.904 52.424c.542.5018.751 1.457.751 1.457s2.551 1.7718 2.381.6483c-.17-1.1236 1.317-5.6629 1.317-5.6629l-.17 6.1818s8.159-.3896 8.755-.9942 4.08-1.764 4.08-1.764 1.072.8711 2.047 1.5318c.13-.7464.226-1.4025.226-1.4025l-3.507-2.875-8.754-2.3375-3.293-1.0798-3.209 5.1423c-.227.374-.435.7594-.624 1.1547z" fill="#000" opacity=".1"/><path d="m109.636 51.9362c.68.4316.934 1.5988.934 1.5988s2.55 1.7717 2.38.6482 1.317-5.6628 1.317-5.6628l-.17 6.1817s8.16-.3864 8.753-.9942c.593-.6077 4.08-1.7717 4.08-1.7717s3.018 2.4636 3.57 2.247-.977-4.4084-.977-4.4084l-1.571-24.5509s.425-7.3053-.213-7.5655c-.098-.0405-.189-.098-.268-.1699-.42-.3833-.545-1.1625-.582-1.817-.041-.7791-1.062-.3895-1.062-.3895l.595.7791-5.266 3.2568-.046.0281c-.205-.1099-.417-.2072-.633-.2914-.46-.1823-1.086-.3537-1.492-.1839-.227.1174-.42.2937-.558.5111-.3.4591-.541.9556-.717 1.4773l-1.907 3.2833s-.978 4.3632-.978 4.5393-.297 4.1498-.637 4.5814c-.34.4317-.681 2.593-.553 3.2413.127.6482-.213 3.0698-.213 3.0698-1.402 1.1672-2.124 5.1424-2.124 5.1424s-2.215 4.4567-2.39 4.9709c-.175.5143.048 1.8232.728 2.2487z" fill="#fff"/><path d="m121.156 19.4892c.516.7792 2.008 1.87 2.008 1.87l4.307-3.701c-.42-.3833-.545-1.1625-.582-1.8185-.041-.7791-1.062-.388-1.062-.388l.124.1558c.059.0777.102.1672.125.2627.022.0955.025.1948.008.2914-.018.0966-.055.1884-.11.2694-.055.0809-.126.1492-.208.2003z" fill="#000" opacity=".1"/><path d="m121.156 19.3166c.516.7791 2.008 1.8699 2.008 1.8699l4.307-3.7009c-.42-.3834-.545-1.1625-.582-1.817-.041-.7791-1.062-.3896-1.062-.3896l.124.1559c.059.0775.102.1669.125.2622.022.0954.025.1946.008.2911-.018.0965-.055.1882-.11.269s-.126.1489-.208.1999z" fill="#fff"/><path d="m119.164 19.899c.556.6763 1.345 1.4445 1.308 1.0596-.036-.3849.471-1.2342.794-1.6144-.505-.1628-1.049-.1474-1.544.0436-.228.1169-.42.2933-.558.5112z" fill="#000" opacity=".1"/><path d="m119.08 19.6389c.556.6778 1.343 1.4445 1.307 1.0612-.037-.3834.418-1.0082.741-1.3885-.459-.1823-1.085-.3537-1.492-.1823-.227.1164-.419.2924-.556.5096z" fill="#fff"/><path d="m120.472 23.2358c.188 0 .341-.1549.341-.3459 0-.1911-.153-.346-.341-.346-.187 0-.34.1549-.34.346 0 .191.153.3459.34.3459z" fill="#ff718d"/><path d="m117.894 32.5718c.188 0 .34-.1549.34-.346 0-.191-.152-.3459-.34-.3459s-.34.1549-.34.3459c0 .1911.152.346.34.346z" fill="#ff718d"/><path d="m114.977 42.0239c.188 0 .34-.1549.34-.3459 0-.1911-.152-.346-.34-.346s-.34.1549-.34.346c0 .191.152.3459.34.3459z" fill="#ff718d"/><path d="m114.891 52.31c.188 0 .34-.1548.34-.3459s-.152-.3459-.34-.3459-.34.1548-.34.3459.152.3459.34.3459z" fill="#ff718d"/><path d="m118.971 27.644c.188 0 .34-.1549.34-.3459 0-.1911-.152-.346-.34-.346s-.34.1549-.34.346c0 .191.152.3459.34.3459z" fill="#ff718d"/><path d="m116.676 37.2397c.188 0 .34-.1548.34-.3459s-.152-.3459-.34-.3459-.34.1548-.34.3459.152.3459.34.3459z" fill="#ff718d"/><path d="m114.438 46.6626c.187 0 .34-.1549.34-.346 0-.191-.153-.3459-.34-.3459-.188 0-.341.1549-.341.3459 0 .1911.153.346.341.346z" fill="#ff718d"/><path d="m114.948 53.4634c.188 0 .34-.1549.34-.346 0-.191-.152-.3459-.34-.3459s-.34.1549-.34.3459c0 .1911.152.346.34.346z" fill="#ff718d"/><path d="m127.471 17.6956s-.057-.5189.679.3755c.735.8945 2.125 1.6705 2.125 1.6705s3.145 2.2486 3.315 3.2849 1.189 5.5335.651 7.031c-.537 1.4976-4.65 8.6751-4.65 8.6751s1.073 1.298.823 2.8251c-.25 1.5272-.567 3.6309-.426 4.0921.141.4613-.17 1.6129.307 2.0165.476.4036.991 1.0908-.511 2.0164 0 0-.283.7791-.029.9521.255.173-3.767 1.9588-5.362 1.0082-1.595-.9505-4.443-8.5581-4.504-10.2582-.062-1.7001.877-7.324 1.388-8.6454.51-1.3215 2.04-6.4841 2.692-7.6357.651-1.1516 3.502-7.4081 3.502-7.4081z" fill="#000" opacity=".1"/><path d="m127.64 17.6956s-.057-.5189.68.3755c.737.8945 2.125 1.6705 2.125 1.6705s3.145 2.2486 3.315 3.2849 1.189 5.5335.652 7.031c-.538 1.4976-4.647 8.6751-4.647 8.6751s1.072 1.298.822 2.8251c-.249 1.5272-.567 3.6309-.426 4.0921.141.4613-.17 1.6129.307 2.0165.476.4036.991 1.0908-.51 2.0164 0 0-.284.7791-.029.9521.254.173-3.768 1.9588-5.363 1.0082-1.595-.9505-4.443-8.5581-4.504-10.2582s.878-7.324 1.388-8.6454c.51-1.3215 2.041-6.4841 2.692-7.6357s3.498-7.4081 3.498-7.4081z" fill="#4c4981"/><path d="m128.773 22.6016s-2.436 2.7379-2.351 4.5533c0 0-.028-2.9405 2.351-4.5533z" fill="#000" opacity=".1"/><path d="m125.403 27.0977c0 .0857-1.644 6.3095-1.558 7.0886.085.7792-.483 3.0823-.483 3.0823l-.766-.201s.594-3.1992.708-4.3803c.113-1.1812 2.099-5.5896 2.099-5.5896z" fill="#000" opacity=".1"/><path d="m124.75 44.8477c.057.0857 3.882 4.4941 2.805 4.812s-2.805-4.812-2.805-4.812z" fill="#000" opacity=".1"/><path d="m127.896 43.7197c.084.0577 1.532 3.1696 1.699 2.3375.167-.8322-1.246 2.2766-1.473-.0281z" fill="#000" opacity=".1"/><path d="m120.552 18.6829s-1.579-.9802-3.564 1.5271c0 0-1.444.8352-1.869 1.0378-.424.2026-.907 5.5616-.907 5.5616s-.934 2.3047-.68 3.6308-.735 5.8779-.735 5.8779-1.646 8.181-1.591 8.4148c.055.2337 1.672-2.565 1.644-3.9488-.027-1.3837 1.359-5.7049 1.558-5.9651.2-.2602 1.559-7.6637 1.559-7.6637s1.104-3.1415 1.812-4.1793c.708-1.0379 1.587-2.9966 1.955-3.3426.265-.233.56-.427.878-.5766z" fill="#000" opacity=".1"/><path d="m120.572 18.6829s-1.771-.9802-3.754 1.5271c0 0-1.446.8352-1.87 1.0378-.425.2026-.907 5.5616-.907 5.5616s-.935 2.3047-.681 3.6308c.255 1.3261-.735 5.8779-.735 5.8779s-1.644 8.1841-1.587 8.4148c.056.2306 1.671-2.565 1.644-3.9488-.028-1.3837 1.359-5.7049 1.558-5.9651s1.563-7.6637 1.563-7.6637 1.104-3.1415 1.812-4.1793c.708-1.0379 1.587-2.9966 1.955-3.3426.368-.3459 1.048-.5766 1.048-.5766z" fill="#4c4981"/><path d="m112.795 36.6914s-3.371-2.247-5.001-1.1375-4.29 2.6802-1.671 3.8178c2.618 1.1375 6.246.9194 6.246.9194z" fill="#fec2be"/><g fill="#000"><path d="m115.139 58.377c.503 1.0909.919 6.6041 1.198 8.3509.403-.7012.89-1.5411 1.054-1.8029.209-.3335.711-1.7515.992-2.5696-.321-.7916-1.205-3.0605-1.205-3.8958 0-1.016-1.614-2.2907-1.614-2.2907s-1.019.9116-.425 2.2081z" opacity=".1"/><path d="m125.976 75.2987s-3.74-1.6207-4.845-.4675c-1.104 1.1531 4.845.4675 4.845.4675z" opacity=".1"/><path d="m123.872 75.9463s3.783 2.1613 2.487 2.5229c-1.296.3615-2.487-2.5229-2.487-2.5229z" opacity=".1"/><path d="m112.568 74.0674s1.615.1075.999.4316c-.616.3242-.999-.4316-.999-.4316z" opacity=".1"/><path d="m110.549 74.5645c.022.1075 4.696 1.6424 3.783 2.3374s-3.783-2.3374-3.783-2.3374z" opacity=".1"/><path d="m125.423 87.7907c-.7-.109-4.61-1.9463-3.081-.6233s3.081.6233 3.081.6233z" opacity=".1"/><path d="m123.489 89.2393s-.34 1.3401-1.636 1.1671 1.636-1.1671 1.636-1.1671z" opacity=".1"/><path d="m124.574 91.9609c-.235-.0638-3.018-1.3603-3.081-.7557s2.655 1.6642 2.868 1.3401c.122-.1714.196-.3734.213-.5844z" opacity=".1"/><path d="m115.564 90.4062c-.34-.0218-3.524-1.0597-4.165-.1309z" opacity=".1"/><path d="m112.674 91.0103s-.553-.4971-1.105-.2384c-.551.2586 1.105.2384 1.105.2384z" opacity=".1"/><path d="m119.73 96.3711c-.036.1836-.124.3527-.252.4869-.128.1341-.292.2275-.472.2689z" opacity=".1"/></g><path d="m103.515 98.402c.213.8866 3.188.9723 4.612.7355 1.423-.2369 4.377-1.1033 4.377-1.1033s3.103-.3023 4.016-.6903.191-1.3838.191-1.3838 0-.0343 0-.0935c.022-.3615.086-1.672-.133-2.0258-.254-.4113-.106-1.7515-.106-1.7515s-4.398.8649-4.484.455c-.086-.4098-.766-.9941-1.083-1.1235-.318-.1293-.554 1.0799-.554 1.0799s-1.991 1.7297-2.125 2.3562c-.133.6264-1.532.9505-1.532.9505s-2.125.6046-2.678.9069c-.16.0768-.299.1945-.401.3417-.103.1471-.166.3188-.184.4983-.023.2854.005.5727.084.8477z" fill="#ca8496"/><path d="m103.515 98.4015c.213.8867 3.188.9724 4.612.7356 1.423-.2369 4.377-1.1033 4.377-1.1033s3.102-.3023 4.016-.6903c.913-.388.191-1.3838.191-1.3838s0-.0343 0-.0935l-4.443 1.002s-2.189.9505-3.591.9505c-1.226 0-3.968.5096-5.24-.2633-.025.2845.001.5713.078.8461z" fill="#000" opacity=".1"/><path d="m109.529 94.9873s.213 1.4258 1.063 1.9011z" fill="#000" opacity=".1"/><path d="m115.107 10.1041c.081.0435.165.0795.253.1075.398.1091.787-.1651 1.141-.3833.354-.21816.843-.38022 1.149-.09661.4.36931.111 1.15781.523 1.51461.26.226.674.1481.963.3335.29.1855.377.5922.451.9428.073.3506.22.7511.557.8539.338.1029.652-.1231.984-.1106.069 0 .153.0109.196-.039.031-.0456.042-.1016.032-.1558-.041-.4188-.004-.8418.109-1.2466.137-.3989.46-.7589.864-.8228.596-.0935 1.097.4379 1.448.935.369.5264.705 1.076 1.005 1.6455.019.0369.036.0749.051.1138.288-.6613.439-1.3757.443-2.0989.005-.7232-.136-1.4397-.415-2.10485-.279-.6652-.69-1.26492-1.206-1.76188-.517-.49696-1.128-.88054-1.797-1.12689-.668-.24636-1.38-.35022-2.089-.30514-.71.04509-1.403.23816-2.036.56721s-1.193.78705-1.645 1.34553c-.452.55847-.786 1.20549-.981 1.90082z" fill="#000" opacity=".1"/><path d="m123.777 11.8497c-.351-.5017-.852-1.0315-1.449-.9349-.409.0639-.725.4238-.863.8212-.113.4048-.15.8279-.107 1.2466.008.0544-.004.1101-.034.1559-.047.0514-.127.0436-.196.0405-.332-.0125-.663.2072-.983.1106-.321-.0966-.485-.5033-.558-.8539-.074-.3507-.153-.7511-.451-.9428-.297-.1917-.703-.1075-.963-.335-.412-.3553-.121-1.1454-.523-1.5147-.306-.28205-.795-.11999-1.149.09817s-.743.49083-1.143.38183c-.135-.0374-.256-.1154-.387-.16678-.63-.24465-1.447.16988-1.965-.26959-.187-.19122-.323-.42926-.392-.69032-.142-.35303-.238-.72338-.286-1.10171-.046-.38244.057-.76788.288-1.07367.337-.4036.907-.50489 1.337-.80252.366-.25556.613-.64358.855-1.02536s.477-.77915.831-1.04873.85-.4036 1.245-.19946c.125.08845.263.15532.409.1979.16.00208.316-.04168.452-.12622 1.474-.70591 3.19-.58124 4.806-.37087.647.08414 1.303.18232 1.893.46748.589.28517 1.11.77915 1.276 1.42117.132.508.031 1.0612.19 1.55829.107.33971.328.62332.459.96459.345.9116-.067 1.91202-.242 2.8719-.19 1.0488-.095 2.1816-.533 3.1758-.086.1948-.182.5361-.398.4083-.153-.095-.316-.6482-.408-.8212-.302-.5689-.64-1.1175-1.011-1.6425z" fill="#9a5e7f"/><path d="m133.115 28.7396.766 2.219s-1.814 6.8565-2.664 8.2979-2.096 3.2849-2.096 3.2849-2.096 1.0674-4.533.5765c-2.438-.4908-9.552-1.7858-9.552-1.7858s-.595.1153-.907-.3459c-.311-.4613-1.93-.695-1.93-.695s-1.869-2.766.426-3.9191c0 0 .283.6342 1.501.2026 1.218-.4317 1.586.3443 1.586.3443s1.992.4036 3.089.2603c1.097-.1434 3.853-.2026 4.137-.4332.071-.0641.165-.0969.261-.0913.095.0055.184.0489.249.1209 0 0 .678-.2587.905-.5189.227-.2603.54.2883.54.2883s.396-.2307.283-.519c-.113-.2882.368-1.3822.368-1.3822s.226-.7215.085-1.298c-.14-.5766.708-2.6491.708-2.6491.011-.3497-.027-.6992-.113-1.0378-.143-.5174 1.072-1.5583 1.072-1.5583s1.189-5.8795 3.711-3.9488c2.522 1.9308 2.108 4.5877 2.108 4.5877z" fill="#000" opacity=".1"/><path d="m133.278 28.7396.766 2.219s-1.814 6.8565-2.665 8.2979c-.85 1.4414-2.094 3.2849-2.094 3.2849s-2.096 1.0674-4.533.5765c-2.438-.4908-9.549-1.7858-9.549-1.7858s-.594.1153-.905-.3459c-.311-.4613-1.929-.695-1.929-.695s-1.869-2.766.426-3.9191c0 0 .283.6342 1.501.2026 1.218-.4317 1.586.3443 1.586.3443s1.992.4036 3.089.2603c1.097-.1434 3.853-.2026 4.137-.4332.071-.0641.165-.0969.261-.0913.095.0055.185.0489.249.1209 0 0 .679-.2587.905-.5189.227-.2603.54.2883.54.2883s.396-.2307.283-.519c-.113-.2882.368-1.3822.368-1.3822s.226-.7215.084-1.298c-.143-.5766.709-2.6491.709-2.6491.011-.3497-.027-.6992-.113-1.0378-.143-.5174 1.072-1.5583 1.072-1.5583s1.189-5.8795 3.711-3.9488c2.522 1.9308 2.101 4.5877 2.101 4.5877z" fill="#4c4981"/><path d="m114.863 38.0176c.028.2026.652 1.0082.425 1.1531s-.595.0577-.255.5189c.341.4613.307 1.1516.085 1.0659s-.595-1.1235-.595-1.5271.34-1.2108.34-1.2108z" fill="#000" opacity=".1"/><path d="m123.278 37.5566s.17 2.018 1.564 2.5946-1.564-2.5946-1.564-2.5946z" fill="#000" opacity=".1"/><path d="m126.167 36.8633c.085.0296 1.983 1.0674 1.134 1.672-.849.6047-1.134-1.672-1.134-1.672z" fill="#000" opacity=".1"/><path d="m126.281 35.4248s2.776.5766 1.838 1.0659c-.937.4893-1.838-1.0659-1.838-1.0659z" fill="#000" opacity=".1"/><g fill="#000" opacity=".1"><path d="m121.471 11.2417c.138-.3974.46-.7573.863-.8212.597-.0935 1.098.4379 1.449.935.369.5264.705 1.076 1.005 1.6455.092.173.249.7246.408.8197.216.1293.306-.212.398-.4067.438-.9911.343-2.1271.533-3.1758.112-.61245.319-1.24668.365-1.85441.066.75421-.225 1.54738-.365 2.31411-.19 1.0487-.095 2.1816-.533 3.1773-.086.1948-.182.5361-.398.4067-.153-.095-.316-.6467-.408-.8196-.3-.5696-.636-1.1192-1.005-1.6456-.351-.5002-.852-1.0316-1.449-.935-.409.0639-.725.4239-.863.8213-.068.2093-.106.4277-.113.6482-.03-.3738.008-.75.113-1.1095z" opacity=".1"/><path d="m112.614 8.5025c.069.26168.204.50032.393.69188.517.43944 1.334.02494 1.964.26959.131.04986.252.12934.387.16674.4.10752.791-.16518 1.143-.38334.353-.21817.844-.37867 1.149-.09662.402.36932.111 1.15785.523 1.51465.26.226.674.1558.963.335.29.1792.377.5906.451.935.073.3444.219.7511.558.854.338.1028.651-.1216.983-.1091.069 0 .153.0109.196-.0405.01-.0131.018-.0279.023-.0437 0 .1169 0 .2322.011.3475.008.0544-.004.1101-.034.1559-.047.0498-.127.042-.196.0389-.332-.0109-.663.2073-.983.1107-.321-.0966-.485-.5018-.558-.854-.074-.3522-.153-.7511-.451-.935-.297-.1838-.703-.109-.963-.335-.412-.3568-.121-1.14689-.523-1.51465-.306-.28361-.795-.12155-1.149.09661s-.743.49084-1.143.38334c-.135-.0374-.256-.11687-.387-.16674-.63-.24465-1.447.16984-1.964-.26958-.188-.19179-.324-.43035-.393-.69188-.142-.35255-.238-.72237-.286-1.10016-.011-.12877-.008-.25836.009-.38645.053.352.146.69658.277 1.02691z" opacity=".1"/></g><path d="m15.2874 95.6482s-6.47778-.3973-5.71479 4.2183c0 0-.15322.8165.57609 1.1875 0 0 .0107-.343.6649-.228.2323.04.4683.052.7032.036.3176-.022.6193-.149.8596-.361s1.8216-.7654 2.5295-3.7931c0 0 .5239-.6592.5025-.8291l-1.0924.4675s.3738.8026.0797 1.4695c0 0-.0353-1.4398-.2452-1.4025-.0429 0-.5684.2774-.5684.2774s.6435 1.4025.1532 2.4138c0 0 .1839-1.7219-.3585-2.3125l-.766.4566s.7507 1.443.242 2.621c0 0 .1303-1.806-.4044-2.5088l-.6971.5532s.7063 1.4211.2757 2.398c0 0-.0567-2.1019-.4259-2.2609 0 0-.6128.547-.7032.7792 0 0 .4826 1.0331.1823 1.5787 0 0-.1839-1.4027-.334-1.4027 0 0-.6128.9272-.6711 1.5587 0 0 .0261-.9462.524-1.6537-.3505.0676-.67382.2383-.92997.4909 0 0 .09346-.6561 1.08017-.7137 0 0 .5025-.7044.6358-.7465 0 0-.9806-.0841-1.57502.1839 0 0 .52402-.6233 1.75582-.3366l.6879-.5719s-1.2916-.1792-1.8385.0187c0 0 .6297-.5469 2.0239-.148l.7492-.4566s-1.1001-.2415-1.7558-.1558c0 0 .691-.3787 1.9764.0327l.5347-.2446s-.8059-.1559-1.0418-.187c-.236-.0312-.2498-.092-.2498-.092.511-.0866 1.0355-.0273 1.5153.1714 0 0 1.1383-.4363 1.12-.508z" fill="#e6cdb4"/><path d="m10.8259 102.244c2.5317 0 4.584-.353 4.584-.789 0-.435-2.0523-.788-4.584-.788-2.53173 0-4.58408.353-4.58408.788 0 .436 2.05235.789 4.58408.789z" fill="#e6cdb4" opacity=".1"/><path d="m27.7066 83.4824s-3.6525-.2244-3.2174 2.3795c-.022.132-.0024.2677.0559.3878.0583.12.1524.2183.2689.2807 0 0 0-.1932.3754-.1278.1311.0217.2642.0285.3968.0203.1787-.0137.3483-.0852.4841-.2041s1.0235-.4255 1.4279-2.1396c0 0 .2957-.3724.2835-.4675l-.6129.2665s.2099.4535.0445.829c0 0-.0199-.8119-.1379-.7932-.0245 0-.3202.1559-.3202.1559s.3615.7791.0888 1.3604c0 0 .1027-.9709-.2022-1.3043l-.4367.2649s.4229.8134.1364 1.4772c0 0 .0735-1.0191-.2283-1.4149l-.3922.3117s.3968.8025.1532 1.3526c0 0-.0322-1.1859-.2405-1.2747-.1488.1283-.2821.2743-.3968.4347 0 0 .2727.5829.1041.8898 0 0-.1041-.79-.1884-.7931 0 0-.3432.522-.3784.8819.0158-.3324.1173-.6548.2941-.9349-.1973.0389-.3794.1353-.524.2774 0 0 .0537-.3709.6129-.4021 0 0 .2819-.3974.3585-.4207 0 0-.5531-.0483-.8886.1028 0 0 .2957-.349.9897-.1901l.3876-.3226s-.7277-.1012-1.0357.0109c0 0 .3555-.3116 1.1415-.0841l.4213-.2556c-.3247-.0731-.6575-.1025-.9898-.0872 0 0 .3907-.2151 1.1139.0171l.3064-.1371s-.4596-.092-.5868-.106-.1409-.0514-.1409-.0514c.2882-.0488.5842-.0153.8549.0966 0 0 .6343-.2462.6174-.2867z" fill="#e6cdb4"/><path d="m25.197 87.2007c1.4275 0 2.5847-.1988 2.5847-.4441s-1.1572-.4441-2.5847-.4441c-1.4274 0-2.5846.1988-2.5846.4441s1.1572.4441 2.5846.4441z" fill="#e6cdb4" opacity=".1"/><path d="m6.15749 85.7422s-4.4094-.2711-3.88389 2.8719c-.02668.1595-.00311.3234.06734.4684.07044.1449.18416.2636.32488.3388 0 0 0-.2337.45197-.1558.15836.0272.31936.0351.47955.0234.21634-.0147.42196-.1012.58527-.2462s1.23947-.5205 1.72208-2.5806c0 0 .35545-.4488.34166-.5641l-.75533.3242s.2528.5454.05363.9988c0 0-.02452-.9786-.167-.9552-.02911 0-.38609.1885-.38609.1885s.43665.9506.10724 1.6425c0 0 .1241-1.1719-.24513-1.5739l-.52245.3117s.51019.9817.16393 1.7827c0 0 .08887-1.2295-.27424-1.7142l-.47495.3771s.47954.9677.18691 1.6331c0 0-.0383-1.432-.28957-1.5396 0 0-.4152.3725-.47954.5252 0 0 .3294.7028.12563 1.0736 0 0-.12563-.9536-.22829-.9583 0 0-.41366.6327-.45963 1.0659.02051-.4003.14358-.7882.35698-1.1251-.23901.0454-.4596.1614-.63429.3335 0 0 .06435-.4473.73694-.4862 0 0 .34166-.4784.43206-.508 0 0-.66647-.0577-1.07247.1246 0 0 .35697-.4207 1.19504-.229l.46882-.3896s-.87943-.1216-1.25173.014c0 0 .42899-.374 1.37889-.1013l.5102-.3116s-.7492-.1652-1.19505-.106c0 0 .47036-.2587 1.34519.0218l.36464-.1667s-.54849-.1091-.70936-.1263c-.16087-.0171-.17006-.0623-.17006-.0623.34755-.0599.70465-.02 1.0311.1153 0 0 .78291-.2836.76912-.335z" fill="#e6cdb4"/><path d="m3.1209 90.2313c1.72362 0 3.12089-.24 3.12089-.5361 0-.296-1.39727-.536-3.12089-.536-1.72363 0-3.1209.24-3.1209.536 0 .2961 1.39727.5361 3.1209.5361z" fill="#e6cdb4" opacity=".1"/><path d="m93.1091 110c2.5317 0 4.584-.353 4.584-.789 0-.435-2.0523-.788-4.584-.788s-4.5841.353-4.5841.788c0 .436 2.0524.789 4.5841.789z" fill="#e6cdb4" opacity=".1"/></svg>