<svg width="512" height="512" viewBox="0 0 512 512" fill="none" xmlns="http://www.w3.org/2000/svg">
<path fill-rule="evenodd" clip-rule="evenodd" d="M256 512C397.385 512 512 397.385 512 256C512 114.615 397.385 0 256 0C114.615 0 0 114.615 0 256C0 397.385 114.615 512 256 512ZM374.675 203.231C374.675 284.019 313.179 377.187 200.719 377.187H200.722C166.189 377.187 134.059 367.067 107 349.723C111.786 350.289 116.655 350.569 121.584 350.569C150.234 350.569 176.596 340.801 197.521 324.399C170.761 323.904 148.19 306.227 140.406 281.933C144.131 282.649 147.964 283.036 151.897 283.036C157.476 283.036 162.882 282.285 168.019 280.884C140.043 275.282 118.968 250.56 118.968 220.95V220.947C118.968 220.674 118.968 220.425 118.977 220.169C127.214 224.753 136.636 227.506 146.667 227.816C130.253 216.861 119.46 198.135 119.46 176.923C119.46 165.724 122.487 155.228 127.738 146.193C157.89 183.187 202.948 207.516 253.764 210.073C252.715 205.597 252.178 200.93 252.178 196.132C252.178 162.381 279.559 135 313.322 135C330.911 135 346.794 142.432 357.951 154.317C371.88 151.569 384.962 146.479 396.775 139.476C392.204 153.75 382.513 165.724 369.889 173.293C382.256 171.815 394.045 168.537 405 163.668C396.817 175.928 386.44 186.698 374.502 195.328C374.621 197.95 374.675 200.584 374.675 203.231Z" fill="#E6CDB4"/>
</svg>
